<svg id="Capa_1" data-name="Capa 1" xmlns="http://www.w3.org/2000/svg" xmlns:xlink="http://www.w3.org/1999/xlink" viewBox="0 0 364.59 110.11"><defs><linearGradient id="Degradado_sin_nombre" x1="-6.26" y1="63.45" x2="350.82" y2="57.46" gradientTransform="matrix(1, 0, 0, -1, 4.11, 115.39)" gradientUnits="userSpaceOnUse"><stop offset="0" stop-color="#0c9aaf"/><stop offset="1" stop-color="#84be5b"/></linearGradient><clipPath id="clip-path" transform="translate(0 0)"><circle cx="55.07" cy="55.08" r="50.96" fill="none"/></clipPath><linearGradient id="Degradado_sin_nombre_2" x1="2.75" y1="61.14" x2="297.68" y2="56.19" xlink:href="#Degradado_sin_nombre"/></defs><path d="M309.32,106H56.11V4.19H309.32c30.79-1.72,56.15,23.55,55.25,52.53C363.71,84.56,338.83,107.73,309.32,106Z" transform="translate(0 0)" fill="url(#Degradado_sin_nombre)"/><circle cx="56.07" cy="55.11" r="43.75" fill="#fff"/><g clip-path="url(#clip-path)"><g id="Layer_2" data-name="Layer 2"><g id="_13.stars" data-name=" 13.stars"><path d="M88.3,0H21.84A21.91,21.91,0,0,0,0,21.84V88.31a21.9,21.9,0,0,0,21.84,21.8H88.3a21.89,21.89,0,0,0,21.81-21.8V21.84A21.91,21.91,0,0,0,88.3,0Zm-32,33.59L57.7,31l1.41,2.56L61.67,35l-2.56,1.4L57.7,39,56.3,36.4,53.74,35Zm4.6,44.67L48,71.45l-13,6.81,2.46-14.38L27.11,53.66l14.44-2.09L48,38.48l6.46,13.09,14.42,2.09L58.42,63.85ZM77.23,48.74l-2.66,4.87-2.68-4.87L67,46.11l4.87-2.66,2.68-4.89,2.66,4.89,4.88,2.66Z" transform="translate(0 0)" fill="url(#Degradado_sin_nombre_2)"/></g></g></g><g style="isolation:isolate"><g style="isolation:isolate"><path d="M104.46,61.06l-3.24,9.79H97.06l10.58-31.13h4.85l10.63,31.13h-4.3l-3.33-9.79Zm10.2-3.14-3-9c-.69-2-1.15-3.88-1.61-5.68h-.09c-.47,1.84-1,3.74-1.58,5.63l-3,9Z" transform="translate(0 0)" fill="#fff"/></g><g style="isolation:isolate"><path d="M126.72,66.69a10.59,10.59,0,0,0,5.36,1.62c2.95,0,4.34-1.48,4.34-3.33s-1.16-3-4.16-4.11c-4-1.43-5.91-3.65-5.91-6.32,0-3.61,2.91-6.56,7.71-6.56a11.18,11.18,0,0,1,5.5,1.38l-1,3A8.64,8.64,0,0,0,134,51c-2.4,0-3.74,1.38-3.74,3,0,1.85,1.34,2.68,4.25,3.79,3.88,1.48,5.86,3.42,5.86,6.74,0,3.93-3.05,6.7-8.36,6.7a12.78,12.78,0,0,1-6.28-1.52Z" transform="translate(0 0)" fill="#fff"/><path d="M150.09,42.21a2.52,2.52,0,0,1-5,0,2.48,2.48,0,0,1,2.54-2.54A2.41,2.41,0,0,1,150.09,42.21Zm-4.53,28.64V48.49h4.07V70.85Z" transform="translate(0 0)" fill="#fff"/><path d="M155.82,66.69a10.58,10.58,0,0,0,5.35,1.62c3,0,4.35-1.48,4.35-3.33s-1.16-3-4.16-4.11c-4-1.43-5.91-3.65-5.91-6.32,0-3.61,2.91-6.56,7.71-6.56a11.18,11.18,0,0,1,5.5,1.38l-1,3A8.64,8.64,0,0,0,163.07,51c-2.4,0-3.74,1.38-3.74,3,0,1.85,1.34,2.68,4.25,3.79,3.88,1.48,5.86,3.42,5.86,6.74,0,3.93-3.05,6.7-8.36,6.7a12.78,12.78,0,0,1-6.28-1.52Z" transform="translate(0 0)" fill="#fff"/></g><g style="isolation:isolate"><path d="M179.55,42.07v6.42h5.82v3.1h-5.82v12c0,2.78.78,4.35,3,4.35a8.93,8.93,0,0,0,2.35-.28l.19,3.05a10.1,10.1,0,0,1-3.61.55,5.62,5.62,0,0,1-4.38-1.71c-1.16-1.2-1.57-3.18-1.57-5.82V51.59h-3.47v-3.1h3.47V43.14Z" transform="translate(0 0)" fill="#fff"/></g><g style="isolation:isolate"><path d="M191.92,60.41c.1,5.5,3.61,7.76,7.67,7.76A14.8,14.8,0,0,0,205.78,67l.69,2.91A18.22,18.22,0,0,1,199,71.31c-6.88,0-11-4.52-11-11.27s4-12,10.49-12c7.3,0,9.24,6.42,9.24,10.53a16.44,16.44,0,0,1-.14,1.89Zm11.92-2.91c0-2.58-1.06-6.6-5.63-6.6-4.11,0-5.92,3.78-6.24,6.6Z" transform="translate(0 0)" fill="#fff"/></g><g style="isolation:isolate"><path d="M212.8,54.55c0-2.31,0-4.21-.18-6.06h3.6l.23,3.7h.09a8.22,8.22,0,0,1,7.39-4.2c3.1,0,7.9,1.84,7.9,9.51V70.85h-4.06V58c0-3.6-1.34-6.6-5.18-6.6a5.79,5.79,0,0,0-5.45,4.15,6,6,0,0,0-.27,1.9V70.85H212.8Z" transform="translate(0 0)" fill="#fff"/></g><g style="isolation:isolate"><path d="M243.15,42.07v6.42H249v3.1h-5.82v12c0,2.78.78,4.35,3,4.35a8.93,8.93,0,0,0,2.35-.28l.19,3.05a10.1,10.1,0,0,1-3.61.55,5.62,5.62,0,0,1-4.38-1.71c-1.16-1.2-1.57-3.18-1.57-5.82V51.59h-3.47v-3.1h3.47V43.14Z" transform="translate(0 0)" fill="#fff"/></g><g style="isolation:isolate"><path d="M255.52,60.41c.1,5.5,3.61,7.76,7.67,7.76A14.8,14.8,0,0,0,269.38,67l.69,2.91a18.22,18.22,0,0,1-7.43,1.38c-6.88,0-11-4.52-11-11.27s4-12,10.48-12c7.3,0,9.24,6.42,9.24,10.53a14.42,14.42,0,0,1-.14,1.89Zm11.92-2.91c.05-2.58-1.06-6.6-5.63-6.6-4.11,0-5.92,3.78-6.24,6.6Z" transform="translate(0 0)" fill="#fff"/><path d="M290.35,39.72V70.85h-4V39.72Z" transform="translate(0 0)" fill="#fff"/><path d="M302.41,61.06l-3.24,9.79H295l10.57-31.13h4.85l10.63,31.13h-4.3l-3.32-9.79Zm10.2-3.14-3-9c-.7-2-1.16-3.88-1.62-5.68h-.09c-.46,1.84-1,3.74-1.57,5.63l-3.05,9Z" transform="translate(0 0)" fill="#fff"/></g></g></svg>