<svg id="Capa_1" data-name="Capa 1" xmlns="http://www.w3.org/2000/svg" viewBox="0 0 85.72 13.97"><defs><style>.cls-1{fill:#fff;}.cls-2{fill:#0672b9;}</style></defs><path class="cls-1" d="M76,8.9v2.8c0,.3-.1.4-.4.4H73.8c-.3,0-.4-.1-.4-.4V7.4c0-1.2-.5-1.7-1.7-1.6a1.23,1.23,0,0,0-.6.1c-.4,0-.5.2-.4.6a2.74,2.74,0,0,1,.1.9v4.3c0,.4-.1.5-.5.5H68.8c-.4,0-.5-.1-.5-.5V7.3c0-.9-.4-1.4-1.3-1.4-1.2-.1-1.2-.1-1.2,1.1v4.8c0,.3-.1.4-.4.4H63.6c-.3,0-.4-.1-.4-.4.1-2.3,0-4.5,0-6.8,0-.2,0-.3.2-.4,1.8-.9,3.7-1.4,5.7-.5a1.22,1.22,0,0,0,1.3,0A5,5,0,0,1,74,3.7a2.47,2.47,0,0,1,1.9,2.6A25,25,0,0,1,76,8.9Z" transform="translate(0.01 0)"/><path class="cls-1" d="M23.5,6.1a2.67,2.67,0,0,1,2,2.2,2.76,2.76,0,0,1-1.3,3,6.48,6.48,0,0,1-3,.9H17.7c-.3,0-.4-.1-.4-.4V1.9c0-.2-.1-.4.2-.4a10.3,10.3,0,0,1,5.2-.2,2.64,2.64,0,0,1,2.2,3A2.17,2.17,0,0,1,23.5,6.1Z" transform="translate(0.01 0)"/><path class="cls-1" d="M85.7,8a4,4,0,0,1-4.5,4.3c-2.6-.1-4.2-1.8-4.1-4.6,0-2.5,1.9-4.1,4.5-4.1a4.13,4.13,0,0,1,4.11,4.15A2.09,2.09,0,0,1,85.7,8Z" transform="translate(0.01 0)"/><path class="cls-1" d="M34,8.8v2c0,.4-.1.6-.5.7a7.51,7.51,0,0,1-4.2.7,4.17,4.17,0,0,1-1.6-.3,2.11,2.11,0,0,1-1.3-1.7,2.48,2.48,0,0,1,1-2.4A6.08,6.08,0,0,1,30,7c.3,0,.7-.1,1-.1s.5-.1.4-.5a1,1,0,0,0-1-.7c-.6,0-1.2.1-1.7.1-.8.2-1.1,0-1.4-.8s-.3-.7.5-1a8,8,0,0,1,3.8-.2A2.74,2.74,0,0,1,34,6.7Z" transform="translate(0.01 0)"/><path class="cls-1" d="M35.4,8.4V5.1c0-.2,0-.4.2-.5a7.57,7.57,0,0,1,5.5-.7A2.33,2.33,0,0,1,43,6.5v5.2c0,.4-.1.5-.4.4H40.9c-.3,0-.4-.1-.4-.4V7.4c0-1.2-.4-1.7-1.7-1.6-1,0-1,0-1,.9v5c0,.3-.1.4-.4.4H35.7c-.4,0-.4-.1-.4-.4C35.4,10.6,35.4,9.5,35.4,8.4Z" transform="translate(0.01 0)"/><path class="cls-1" d="M0,8.7a.81.81,0,0,1,.6-.9A38.69,38.69,0,0,1,7.3,5.5a39,39,0,0,1,4.8-.9.76.76,0,0,1,.9.5c.2.5.3,1,.5,1.5s0,.7-.5.7A48.47,48.47,0,0,0,1.2,10.7c-.5.2-.8.1-.9-.4S.1,9.2,0,8.7Z" transform="translate(0.01 0)"/><path class="cls-1" d="M51.1,12.3c-.6,0-1.2-.1-1.9-.1-.2,0-.3-.1-.4-.3a3.79,3.79,0,0,1,0-1.5c.1-.3.2-.5.5-.3a3.9,3.9,0,0,0,1.5.3,1.73,1.73,0,0,0,1.2-.2c.4-.2.5-.6,0-.9a4,4,0,0,0-1-.4,3.09,3.09,0,0,1-1-.4,2.44,2.44,0,0,1-.1-4.2,5.93,5.93,0,0,1,4.7-.4c.2,0,.2.2.2.3a.74.74,0,0,1-.1.5c-.3,1.2-.3,1.2-1.4.9a3.3,3.3,0,0,0-1.4,0,1,1,0,0,0-.5.4c-.1.3.1.4.3.5a3.64,3.64,0,0,0,.9.4,3.64,3.64,0,0,1,.9.4c.8.4,1.4.9,1.4,1.8a2.48,2.48,0,0,1-1.3,2.5A3.67,3.67,0,0,1,51.1,12.3Z" transform="translate(0.01 0)"/><path class="cls-1" d="M59.9,12.3a6,6,0,0,1-1.4-.1c-1-.2-1.5-.9-1.6-2.1V6.3c0-.4-.1-.5-.5-.5-.9,0-.9,0-.6-.8A5.6,5.6,0,0,1,59,1.8c.3-.1.5-.1.5.3V3.5c0,.3.1.4.4.4h1.7c.3,0,.4.1.3.4a.87.87,0,0,1-.1.5c-.2,1-.4,1.2-1.4,1.2s-1,0-1,1V9.2c0,1.1.4,1.4,1.4,1.1.5-.1.7.1.7.5.2,1.7.4,1.6-1.2,1.7A.41.41,0,0,0,59.9,12.3Z" transform="translate(0.01 0)"/><path class="cls-1" d="M11.4,2.8c0,.4-.2.5-.6.6-2,.4-4.1.7-6.2,1.3-.4.1-.9.3-1.3.4-.6.2-.8,0-1-.6-.1-.4-.2-.9-.3-1.4A.83.83,0,0,1,2.6,2,35.7,35.7,0,0,1,7.3,1,19.38,19.38,0,0,0,9.7.6c.7-.1,1,0,1.2.7S11.3,2.4,11.4,2.8Z" transform="translate(0.01 0)"/><path class="cls-1" d="M13.5,11.1c0,.4-.1.5-.4.6-2.5.6-5,1.4-7.5,2.2a.61.61,0,0,1-.83-.25.66.66,0,0,1-.07-.25,8.74,8.74,0,0,1-.4-1.5c-.2-.6,0-.8.6-1a63.9,63.9,0,0,1,6.2-1.7c.4-.1.8-.2,1.1-.3a.52.52,0,0,1,.69.26v0C13.2,9.9,13.3,10.6,13.5,11.1Z" transform="translate(0.01 0)"/><path class="cls-1" d="M47.3,8v3.7c0,.4-.1.5-.5.4H45.1c-.3,0-.4,0-.4-.4V4.2c0-.3.1-.4.4-.5a4.85,4.85,0,0,1,1.7,0c.4.1.5.2.5.6Z" transform="translate(0.01 0)"/><path class="cls-1" d="M47.3,1.3a1.3,1.3,0,1,1-2.6,0h0A1.32,1.32,0,0,1,46,0a1.26,1.26,0,0,1,1.3,1.22Z" transform="translate(0.01 0)"/><path class="cls-2" d="M19.9,8.7c0-1.2,0-1.2,1.2-1.2a2.74,2.74,0,0,1,.9.1,1.17,1.17,0,0,1,.9,1,1.1,1.1,0,0,1-.8,1.2,6.71,6.71,0,0,1-2,.1c-.2,0-.2-.1-.2-.2Z" transform="translate(0.01 0)"/><path class="cls-2" d="M19.9,4.4c0-1.2,0-1.2,1.2-1.1a1.49,1.49,0,0,1,1.1.4,1,1,0,0,1,.06,1.41.93.93,0,0,1-.46.29,4.32,4.32,0,0,1-1.6.1c-.2,0-.2-.1-.2-.2A3.41,3.41,0,0,1,19.9,4.4Z" transform="translate(0.01 0)"/><path class="cls-2" d="M83.1,7.9c0,1.1-.4,1.8-1.1,2A1.72,1.72,0,0,1,79.74,9a1.49,1.49,0,0,1-.14-.51,2.44,2.44,0,0,1,.2-1.7,1.68,1.68,0,0,1,1.7-1A1.49,1.49,0,0,1,83,6.9,1.8,1.8,0,0,1,83.1,7.9Z" transform="translate(0.01 0)"/><path class="cls-2" d="M31.5,9.3c0,.7,0,.7-.7.9a2.85,2.85,0,0,1-1.3,0,.72.72,0,0,1-.6-.6.52.52,0,0,1,.26-.69h0a3.83,3.83,0,0,1,2.1-.4c.1,0,.1.1.1.2A1.76,1.76,0,0,1,31.5,9.3Z" transform="translate(0.01 0)"/></svg>