<svg id="Capa_1" data-name="Capa 1" xmlns="http://www.w3.org/2000/svg" viewBox="0 0 360.48 59.12"><defs><style>.cls-1{fill:#193659;}.cls-2{fill:#ddd;}</style></defs><path class="cls-1" d="M319.68,37.52c0,3.94-.05,7.88,0,11.82,0,1.31-.38,1.7-1.67,1.66-2.47-.1-4.94-.09-7.41,0-1.22,0-1.53-.38-1.52-1.56.06-6,0-12.1,0-18.15,0-5.22-2-7.12-7.19-6.91-.84,0-1.68.2-2.51.3-1.57.19-2.12.8-1.56,2.5a13.06,13.06,0,0,1,.24,4c0,6-.07,12,.05,17.94,0,1.68-.54,2-2,1.91a51.58,51.58,0,0,0-6.34,0c-1.72.12-2.29-.35-2.26-2.15.12-6.19.05-12.38.05-18.57,0-3.9-1.7-5.7-5.54-5.91-5.09-.28-5.13-.24-5.13,4.79,0,6.68,0,13.37,0,20.05,0,1.37-.34,1.85-1.75,1.79-2.47-.11-4.94-.08-7.41,0-1.22,0-1.8-.22-1.74-1.61.44-9.48.12-19,.21-28.47,0-.65,0-1.21.75-1.57,7.68-3.89,15.58-6,23.79-1.91,2.09,1.05,3.45,1.2,5.57.17a20.37,20.37,0,0,1,15.17-1.52c5.36,1.61,8.14,5.33,8.15,10.89C319.69,30.49,319.68,34,319.68,37.52Z"/><path class="cls-1" d="M99.11,25.5c4.74,1.53,7.71,4.24,8.45,9a12.29,12.29,0,0,1-5.37,12.8C98.36,50.07,94,50.86,89.41,51c-4.94.09-9.88,0-14.81,0-1.39,0-1.78-.38-1.77-1.78,0-13.92,0-27.85,0-41.77,0-.73-.25-1.53,1-1.69,7.26-1,14.52-2.23,21.79-.22,6.61,1.82,10.06,6.57,9.37,12.62C104.6,21.65,102.38,23.77,99.11,25.5Z"/><path class="cls-1" d="M360.48,33.45c-.05,12.34-8.59,18.44-19.12,18.12C330.6,51.24,323.86,44,324,32.34c.12-10.37,7.81-17.24,19.12-17.1C353.44,15.37,360.58,22.86,360.48,33.45Z"/><path class="cls-1" d="M143,37.16c0,2.74-.12,5.49,0,8.23a2.89,2.89,0,0,1-1.91,3.08c-5.51,2.79-11.44,3.22-17.46,3.11a17.05,17.05,0,0,1-6.77-1.43c-3.09-1.41-5.16-3.72-5.45-7.19-.35-4.05.93-7.5,4.38-9.9,3.21-2.24,7-2.93,10.73-3.45a27.07,27.07,0,0,1,4.21-.35c1.65,0,2-.47,1.51-2.08A4.16,4.16,0,0,0,128.09,24a35.63,35.63,0,0,0-7.36.6c-3.38.49-4.71-.23-6-3.46s-1.19-3.1,1.94-4.08c5.31-1.64,10.7-2.36,16.21-1.12,6.7,1.51,10,5.49,10.06,12.33C143,31.25,143,34.21,143,37.16Z"/><path class="cls-1" d="M149.09,35.26c0-4.64,0-9.29,0-13.93,0-.88,0-1.62,1-2.09,7.37-3.59,15-5.24,23.08-2.86,5.75,1.71,8.1,5.13,8.1,11,0,7.25-.05,14.49,0,21.74,0,1.51-.42,1.92-1.88,1.84-2.32-.12-4.66-.11-7,0-1.43.07-1.76-.44-1.74-1.8.07-6,0-12,0-18,0-5.21-1.77-6.94-7-6.88-4.05,0-4.05,0-4.05,4,0,7,0,13.94,0,20.9,0,1.39-.35,1.83-1.75,1.76-2.4-.11-4.8-.13-7.2,0-1.49.09-1.71-.51-1.69-1.81.06-4.64,0-9.28,0-13.93Z"/><path class="cls-1" d="M0,36.4a3.5,3.5,0,0,1,2.5-3.9,174.14,174.14,0,0,1,28.17-9.24c6.71-1.6,13.51-2.74,20.33-3.73,1.89-.27,3.15.36,3.75,2.2.7,2.14,1.46,4.25,2.11,6.39.57,1.86-.06,2.79-2,3.1A200.37,200.37,0,0,0,5.23,45.63c-2.3,1-3.31.53-3.81-1.83C.87,41.19.42,38.56,0,36.4Z"/><path class="cls-1" d="M215.13,51.61a46.2,46.2,0,0,1-7.79-.57,1.5,1.5,0,0,1-1.53-1.41,17,17,0,0,1-.05-6.28c.28-1.41.77-1.94,2.22-1.37a28.29,28.29,0,0,0,6.16,1.37,8.47,8.47,0,0,0,5.15-.73c1.84-.94,1.93-2.62.19-3.78a14.79,14.79,0,0,0-4.33-1.62,18.26,18.26,0,0,1-4.28-1.72c-6.59-3.86-7-13.49-.47-17.57,6.16-3.88,12.88-3.34,19.62-1.75.74.17,1,.69.83,1.44s-.18,1.53-.36,2.28c-1.19,5-1.24,5-6,4a12.08,12.08,0,0,0-6.06.2,2.51,2.51,0,0,0-1.9,1.8c-.25,1.07.53,1.69,1.28,2.22a16.53,16.53,0,0,0,4,1.87c1.31.49,2.65.93,3.92,1.52,3.31,1.53,5.81,3.65,6,7.68.17,4.63-1.45,8.25-5.64,10.48C222.61,51.46,218.9,51.75,215.13,51.61Z"/><path class="cls-1" d="M252,51.65a33.36,33.36,0,0,1-6-.56c-4.25-1-6.43-3.66-6.63-8.78-.21-5.27-.16-10.54-.08-15.81,0-1.6-.32-2.16-2-2.09-3.58.14-3.83-.18-2.53-3.53A24.33,24.33,0,0,1,248.09,7.23c1.35-.61,2-.52,1.9,1.24s0,3.8-.06,5.69c-.07,1.35.29,1.88,1.74,1.81,2.39-.12,4.79,0,7.19-.05,1.24,0,1.67.39,1.39,1.6-.16.68-.19,1.39-.33,2.08-.89,4.29-1.58,4.85-5.94,4.85-4,0-4,0-4,4.07,0,3.1,0,6.19,0,9.28,0,4.42,1.57,5.83,5.89,4.67,2.19-.58,2.88.25,3.09,2,.85,7,1.83,6.56-5.12,7.07Z"/><path class="cls-1" d="M48.25,12a2.32,2.32,0,0,1-2.33,2.44,237.31,237.31,0,0,0-26.41,5.42l-5.46,1.55c-2.58.73-3.51.24-4.18-2.28-.53-2-1-3.94-1.46-5.91-.65-2.61,0-3.77,2.58-4.51A179.62,179.62,0,0,1,30.72,4.24c3.39-.56,6.8-1.05,10.21-1.57,3.14-.48,4,0,5.08,3C46.8,7.8,47.55,10,48.25,12Z"/><path class="cls-1" d="M56.81,46.83c.07,1.57-.39,2.31-1.67,2.62Q39.19,53.4,23.71,58.89c-1.86.65-3.18-.11-3.74-2-.63-2.15-1.2-4.32-1.77-6.49-.63-2.43-.06-3.52,2.32-4.31q12.81-4.24,26-7.25c1.57-.35,3.16-.66,4.72-1.07a2.38,2.38,0,0,1,3,1.23A52.08,52.08,0,0,1,56.81,46.83Z"/><path class="cls-1" d="M199,33.55c0,5.2-.06,10.4,0,15.6,0,1.51-.45,1.92-1.9,1.85-2.32-.11-4.66-.09-7,0-1.28,0-1.86-.18-1.85-1.69q.11-15.81,0-31.62c0-1.31.58-1.72,1.63-2a16.78,16.78,0,0,1,7.33,0A1.93,1.93,0,0,1,199,17.94C198.92,23.14,199,28.34,199,33.55Z"/><path class="cls-1" d="M199.11,5.51a5.49,5.49,0,0,1-11-.1A5.44,5.44,0,0,1,193.69,0,5.38,5.38,0,0,1,199.11,5.51Z"/><path class="cls-2" d="M83.79,36.63c0-5,0-5,5-5A12.86,12.86,0,0,1,92.5,32c2.34.66,3.53,2,3.65,4.27a4.65,4.65,0,0,1-3.29,5c-2.73.93-5.57.37-8.36.51-.75,0-.71-.5-.71-1Z"/><path class="cls-2" d="M83.79,18.29c0-4.92,0-4.91,4.95-4.82a6,6,0,0,1,4.59,1.71,4.43,4.43,0,0,1-1.87,7.19c-2.26.77-4.6.31-6.9.43-.72,0-.78-.39-.77-.94C83.81,20.67,83.79,19.48,83.79,18.29Z"/><path class="cls-2" d="M349.79,33.25c0,4.61-1.56,7.46-4.61,8.6-5,1.85-9.45-.79-10.3-6a12.5,12.5,0,0,1,.71-7.21c1.28-2.89,3.75-4.3,7.13-4.18a6.75,6.75,0,0,1,6.36,4.65A10.29,10.29,0,0,1,349.79,33.25Z"/><path class="cls-2" d="M132.57,39.23c0,3.14,0,3.13-3,4a10.9,10.9,0,0,1-5.41.08,2.79,2.79,0,0,1-2.35-2.37A3,3,0,0,1,123,37.76c2.7-1.85,5.84-1.72,8.93-1.73.58,0,.63.45.63.88Z"/></svg>