<svg id="Capa_1" data-name="Capa 1" xmlns="http://www.w3.org/2000/svg" viewBox="0 0 67.18 67.18"><g id="Capa_1-2" data-name="Capa 1-2"><path d="M198.09,331a33.59,33.59,0,1,1,33.45-33.73v.28h0A33.18,33.18,0,0,1,198.64,331h-.55Zm0-65.29a31.7,31.7,0,1,0,31.55,31.84h0A31.27,31.27,0,0,0,199,265.71h-.86Z" transform="translate(-164.36 -263.82)" fill="#fff"/></g><path d="M209.72,314.83H185.33a5.35,5.35,0,0,1-5.22-5.23V285.22a5.35,5.35,0,0,1,5.22-5.23h12.19v3.49H185.33a1.78,1.78,0,0,0-1.74,1.74V309.6a1.78,1.78,0,0,0,1.74,1.74h24.39a1.55,1.55,0,0,0,1.21-.52,1.59,1.59,0,0,0,.53-1.22V297.41h3.48V309.6a4.72,4.72,0,0,1-1.57,3.66A5.79,5.79,0,0,1,209.72,314.83Z" transform="translate(-164.36 -263.82)" fill="#fff"/><rect x="187.08" y="291.42" width="29.1" height="4.55" rx="2.28" transform="translate(-308.57 -55.59) rotate(-41.65)" fill="#fff"/><rect x="202.55" y="280.66" width="12.71" height="4.55" rx="2.28" transform="translate(-170.81 -258.94) rotate(-1.32)" fill="#fff"/><rect x="207.11" y="284.6" width="12.52" height="4.55" rx="2.28" transform="translate(343.08 -180.3) rotate(91.98)" fill="#fff"/></svg>