<svg id="Capa_1" data-name="Capa 1" xmlns="http://www.w3.org/2000/svg" viewBox="0 0 79.75 79.75"><path d="M237.86,297.53v35.9c0,2.74-1.1,3.85-3.84,3.85H162c-2.8,0-3.88-1.08-3.88-3.92V261.45c0-2.83,1.08-3.91,3.89-3.91h72c2.73,0,3.82,1.1,3.82,3.86Zm-73.52-29v1.05q0,30.12,0,60.25c0,1.12.4,1.27,1.36,1.27q30,0,60,0c.39,0,.81.12,1.1-.08Zm52,13.54c4.72,0,9.43,0,14.15,0,.85,0,1.17-.18,1.16-1.11-.05-5.35,0-10.71,0-16.07,0-.91-.29-1.13-1.16-1.13q-14.15,0-28.29,0c-.84,0-1.09.21-1.08,1.07q.06,8.08,0,16.18c0,.87.24,1.07,1.07,1.06C206.91,282,211.62,282,216.34,282Zm15.29,15.49c0-2.75,0-5.51,0-8.26,0-.8-.26-1-1-1q-8.15,0-16.3,0c-.71,0-1,.18-1,.94q0,8.21,0,16.41c0,.74.23.95,1,.95,5.43,0,10.86,0,16.29,0,.9,0,1.06-.32,1-1.12C231.6,302.81,231.63,300.17,231.63,297.53Zm-62.71-33.76c.2.3.24.39.31.47q8.69,8.67,17.34,17.36a1.51,1.51,0,0,0,1.21.45c2,0,4-.05,6,0,.84,0,1.08-.2,1.07-1.06q-.06-8,0-16.07c0-.95-.27-1.19-1.2-1.18-7.84,0-15.69,0-23.54,0Zm38.13,38a2.08,2.08,0,0,0,.06-.35c0-4.11,0-8.22,0-12.33,0-.8-.4-.81-1-.81h-12c-.2,0-.46-.09-.52,0Zm11,11,13.44,13.49s0,0,0,0q0-6.44.07-12.89c0-.44-.21-.58-.62-.58C226.7,312.79,222.41,312.78,218.09,312.78Z" transform="translate(-158.11 -257.54)" fill="#fff"/></svg>