<svg id="Capa_1" data-name="Capa 1" xmlns="http://www.w3.org/2000/svg" viewBox="0 0 41.73 41.9"><defs><style>.cls-1{fill:#fff;}</style></defs><path class="cls-1" d="M20.84,41.9H11.09A11,11,0,0,1,0,31a11.38,11.38,0,0,1,.07-1.31,10.4,10.4,0,0,1,3.71-7.17,2.52,2.52,0,0,0,1-1.89A12,12,0,0,1,14.85,9.55a12.16,12.16,0,0,1,1.81-.14A1.72,1.72,0,0,1,18.43,11a1.65,1.65,0,0,1-1.52,1.76h-.06a9.14,9.14,0,0,0-5.33,1.82,8.11,8.11,0,0,0-3.3,7.55,2.3,2.3,0,0,1-1.33,2.28,7.42,7.42,0,0,0-3.44,5.81,7.51,7.51,0,0,0,6.81,8.15l.32,0q10.25.15,20.5,0a7,7,0,0,0,6.58-4.63,7.34,7.34,0,0,0-1.53-8.19,3.74,3.74,0,0,1-1-2,7.1,7.1,0,0,0-6.81-6.18H28A1.71,1.71,0,0,1,28,14h.16a10.6,10.6,0,0,1,10.19,8.19,4.36,4.36,0,0,0,.81,1.59A10.65,10.65,0,0,1,40.64,35.4a10.53,10.53,0,0,1-9.79,6.43c-3.33.12-6.68,0-10,0Z"/><path class="cls-1" d="M20,26.23V2.51a5.57,5.57,0,0,1,0-1A1.77,1.77,0,0,1,21.73,0a1.75,1.75,0,0,1,1.69,1.5,6.61,6.61,0,0,1,0,1.09V26.25c.43,0,.56-.32.76-.52,1.07-1.08,2.1-2.2,3.18-3.26a1.74,1.74,0,0,1,2.52,2.41c-2.32,2.44-4.68,4.85-7,7.23a1.6,1.6,0,0,1-2.25.14l-.13-.14q-3.6-3.6-7.11-7.3a1.7,1.7,0,0,1,.17-2.39,1.77,1.77,0,0,1,2.47.11c.93.9,1.82,1.86,2.72,2.81.32.32.61.66.92,1Z"/></svg>