<svg id="Capa_1" data-name="Capa 1" xmlns="http://www.w3.org/2000/svg" viewBox="0 0 80.95 80.9"><path d="M238.37,297.45q0,15.69,0,31.39c0,5.38-3.67,9-9.08,9H166.62c-5.45,0-9.09-3.66-9.09-9.14,0-20.86.07-41.71-.05-62.56a9.18,9.18,0,0,1,9.25-9.2q31.22.19,62.44,0a9.16,9.16,0,0,1,9.26,9.31C238.24,276.67,238.37,287.06,238.37,297.45Zm-75.9,31.27L229.21,262H167.12c-3.3,0-4.63,1.35-4.63,4.68v61.08A4,4,0,0,0,162.47,328.72Zm70.9-63c-.41.36-.65.55-.86.76q-15.07,15.06-30.16,30.12c-.78.77-.54,1.2.1,1.84q15,14.93,29.91,29.88c.27.27.49.68,1,.7Zm-3.62,67.17c-.46-.5-.74-.8-1-1.09Q213.86,316.9,199,302c-.81-.82-1.27-.85-2.1,0q-14.82,14.91-29.71,29.76a2.26,2.26,0,0,0-.83,1.1Z" transform="translate(-157.48 -256.98)" fill="#fff"/><path d="M179.14,291.21c0-1.76,0-3.51,0-5.27a1.85,1.85,0,0,0-1.22-2,8.7,8.7,0,0,1-1.71-14.79,8.22,8.22,0,0,1,9.05-1.12,8.33,8.33,0,0,1,5.16,7.75,8.18,8.18,0,0,1-4.73,8,2.35,2.35,0,0,0-1.51,2.53c.08,3.44,0,6.87,0,10.31a5.76,5.76,0,0,1-.08,1.25,2.57,2.57,0,0,1-2.52,2.1,2.54,2.54,0,0,1-2.36-2.12,6.81,6.81,0,0,1-.11-1.36C179.14,294.72,179.14,293,179.14,291.21Zm2.53-18.95a3.76,3.76,0,1,0,3.79,3.76A3.8,3.8,0,0,0,181.67,272.26Z" transform="translate(-157.48 -256.98)" fill="#fff"/></svg>