<svg id="Capa_1" data-name="Capa 1" xmlns="http://www.w3.org/2000/svg" viewBox="0 0 67.18 67.18"><defs><style>.cls-1{fill:#fff;}</style></defs><g id="Capa_1-2" data-name="Capa 1-2"><path class="cls-1" d="M36.39,69.67A33.59,33.59,0,1,1,69.84,35.94v.28h0a33.18,33.18,0,0,1-32.9,33.45h-.55Zm0-65.29A31.7,31.7,0,1,0,67.94,36.22h0A31.27,31.27,0,0,0,37.25,4.38h-.86Z" transform="translate(-2.66 -2.49)"/></g><path class="cls-1" d="M41.09,11.83" transform="translate(-2.66 -2.49)"/><path class="cls-1" d="M41.09,11.83" transform="translate(-2.66 -2.49)"/><path class="cls-1" d="M41.5,11.83" transform="translate(-2.66 -2.49)"/><rect class="cls-1" x="29.89" y="12.93" width="12.71" height="46.29" rx="6.36" transform="translate(-17.54 32.67) rotate(-43.83)"/><rect class="cls-1" x="29.89" y="12.93" width="12.71" height="46.29" rx="6.36" transform="translate(32.67 84.73) rotate(-133.83)"/></svg>