<svg id="Capa_1" data-name="Capa 1" xmlns="http://www.w3.org/2000/svg" viewBox="0 0 63.71 48.07"><g opacity="0.1"><path d="M229.77,317.81l-4.05-1.47c-3.37-1.21-6.82-2.14-10.24-3.19a9.41,9.41,0,0,1-2.81-1.28,2.1,2.1,0,0,1-.82-2.79,7.94,7.94,0,0,1,1-1.79c.57-.82,1.19-1.61,1.71-2.46,1.52-2.48.82-4.73-1.92-5.7a10.06,10.06,0,0,0-9.64,1.19c-2.24,1.6-2.73,4-2.9,6.57-.1,1.37,0,2.75-.23,4.12-.39,2.67-1.84,3.84-4.48,3.45-1.53-.22-3-.62-4.54-.95-6.15-1.32-10.72.48-13.9,5.86-1,1.68-2,2.31-3.86,2.09-1.16-.14-2.34,0-3.51,0a3.41,3.41,0,0,1-3.4-3.34c-.05-1.31,0-2.62,0-3.93a1,1,0,0,1,.13-.58c2.39-3.6,5.87-6.12,10.88-3.8,1.1.51,1.83.07,1.88-1.14,0-.58,0-1.17,0-1.76,0-9.37,0-18.74,0-28.11,0-1,.31-1.17,1.27-1.27,2.23-.21,3.52.27,4.46,2.67,1.5,3.82,4.82,4.93,8.71,3.59.29-.1.59-.18.89-.26,2.8-.77,4.17.07,4.67,2.95.27,1.59.37,3.21.58,4.81a8.73,8.73,0,0,0,.36,1.61c.74,2.28,2.68,3,4.73,1.71a20.65,20.65,0,0,0,3-2.52,15.09,15.09,0,0,1,3.63-2.71,4.69,4.69,0,0,1,5.31.57c.8.65,1.52,1.4,2.27,2.11,2.33,2.19,4.5,2,6.27-.73a25.17,25.17,0,0,0,3-8.19c.37-1.52.66-3.07,1-4.72a2.08,2.08,0,0,1,.62,1.6V317.5A1.85,1.85,0,0,1,229.77,317.81ZM195.4,299.57A6.32,6.32,0,1,0,189,305.8,6.36,6.36,0,0,0,195.4,299.57Z" transform="translate(-166.16 -273.43)" fill="#0c73ba"/><path d="M178.4,321.43a10,10,0,0,1,11.14-5.89c1.88.4,3.75.92,5.65,1.18,3.91.53,6.48-1.56,7-5.5a32.07,32.07,0,0,0,.2-3.92c0-5.5,3.74-6.88,7.85-6.46a4.28,4.28,0,0,1,2.39.87c.5.41.69.84.31,1.43s-.63,1.06-1,1.57a23,23,0,0,0-2,3,4.51,4.51,0,0,0,1.93,6.36,27.51,27.51,0,0,0,6.19,2.21c3.69,1.09,7.35,2.27,11,3.74a2.94,2.94,0,0,1-2.23,1.37,7,7,0,0,1-1,0H178.4Z" transform="translate(-166.16 -273.43)" fill="#0c73ba"/><path d="M166.19,310v-1.19c0-9.47.08-18.94,0-28.41,0-4.08,2.93-7.22,7-6.91a23.22,23.22,0,0,0,2.89,0c.64,0,.83.2.83.82,0,2.55,0,5.1,0,7.65,0,8,0,16.05,0,24.07,0,.87-.12,1.09-1.06.87C172.34,306.07,169.45,307,166.19,310Z" transform="translate(-166.16 -273.43)" fill="#0c73ba"/><path d="M206.51,277.54c6.47,0,13,0,19.43,0,.87,0,1.12.16.93,1.09a52.45,52.45,0,0,1-2.67,9.84,7.35,7.35,0,0,1-1.26,2.12c-.74.83-1.16.88-2,.15s-1.34-1.28-2-1.91c-3-2.81-6.43-3.06-9.88-.76a49.34,49.34,0,0,0-4.47,3.83c-.54.46-1.1,1.21-1.83,1s-.73-1.24-.83-2c-.18-1.47-.31-2.95-.52-4.41-.69-4.69-3.63-6.5-8.11-5a9.32,9.32,0,0,1-1,.32c-3.21.73-4.78-.46-6-3.66-.17-.41,0-.57.4-.55h19.84Z" transform="translate(-166.16 -273.43)" fill="#0c73ba"/><path d="M189.11,303.53a4.06,4.06,0,1,1,4-4.1A4.05,4.05,0,0,1,189.11,303.53Z" transform="translate(-166.16 -273.43)" fill="#0c73ba"/></g></svg>