<svg id="Capa_1" data-name="Capa 1" xmlns="http://www.w3.org/2000/svg" viewBox="0 0 54.91 57.13"><defs><style>.cls-1,.cls-2{fill:#173658;}.cls-1{fill-rule:evenodd;}</style></defs><path class="cls-1" d="M36.08,58.88a1.42,1.42,0,0,0,1,.42,1.45,1.45,0,0,0,1-.42A89.47,89.47,0,0,0,49.43,44.39c3.43-5.58,6.24-12,6.24-18a18.58,18.58,0,0,0-37.16,0c0,5.93,2.82,12.38,6.25,18A89.47,89.47,0,0,0,36.08,58.88Zm1-41a8.58,8.58,0,1,1-8.57,8.58A8.59,8.59,0,0,1,37.09,17.85Z" transform="translate(-9.64 -7.85)"/><ellipse class="cls-2" cx="27.46" cy="54.59" rx="27.46" ry="2.54"/></svg>