<svg id="Capa_1" data-name="Capa 1" xmlns="http://www.w3.org/2000/svg" xmlns:xlink="http://www.w3.org/1999/xlink" viewBox="0 0 72.59 89.09"><defs><style>.cls-1{fill:none;}.cls-2{fill:url(#linear-gradient);}.cls-3{fill:#a8bdcd;opacity:0.2;}.cls-4{clip-path:url(#clip-path);}.cls-5{fill:#173559;}</style><linearGradient id="linear-gradient" x1="5.81" y1="5.81" x2="64.03" y2="64.03" gradientUnits="userSpaceOnUse"><stop offset="0" stop-color="#fff"/><stop offset="1" stop-color="#e7e8e9"/></linearGradient><clipPath id="clip-path" transform="translate(0)"><circle class="cls-1" cx="36.29" cy="36.29" r="31.35" transform="translate(-2.84 69.5) rotate(-85.33)"/></clipPath></defs><circle class="cls-2" cx="36.29" cy="36.29" r="36.29"/><circle class="cls-3" cx="36.41" cy="36.29" r="31.38"/><g class="cls-4"><path class="cls-5" d="M51.87,63.78c3.71-.26,10-3.27,10.27-3.4a.26.26,0,0,0,.13-.32c-.49-1.3-.94-2.51-1.35-3.64-2.2-6-3.53-9.58-5.36-11.78-1.22-1.46-4-2.72-6.08-3.52a20,20,0,0,0-2-.71l-.1,0h0a23,23,0,0,0-3.63-.84l-2-1.11a10.91,10.91,0,0,1-.85-2.91,11.23,11.23,0,0,0,2.43-4.71,1.47,1.47,0,0,0,.66.07l.11,0a3.52,3.52,0,0,0,1.79-1.65A4,4,0,0,0,46.39,26a1.74,1.74,0,0,0-.92-.95l-.1,0c.21-.6.17-2.19.48-4.14.73-4.67-3.83-8.19-9.92-8.65-4.68-.48-6.08.92-6,3a5.66,5.66,0,0,0-3.49,5.63A26.58,26.58,0,0,0,27,25l-.06,0A1.78,1.78,0,0,0,26,26a4,4,0,0,0,.55,3.24,3.52,3.52,0,0,0,1.79,1.65,1.41,1.41,0,0,0,.75,0,11.47,11.47,0,0,0,2.38,4.64,10.29,10.29,0,0,1-.85,3l-2,1.11a23,23,0,0,0-3.62.84l-.11,0c-.75.23-1.42.46-2,.7-2.1.81-4.86,2.07-6.08,3.53-1.84,2.2-3.17,5.81-5.37,11.78-.41,1.13-.86,2.34-1.34,3.64a.25.25,0,0,0,.13.32c.27.13,6.55,3.14,10.27,3.4l.2,6.37c0,.77.11,7.66,0,10.78,0,1-.15,2-.26,3a25.28,25.28,0,0,0-.21,2.75c0,1,.1,1.66.55,2l.09,0c1.08.27,8.2.4,15.33.4h0c7.12,0,14.25-.13,15.32-.4l.1,0c.45-.35.54-1,.55-2a25.54,25.54,0,0,0-.22-2.75c-.11-1-.22-2-.25-3-.12-3.28,0-10.72,0-10.79Z" transform="translate(0)"/></g></svg>