<svg id="Capa_1" data-name="Capa 1" xmlns="http://www.w3.org/2000/svg" viewBox="0 0 39.34 44.76"><defs><style>.cls-1{fill:#adafc2;}</style></defs><path class="cls-1" d="M9.49,19.84l2.32,28a4,4,0,0,0,3.92,3.61h21.4a4,4,0,0,0,3.92-3.61l2.32-28Zm10.38,26.4A1.31,1.31,0,0,1,18.56,45L17.25,23.86a1.32,1.32,0,0,1,1.23-1.39,1.29,1.29,0,0,1,1.39,1.23l1.31,21.15A1.31,1.31,0,0,1,19.87,46.24Zm7.87-1.31a1.31,1.31,0,0,1-2.62,0V23.78a1.31,1.31,0,1,1,2.62,0ZM35.6,23.86,34.29,45a1.31,1.31,0,1,1-2.61-.16L33,23.7a1.33,1.33,0,0,1,1.39-1.23A1.3,1.3,0,0,1,35.6,23.86Z" transform="translate(-6.76 -6.73)"/><path class="cls-1" d="M43.48,12H35.61V10.66a4,4,0,0,0-3.94-3.93H21.18a3.94,3.94,0,0,0-3.93,3.93V12H9.38a2.62,2.62,0,0,0,0,5.24h34.1a2.62,2.62,0,1,0,0-5.24ZM33,12H19.87V10.66a1.31,1.31,0,0,1,1.31-1.31H31.67A1.31,1.31,0,0,1,33,10.66Z" transform="translate(-6.76 -6.73)"/></svg>