<svg id="Capa_1" data-name="Capa 1" xmlns="http://www.w3.org/2000/svg" viewBox="0 0 48.19 48.08"><defs><style>.cls-1{fill:#0a72b9;}</style></defs><path class="cls-1" d="M40.6,51.73H8.47a6.28,6.28,0,0,1-4.82-2.06,6.28,6.28,0,0,1-2.06-4.82V12.72A6.27,6.27,0,0,1,3.65,7.9,6.25,6.25,0,0,1,8.47,5.84H24.54v4.58H8.47a2.08,2.08,0,0,0-1.6.69,2.09,2.09,0,0,0-.69,1.61V44.85a2.07,2.07,0,0,0,.69,1.6,2.08,2.08,0,0,0,1.6.69H40.6a2.09,2.09,0,0,0,1.61-.69,2.07,2.07,0,0,0,.69-1.6V28.78h4.59V44.85a6.26,6.26,0,0,1-2.07,4.82A7.68,7.68,0,0,1,40.6,51.73Z" transform="translate(-1.59 -3.66)"/><path class="cls-1" d="M27.52,35.67H20a2.17,2.17,0,0,1-2.3-2.3V25.8a2.09,2.09,0,0,1,.69-1.61L37.62,4.92A4.91,4.91,0,0,1,39,4a4.49,4.49,0,0,1,3.45,0c.46.23,1.14.69,1.6.92L48.4,9.28a3.84,3.84,0,0,1,1.38,3.21A4.14,4.14,0,0,1,48.4,15.7L29.13,35A2.48,2.48,0,0,1,27.52,35.67Zm-5.28-4.59H26.6L45.19,12.49,40.83,8.13,22.24,26.72Z" transform="translate(-1.59 -3.66)"/></svg>