<svg id="Capa_1" data-name="Capa 1" xmlns="http://www.w3.org/2000/svg" viewBox="0 0 51.17 51.05"><defs><style>.cls-1{fill:#ddd;}</style></defs><path class="cls-1" d="M49.74,58.8H15.63a6.65,6.65,0,0,1-5.12-2.19,6.65,6.65,0,0,1-2.19-5.12V17.38a6.65,6.65,0,0,1,2.19-5.12,6.65,6.65,0,0,1,5.12-2.19H32.69v4.87H15.63a2.49,2.49,0,0,0-2.44,2.44V51.49a2.49,2.49,0,0,0,2.44,2.44H49.74a2.49,2.49,0,0,0,2.44-2.44V34.44h4.87V51.49a6.65,6.65,0,0,1-2.19,5.12A8.11,8.11,0,0,1,49.74,58.8Z" transform="translate(-8.32 -7.76)"/><path class="cls-1" d="M35.85,41.75h-8a2.3,2.3,0,0,1-2.43-2.44v-8a2.22,2.22,0,0,1,.73-1.71L46.57,9.1a5,5,0,0,1,1.47-1,4.72,4.72,0,0,1,3.65,0c.49.24,1.22.73,1.71,1L58,13.73a4.09,4.09,0,0,1,1.46,3.41A4.45,4.45,0,0,1,58,20.55L37.56,41A2.68,2.68,0,0,1,35.85,41.75Zm-5.6-4.88h4.63L54.62,17.14,50,12.51,30.25,32.24Z" transform="translate(-8.32 -7.76)"/></svg>