<svg id="Capa_1" data-name="Capa 1" xmlns="http://www.w3.org/2000/svg" viewBox="0 0 55.59 55.3"><defs><style>.cls-1{fill:none;stroke:#173559;stroke-miterlimit:10;stroke-width:3px;}.cls-2{fill:#173559;}</style></defs><path class="cls-1" d="M30.71,50.45a19.73,19.73,0,1,1,19.8-19.64A19.75,19.75,0,0,1,30.71,50.45Z" transform="translate(-9.53 -9.5)"/><path class="cls-2" d="M61,64.8a3.87,3.87,0,0,1-2.86-1.14l-9-8.93a3,3,0,0,1-1-1.91,3.16,3.16,0,0,0-1.27-2.18c-.81-.78-1.58-1.6-2.4-2.37-.39-.37-.35-.57.06-.89a17.39,17.39,0,0,0,3.09-3.15c.34-.45.53-.39.87,0,.57.62,1.18,1.21,1.78,1.8.89.87,1.64,1.9,3.09,2a2.73,2.73,0,0,1,1.68,1c2.94,2.93,5.89,5.85,8.8,8.81a4.09,4.09,0,0,1-2.84,7Z" transform="translate(-9.53 -9.5)"/></svg>