<svg id="Capa_1" data-name="Capa 1" xmlns="http://www.w3.org/2000/svg" viewBox="0 0 72.53 72.53"><defs><style>.cls-1{fill:#173658;}.cls-2,.cls-3{fill:none;stroke-miterlimit:10;}.cls-2{stroke:#173657;}.cls-3{stroke:#fff;stroke-width:2px;}</style></defs><path class="cls-1" d="M36.29,20A16.16,16.16,0,1,0,52.45,36.2,16.15,16.15,0,0,0,36.29,20Zm2.52,26.38a.72.72,0,0,1-.8.81h-4a.71.71,0,0,1-.76-.74c.17-5.19-.93-4.8,2.82-4.78S38.65,41.33,38.81,46.42Zm4.36-11c-.84,1.18-2.26,1.7-3.37,2.56-1.57,1.32-.59,2.57-1.87,2.66H34c-.54,0-.64-.57-.72-1a4.65,4.65,0,0,1,1.81-4.17c.89-.85,2.11-1.21,3-2A1.69,1.69,0,0,0,38,30.78a3.47,3.47,0,0,0-3.68-.13,10.86,10.86,0,0,0-1.87,2,.71.71,0,0,1-1.12.13l-2.68-2a.69.69,0,0,1-.18-1,8.86,8.86,0,0,1,12.86-2.84c2.76,1.8,4,5.83,1.84,8.56Z" transform="translate(-0.03 0.07)"/><circle class="cls-2" cx="36.27" cy="36.27" r="19.04"/><rect class="cls-3" x="1" y="1" width="70.53" height="70.53" rx="12.17"/></svg>