<svg xmlns="http://www.w3.org/2000/svg" xmlns:xlink="http://www.w3.org/1999/xlink" viewBox="0 0 685.44 377.13"><defs><style>.cls-1,.cls-14,.cls-15,.cls-19,.cls-21,.cls-22,.cls-24{fill:none;}.cls-2{isolation:isolate;}.cls-3{opacity:0.81;}.cls-12,.cls-25,.cls-4{mix-blend-mode:multiply;}.cls-4{opacity:0.21;}.cls-5{fill:#33346b;}.cls-6{fill:#133658;}.cls-25,.cls-7{fill:#ffde42;}.cls-8{opacity:0.71;}.cls-9{fill:#0a72b9;}.cls-10{fill:#262f47;}.cls-11,.cls-12{fill:#313f5e;}.cls-12{opacity:0.5;}.cls-13{fill:#e5e8f6;}.cls-14,.cls-15{stroke:#33346b;}.cls-14,.cls-15,.cls-19,.cls-21,.cls-22,.cls-24{stroke-linecap:round;stroke-miterlimit:10;}.cls-14,.cls-19,.cls-21{stroke-width:0.74px;}.cls-15,.cls-22{stroke-width:0.5px;}.cls-16{fill:#c5c5e4;}.cls-17{fill:#9491c7;}.cls-18{fill:#e3e9f7;}.cls-19{stroke:#9491c7;}.cls-20{fill:#fffffe;}.cls-21,.cls-22{stroke:#e5e8f6;}.cls-23{clip-path:url(#clip-path);}.cls-24{stroke:#313f5e;stroke-width:5.1px;}.cls-26{clip-path:url(#clip-path-2);}.cls-27{opacity:0.31;}.cls-28{opacity:0.33;}</style><clipPath id="clip-path" transform="translate(-79.52 -93.38)"><path class="cls-1" d="M304.36,249.84,545.83,303v21.83a3.53,3.53,0,0,1-4.26,3.45L303.15,278.18a2.89,2.89,0,0,1-2.3-2.83V252.66A2.89,2.89,0,0,1,304.36,249.84Z"/></clipPath><clipPath id="clip-path-2" transform="translate(-79.52 -93.38)"><path class="cls-1" d="M542.2,277.48,303.15,330.12a2.38,2.38,0,0,0-1.87,2.32v21.34a2.38,2.38,0,0,0,2.87,2.32L543.6,305.77a3.33,3.33,0,0,0,2.65-3.27V280.74A3.33,3.33,0,0,0,542.2,277.48Z"/></clipPath></defs><g class="cls-2"><g id="Capa_1" data-name="Capa 1"><g class="cls-3"><g class="cls-4"><path class="cls-5" d="M331.44,215.49v-6.67a2,2,0,0,0-2-2H327.2a1.2,1.2,0,0,1-1.18-1c0-.19-.08-.37-.13-.56a1.2,1.2,0,0,1,.56-1.34l2.05-1.18a2,2,0,0,0,.72-2.7l-3.34-5.77a2,2,0,0,0-2.69-.72l-1.71,1a1.2,1.2,0,0,1-1.48-.21l-.54-.56a1.19,1.19,0,0,1-.17-1.44l.59-1a2.87,2.87,0,0,0-1.05-3.92L314.61,185a2.87,2.87,0,0,0-3.93,1.05l-.27.48a1.74,1.74,0,0,1-2,.8h0a1.73,1.73,0,0,1-1.28-1.67v-1.95a1.59,1.59,0,0,0-1.58-1.59h-7.45a1.59,1.59,0,0,0-1.58,1.59v2a1.69,1.69,0,0,1-1.25,1.64h0a1.71,1.71,0,0,1-1.92-.79l-1.14-2a1.4,1.4,0,0,0-1.9-.51L283.51,188a1.38,1.38,0,0,0-.51,1.9l1.43,2.48a1.18,1.18,0,0,1-.2,1.43l-.41.43a1.19,1.19,0,0,1-1.47.23l-2.08-1.21a2,2,0,0,0-2.69.73l-3.34,5.78a2,2,0,0,0,.72,2.69l2.31,1.33a1.2,1.2,0,0,1,.55,1.34c0,.13-.07.26-.1.39a1.19,1.19,0,0,1-1.15.93h-2.39a2.37,2.37,0,0,0-2.37,2.37v5.87a2.37,2.37,0,0,0,2.37,2.37h2.65a1.21,1.21,0,0,1,1.15.89,1.94,1.94,0,0,0,0,.2,1.19,1.19,0,0,1-.54,1.38l-2.39,1.38a2.36,2.36,0,0,0-.87,3.24l2.93,5.08a2.37,2.37,0,0,0,3.24.87l2.54-1.46a1.19,1.19,0,0,1,1.45.2l0,.05a1.18,1.18,0,0,1,.21,1.45l-1.3,2.26a2.8,2.8,0,0,0,1,3.83l4.34,2.5a2.8,2.8,0,0,0,3.83-1l1.3-2.25a1.19,1.19,0,0,1,1.36-.54h0a1.21,1.21,0,0,1,.89,1.15V239a2.8,2.8,0,0,0,2.81,2.8h5a2.8,2.8,0,0,0,2.81-2.8v-2.48a1.21,1.21,0,0,1,.94-1.17h0a1.21,1.21,0,0,1,1.35.56l1.3,2.24a2.81,2.81,0,0,0,3.83,1l4.33-2.5a2.82,2.82,0,0,0,1-3.84l-1.1-1.9a1.22,1.22,0,0,1,.24-1.51l.13-.12a1.21,1.21,0,0,1,1.44-.18l2.73,1.57a2,2,0,0,0,2.69-.72l3.34-5.78a2,2,0,0,0-.73-2.69L326,220.13a1.22,1.22,0,0,1-.54-1.43c0-.12.08-.24.11-.36a1.22,1.22,0,0,1,1.16-.88h2.75A2,2,0,0,0,331.44,215.49Zm-10.58-6.23a19.13,19.13,0,1,1-17.08-17.08A19.14,19.14,0,0,1,320.86,209.26Z" transform="translate(-79.52 -93.38)"/></g><path class="cls-6" d="M330,212.62V206a2,2,0,0,0-2-2h-2.27a1.21,1.21,0,0,1-1.18-1c0-.18-.09-.37-.13-.55a1.2,1.2,0,0,1,.56-1.34l2.05-1.19a2,2,0,0,0,.72-2.69l-3.34-5.78a2,2,0,0,0-2.69-.72l-1.72,1a1.18,1.18,0,0,1-1.47-.21L318,191a1.19,1.19,0,0,1-.17-1.44l.58-1a2.86,2.86,0,0,0-1.05-3.92l-4.22-2.44a2.88,2.88,0,0,0-3.92,1.05l-.28.49a1.72,1.72,0,0,1-2,.8h0a1.73,1.73,0,0,1-1.27-1.67v-2a1.58,1.58,0,0,0-1.58-1.58h-7.45a1.58,1.58,0,0,0-1.58,1.58v2a1.71,1.71,0,0,1-1.25,1.64h0a1.69,1.69,0,0,1-1.92-.79l-1.14-2a1.39,1.39,0,0,0-1.9-.51l-6.79,3.92a1.38,1.38,0,0,0-.5,1.89l1.43,2.48a1.2,1.2,0,0,1-.2,1.44c-.14.14-.28.28-.41.43a1.22,1.22,0,0,1-1.47.23l-2.08-1.21a2,2,0,0,0-2.7.72l-3.33,5.78a2,2,0,0,0,.72,2.69l2.31,1.34a1.2,1.2,0,0,1,.55,1.33c0,.13-.07.26-.1.39a1.2,1.2,0,0,1-1.16.94h-2.38a2.38,2.38,0,0,0-2.38,2.37v5.87a2.38,2.38,0,0,0,2.38,2.37h2.65a1.19,1.19,0,0,1,1.14.89l.06.2a1.18,1.18,0,0,1-.54,1.37L273.67,218a2.36,2.36,0,0,0-.87,3.24l2.93,5.08a2.38,2.38,0,0,0,3.24.87l2.54-1.47A1.2,1.2,0,0,1,283,226l0,0a1.19,1.19,0,0,1,.21,1.45l-1.3,2.27a2.8,2.8,0,0,0,1,3.83l4.33,2.5a2.8,2.8,0,0,0,3.84-1l1.29-2.24a1.21,1.21,0,0,1,1.37-.55h0a1.2,1.2,0,0,1,.89,1.15v2.71a2.8,2.8,0,0,0,2.81,2.8h5a2.8,2.8,0,0,0,2.8-2.8v-2.48a1.24,1.24,0,0,1,1-1.18h0a1.2,1.2,0,0,1,1.35.57l1.3,2.24a2.8,2.8,0,0,0,3.83,1l4.33-2.5a2.81,2.81,0,0,0,1-3.83L317,228a1.21,1.21,0,0,1,.24-1.5l.13-.12a1.21,1.21,0,0,1,1.44-.18l2.73,1.57a2,2,0,0,0,2.69-.72l3.33-5.78a2,2,0,0,0-.72-2.69l-2.29-1.33a1.21,1.21,0,0,1-.54-1.43c0-.12.08-.24.11-.36a1.22,1.22,0,0,1,1.16-.87H328A2,2,0,0,0,330,212.62Zm-10.58-6.22a19.13,19.13,0,1,1-17.08-17.08A19.14,19.14,0,0,1,319.43,206.4Z" transform="translate(-79.52 -93.38)"/></g><g class="cls-4"><path class="cls-5" d="M564.76,203.56v-6.05a1.79,1.79,0,0,0-1.79-1.79h-2.05a1.1,1.1,0,0,1-1.07-.87l-.12-.51a1.1,1.1,0,0,1,.51-1.22l1.85-1.07a1.79,1.79,0,0,0,.66-2.44l-3-5.24a1.79,1.79,0,0,0-2.44-.66l-1.56.9a1.09,1.09,0,0,1-1.34-.19l-.48-.51a1.09,1.09,0,0,1-.16-1.31l.53-.92a2.6,2.6,0,0,0-.95-3.56l-3.83-2.21a2.61,2.61,0,0,0-3.56,1l-.25.44a1.57,1.57,0,0,1-1.78.73h0a1.57,1.57,0,0,1-1.16-1.52v-1.77a1.43,1.43,0,0,0-1.43-1.43h-6.76a1.44,1.44,0,0,0-1.44,1.43v1.79A1.53,1.53,0,0,1,532,178h0a1.55,1.55,0,0,1-1.75-.72l-1-1.79a1.25,1.25,0,0,0-1.72-.46l-6.15,3.55a1.25,1.25,0,0,0-.46,1.72l1.3,2.25a1.09,1.09,0,0,1-.18,1.3l-.38.39a1.08,1.08,0,0,1-1.33.21l-1.89-1.09a1.78,1.78,0,0,0-2.44.65l-3,5.25a1.79,1.79,0,0,0,.65,2.44l2.1,1.21a1.08,1.08,0,0,1,.5,1.21l-.09.35a1.09,1.09,0,0,1-1,.85h-2.16a2.16,2.16,0,0,0-2.16,2.15v5.32a2.16,2.16,0,0,0,2.16,2.16h2.4a1.08,1.08,0,0,1,1,.8c0,.06,0,.12,0,.18a1.08,1.08,0,0,1-.49,1.25l-2.17,1.26a2.16,2.16,0,0,0-.79,2.94l2.66,4.61a2.16,2.16,0,0,0,2.94.79l2.31-1.33a1.08,1.08,0,0,1,1.31.18l0,0a1.09,1.09,0,0,1,.19,1.32l-1.19,2.05a2.55,2.55,0,0,0,.94,3.48l3.93,2.27a2.54,2.54,0,0,0,3.47-.93l1.18-2a1.08,1.08,0,0,1,1.24-.49h0a1.09,1.09,0,0,1,.82,1v2.46a2.55,2.55,0,0,0,2.54,2.55h4.54a2.55,2.55,0,0,0,2.54-2.55v-2.24a1.1,1.1,0,0,1,.86-1.07h0a1.08,1.08,0,0,1,1.22.51l1.18,2a2.54,2.54,0,0,0,3.48.93l3.93-2.27a2.55,2.55,0,0,0,.93-3.47l-1-1.73a1.11,1.11,0,0,1,.22-1.37l.12-.11a1.1,1.1,0,0,1,1.31-.16l2.47,1.42a1.78,1.78,0,0,0,2.44-.65l3-5.24a1.8,1.8,0,0,0-.66-2.45l-2.08-1.2a1.1,1.1,0,0,1-.49-1.29c0-.11.07-.22.1-.33a1.1,1.1,0,0,1,1.05-.8H563A1.79,1.79,0,0,0,564.76,203.56Zm-9.6-5.64a17.36,17.36,0,1,1-15.49-15.5A17.35,17.35,0,0,1,555.16,197.92Z" transform="translate(-79.52 -93.38)"/></g><path class="cls-7" d="M563.46,201v-6.05a1.79,1.79,0,0,0-1.78-1.79h-2.06a1.1,1.1,0,0,1-1.07-.88l-.12-.5a1.08,1.08,0,0,1,.51-1.22l1.86-1.07a1.8,1.8,0,0,0,.65-2.45l-3-5.24a1.78,1.78,0,0,0-2.44-.65l-1.55.89a1.08,1.08,0,0,1-1.34-.19l-.49-.51a1.09,1.09,0,0,1-.16-1.3l.53-.93a2.6,2.6,0,0,0-1-3.56l-3.83-2.21a2.6,2.6,0,0,0-3.55,1l-.26.43a1.56,1.56,0,0,1-1.77.73h0a1.57,1.57,0,0,1-1.16-1.51v-1.78A1.43,1.43,0,0,0,540,170.7h-6.76a1.44,1.44,0,0,0-1.44,1.43v1.8a1.53,1.53,0,0,1-1.13,1.48h0a1.54,1.54,0,0,1-1.75-.72l-1-1.79a1.26,1.26,0,0,0-1.72-.46L520,176a1.26,1.26,0,0,0-.46,1.72l1.3,2.25a1.11,1.11,0,0,1-.18,1.31,4.68,4.68,0,0,0-.38.39,1.08,1.08,0,0,1-1.33.2L517,180.78a1.79,1.79,0,0,0-2.44.65l-3,5.25a1.79,1.79,0,0,0,.66,2.44l2.09,1.21a1.08,1.08,0,0,1,.5,1.21l-.09.36a1.08,1.08,0,0,1-1.05.84h-2.16a2.16,2.16,0,0,0-2.16,2.16v5.32a2.16,2.16,0,0,0,2.16,2.15h2.4a1.08,1.08,0,0,1,1,.8,1.21,1.21,0,0,1,0,.18,1.08,1.08,0,0,1-.49,1.25l-2.17,1.26a2.16,2.16,0,0,0-.79,2.94l2.66,4.61a2.17,2.17,0,0,0,2.95.79l2.3-1.33a1.08,1.08,0,0,1,1.31.18l0,0a1.08,1.08,0,0,1,.19,1.31l-1.18,2.06a2.53,2.53,0,0,0,.93,3.47l3.93,2.27a2.53,2.53,0,0,0,3.47-.93l1.18-2a1.09,1.09,0,0,1,1.24-.49h0a1.09,1.09,0,0,1,.81,1.05v2.45A2.55,2.55,0,0,0,534,224.8h4.54a2.55,2.55,0,0,0,2.55-2.55V220a1.1,1.1,0,0,1,.85-1.07h0a1.1,1.1,0,0,1,1.23.51l1.17,2a2.55,2.55,0,0,0,3.48.94l3.93-2.27a2.56,2.56,0,0,0,.93-3.48l-1-1.73a1.11,1.11,0,0,1,.22-1.37l.12-.11a1.1,1.1,0,0,1,1.31-.16l2.47,1.43a1.79,1.79,0,0,0,2.44-.66l3-5.24a1.79,1.79,0,0,0-.66-2.44l-2.08-1.2a1.12,1.12,0,0,1-.49-1.3c0-.11.07-.22.1-.33a1.1,1.1,0,0,1,1-.79h2.5A1.79,1.79,0,0,0,563.46,201Zm-9.59-5.65a17.36,17.36,0,1,1-15.5-15.49A17.37,17.37,0,0,1,553.87,195.32Z" transform="translate(-79.52 -93.38)"/><g class="cls-8"><g class="cls-4"><path class="cls-5" d="M578.69,361v-6.05a1.79,1.79,0,0,0-1.78-1.79h-2.06a1.1,1.1,0,0,1-1.07-.88l-.12-.5a1.09,1.09,0,0,1,.51-1.22l1.86-1.07a1.79,1.79,0,0,0,.65-2.44l-3-5.25a1.79,1.79,0,0,0-2.44-.65l-1.55.9a1.08,1.08,0,0,1-1.34-.2l-.49-.51a1.09,1.09,0,0,1-.16-1.3l.53-.92a2.6,2.6,0,0,0-1-3.56l-3.83-2.21a2.6,2.6,0,0,0-3.55.95l-.26.44a1.56,1.56,0,0,1-1.77.73h0a1.58,1.58,0,0,1-1.16-1.52v-1.77a1.44,1.44,0,0,0-1.43-1.44h-6.76a1.45,1.45,0,0,0-1.44,1.44v1.79a1.54,1.54,0,0,1-1.13,1.49h0a1.54,1.54,0,0,1-1.75-.71l-1-1.8a1.26,1.26,0,0,0-1.72-.46L535.21,336a1.26,1.26,0,0,0-.46,1.72l1.3,2.25a1.09,1.09,0,0,1-.18,1.3l-.38.39a1.08,1.08,0,0,1-1.33.21l-1.89-1.1a1.79,1.79,0,0,0-2.44.66l-3,5.24a1.78,1.78,0,0,0,.66,2.44l2.09,1.21a1.1,1.1,0,0,1,.5,1.22l-.09.35a1.08,1.08,0,0,1-1.05.84h-2.16a2.16,2.16,0,0,0-2.16,2.16v5.32a2.16,2.16,0,0,0,2.16,2.15h2.4a1.09,1.09,0,0,1,1,.81,1.21,1.21,0,0,1,0,.18,1.08,1.08,0,0,1-.49,1.25l-2.17,1.25a2.17,2.17,0,0,0-.79,2.95l2.66,4.6a2.16,2.16,0,0,0,2.95.79l2.3-1.33a1.09,1.09,0,0,1,1.31.19l0,0a1.09,1.09,0,0,1,.19,1.32l-1.18,2.05A2.54,2.54,0,0,0,536,380l3.93,2.27a2.54,2.54,0,0,0,3.47-.94l1.18-2a1.1,1.1,0,0,1,1.24-.5h0a1.09,1.09,0,0,1,.81,1v2.46a2.54,2.54,0,0,0,2.54,2.54h4.54a2.55,2.55,0,0,0,2.55-2.54V380a1.11,1.11,0,0,1,.85-1.07h0a1.12,1.12,0,0,1,1.23.52l1.17,2a2.55,2.55,0,0,0,3.48.93l3.93-2.27a2.56,2.56,0,0,0,.93-3.48l-1-1.73a1.1,1.1,0,0,1,.22-1.36l.12-.11a1.1,1.1,0,0,1,1.31-.17l2.47,1.43a1.79,1.79,0,0,0,2.44-.65l3-5.25a1.79,1.79,0,0,0-.66-2.44l-2.08-1.2a1.12,1.12,0,0,1-.49-1.3,3,3,0,0,0,.1-.32,1.1,1.1,0,0,1,1-.8h2.5A1.79,1.79,0,0,0,578.69,361Zm-9.59-5.64a17.36,17.36,0,1,1-15.5-15.5A17.37,17.37,0,0,1,569.1,355.34Z" transform="translate(-79.52 -93.38)"/></g><path class="cls-9" d="M577.4,358.38v-6.05a1.79,1.79,0,0,0-1.79-1.79h-2.06a1.1,1.1,0,0,1-1.07-.87l-.12-.51a1.12,1.12,0,0,1,.51-1.22l1.86-1.07a1.78,1.78,0,0,0,.65-2.44l-3-5.24a1.8,1.8,0,0,0-2.45-.66l-1.55.9a1.09,1.09,0,0,1-1.34-.19l-.49-.51a1.1,1.1,0,0,1-.16-1.31l.54-.92a2.6,2.6,0,0,0-1-3.56l-3.83-2.21a2.6,2.6,0,0,0-3.55.95l-.26.44a1.56,1.56,0,0,1-1.77.73h0a1.58,1.58,0,0,1-1.16-1.52v-1.77a1.43,1.43,0,0,0-1.43-1.43h-6.76a1.44,1.44,0,0,0-1.44,1.43v1.79a1.53,1.53,0,0,1-1.13,1.49h0a1.56,1.56,0,0,1-1.75-.72l-1-1.79a1.25,1.25,0,0,0-1.72-.46l-6.16,3.55a1.26,1.26,0,0,0-.46,1.72l1.3,2.25a1.09,1.09,0,0,1-.18,1.3l-.38.39a1.08,1.08,0,0,1-1.33.21L531,338.2a1.78,1.78,0,0,0-2.44.65l-3,5.24a1.8,1.8,0,0,0,.66,2.45l2.09,1.21a1.07,1.07,0,0,1,.5,1.21l-.09.35a1.08,1.08,0,0,1-1,.85h-2.16a2.15,2.15,0,0,0-2.15,2.15v5.32a2.16,2.16,0,0,0,2.15,2.16h2.4a1.08,1.08,0,0,1,1,.8,1.21,1.21,0,0,1,.05.18,1.09,1.09,0,0,1-.48,1.25l-2.18,1.26a2.16,2.16,0,0,0-.79,2.94l2.66,4.61a2.17,2.17,0,0,0,3,.79l2.3-1.33a1.08,1.08,0,0,1,1.31.18l0,0a1.08,1.08,0,0,1,.19,1.32l-1.18,2.05a2.54,2.54,0,0,0,.93,3.48l3.93,2.27a2.56,2.56,0,0,0,3.48-.93l1.17-2a1.08,1.08,0,0,1,1.24-.49h0a1.09,1.09,0,0,1,.81,1v2.46a2.55,2.55,0,0,0,2.54,2.55h4.54a2.55,2.55,0,0,0,2.55-2.55v-2.24a1.1,1.1,0,0,1,.85-1.07h0a1.1,1.1,0,0,1,1.23.51l1.17,2a2.54,2.54,0,0,0,3.48.93l3.93-2.27a2.54,2.54,0,0,0,.93-3.47l-1-1.73a1.11,1.11,0,0,1,.22-1.37l.12-.11a1.1,1.1,0,0,1,1.31-.16l2.47,1.42a1.78,1.78,0,0,0,2.44-.65l3-5.24a1.8,1.8,0,0,0-.66-2.45l-2.08-1.2a1.11,1.11,0,0,1-.49-1.29c0-.11.07-.22.11-.33a1.1,1.1,0,0,1,1-.8h2.49A1.79,1.79,0,0,0,577.4,358.38Zm-9.6-5.64a17.36,17.36,0,1,1-15.5-15.5A17.36,17.36,0,0,1,567.8,352.74Z" transform="translate(-79.52 -93.38)"/></g><g class="cls-8"><g class="cls-4"><path class="cls-5" d="M495.77,171.56l-1.09-3.5a1.09,1.09,0,0,0-1.36-.72l-1.19.38a.66.66,0,0,1-.78-.32l-.16-.27a.65.65,0,0,1,.07-.79l.88-1a1.08,1.08,0,0,0-.06-1.53l-2.71-2.49a1.09,1.09,0,0,0-1.53.07l-.74.8a.65.65,0,0,1-.81.13c-.12-.07-.24-.14-.37-.2a.67.67,0,0,1-.33-.73l.14-.63a1.58,1.58,0,0,0-1.19-1.89l-2.62-.58a1.59,1.59,0,0,0-1.89,1.2l-.06.3a1,1,0,0,1-.9.74h0a1,1,0,0,1-.94-.67l-.32-1a.87.87,0,0,0-1.09-.57l-3.91,1.22a.87.87,0,0,0-.57,1.09l.32,1a.94.94,0,0,1-.38,1.07h0a.93.93,0,0,1-1.13-.09l-.93-.85a.76.76,0,0,0-1.08,0L466.08,165a.77.77,0,0,0,.05,1.08l1.16,1.06a.65.65,0,0,1,.13.79c-.05.1-.1.19-.14.29a.66.66,0,0,1-.74.36l-1.29-.29a1.08,1.08,0,0,0-1.29.83l-.8,3.58A1.08,1.08,0,0,0,464,174l1.43.32a.67.67,0,0,1,.51.61c0,.08,0,.15,0,.22a.65.65,0,0,1-.45.68l-1.25.4a1.3,1.3,0,0,0-.86,1.63l1,3.08a1.31,1.31,0,0,0,1.64.86l1.39-.44a.65.65,0,0,1,.74.28l.07.09a.66.66,0,0,1-.06.81l-1,1.12a1.31,1.31,0,0,0,.08,1.85l2.37,2.18a1.31,1.31,0,0,0,1.85-.07l1.09-1.19a.65.65,0,0,1,.79-.13h0a.66.66,0,0,1,.35.73l-.31,1.4a1.55,1.55,0,0,0,1.17,1.85l2.69.6a1.55,1.55,0,0,0,1.84-1.17l.31-1.4a.66.66,0,0,1,.63-.51h0a.67.67,0,0,1,.66.46l.44,1.42a1.55,1.55,0,0,0,1.94,1l2.62-.82a1.55,1.55,0,0,0,1-1.94l-.41-1.3a.67.67,0,0,1,.31-.77h0a.68.68,0,0,1,.81.07l1.05,1a1.54,1.54,0,0,0,2.18-.09l1.86-2a1.56,1.56,0,0,0-.09-2.19l-.9-.82a.68.68,0,0,1-.12-.83l.05-.08a.66.66,0,0,1,.73-.33l1.69.37a1.08,1.08,0,0,0,1.29-.82l.8-3.58a1.08,1.08,0,0,0-.82-1.29l-1.42-.32a.67.67,0,0,1-.52-.66V174a.67.67,0,0,1,.46-.65l1.44-.45A1.08,1.08,0,0,0,495.77,171.56ZM489.2,170a10.53,10.53,0,1,1-11.78-6.15A10.53,10.53,0,0,1,489.2,170Z" transform="translate(-79.52 -93.38)"/></g><path class="cls-9" d="M494.48,169l-1.1-3.5a1.09,1.09,0,0,0-1.36-.71l-1.19.37a.67.67,0,0,1-.78-.31l-.16-.27a.68.68,0,0,1,.07-.8l.88-1a1.08,1.08,0,0,0-.06-1.53l-2.7-2.48a1.09,1.09,0,0,0-1.54.06l-.73.8a.66.66,0,0,1-.81.14l-.38-.21a.67.67,0,0,1-.33-.73l.14-.63a1.57,1.57,0,0,0-1.19-1.88l-2.62-.59a1.58,1.58,0,0,0-1.88,1.2l-.07.3a1,1,0,0,1-.9.74h0a1,1,0,0,1-.95-.67l-.32-1a.86.86,0,0,0-1.09-.57l-3.91,1.22a.88.88,0,0,0-.57,1.1l.32,1a.93.93,0,0,1-.38,1.07h0a.93.93,0,0,1-1.14-.1l-.93-.85a.76.76,0,0,0-1.08,0l-2.91,3.18a.76.76,0,0,0,0,1.08l1.16,1.06a.66.66,0,0,1,.13.79l-.14.29a.65.65,0,0,1-.73.36l-1.3-.28a1.08,1.08,0,0,0-1.29.82l-.8,3.58a1.08,1.08,0,0,0,.82,1.29l1.43.32a.67.67,0,0,1,.51.62c0,.07,0,.14,0,.22a.66.66,0,0,1-.45.68l-1.25.39a1.31,1.31,0,0,0-.86,1.64l1,3.07a1.31,1.31,0,0,0,1.64.86l1.39-.44a.65.65,0,0,1,.74.28l.07.09a.66.66,0,0,1-.06.82l-1,1.12a1.3,1.3,0,0,0,.08,1.84l2.38,2.19a1.31,1.31,0,0,0,1.84-.08l1.09-1.19a.65.65,0,0,1,.79-.13l0,0a.65.65,0,0,1,.34.72l-.31,1.41a1.55,1.55,0,0,0,1.17,1.84l2.69.6a1.55,1.55,0,0,0,1.84-1.17l.31-1.39a.66.66,0,0,1,.63-.51h0a.65.65,0,0,1,.66.45l.44,1.42a1.54,1.54,0,0,0,1.94,1l2.62-.82a1.54,1.54,0,0,0,1-1.94l-.4-1.29a.66.66,0,0,1,.3-.78h0a.68.68,0,0,1,.8.07l1.05,1a1.55,1.55,0,0,0,2.18-.1l1.86-2a1.54,1.54,0,0,0-.09-2.18l-.89-.82a.66.66,0,0,1-.12-.83l0-.09a.68.68,0,0,1,.73-.33l1.69.38a1.1,1.1,0,0,0,1.3-.83l.79-3.58a1.08,1.08,0,0,0-.82-1.29l-1.42-.32a.67.67,0,0,1-.52-.66v-.21a.68.68,0,0,1,.46-.65l1.45-.45A1.09,1.09,0,0,0,494.48,169Zm-6.58-1.52a10.52,10.52,0,1,1-11.78-6.16A10.52,10.52,0,0,1,487.9,167.44Z" transform="translate(-79.52 -93.38)"/></g><g class="cls-3"><g class="cls-4"><path class="cls-5" d="M528,153.24l-.6-1.91a.6.6,0,0,0-.74-.39l-.65.21a.36.36,0,0,1-.42-.17l-.09-.15a.36.36,0,0,1,0-.43l.48-.53a.59.59,0,0,0,0-.83l-1.48-1.35a.59.59,0,0,0-.83,0l-.4.44a.37.37,0,0,1-.44.07l-.21-.11a.38.38,0,0,1-.18-.4l.08-.34a.86.86,0,0,0-.65-1l-1.43-.32a.87.87,0,0,0-1,.65l0,.17a.51.51,0,0,1-.49.4h0a.52.52,0,0,1-.51-.36l-.18-.56a.47.47,0,0,0-.59-.31l-2.13.67a.47.47,0,0,0-.31.59l.17.57a.5.5,0,0,1-.21.58h0a.5.5,0,0,1-.62-.05l-.51-.46a.41.41,0,0,0-.59,0l-1.59,1.73a.42.42,0,0,0,0,.59l.63.58a.35.35,0,0,1,.07.43s0,.1-.08.16a.34.34,0,0,1-.4.19l-.7-.15a.59.59,0,0,0-.7.44l-.44,2a.59.59,0,0,0,.45.7l.78.18a.34.34,0,0,1,.27.33.49.49,0,0,1,0,.12.36.36,0,0,1-.25.37l-.68.21a.72.72,0,0,0-.46.9l.52,1.67a.71.71,0,0,0,.89.47l.76-.24a.37.37,0,0,1,.41.15l0,.05a.35.35,0,0,1,0,.45l-.56.61a.72.72,0,0,0,0,1l1.3,1.19a.7.7,0,0,0,1,0l.6-.65a.36.36,0,0,1,.43-.07h0a.38.38,0,0,1,.19.4l-.17.76a.84.84,0,0,0,.64,1l1.46.33a.84.84,0,0,0,1-.64l.17-.75a.35.35,0,0,1,.34-.28h0a.35.35,0,0,1,.36.25l.24.77a.84.84,0,0,0,1,.55l1.44-.45a.85.85,0,0,0,.55-1.05l-.23-.71a.36.36,0,0,1,.17-.42h0a.38.38,0,0,1,.44,0l.57.53a.85.85,0,0,0,1.19,0l1-1.11a.85.85,0,0,0,0-1.19l-.49-.44a.38.38,0,0,1-.06-.46l0,0a.36.36,0,0,1,.4-.18l.92.2a.6.6,0,0,0,.71-.45l.43-1.95a.59.59,0,0,0-.45-.7l-.77-.18a.35.35,0,0,1-.28-.36v-.11a.34.34,0,0,1,.25-.35l.78-.25A.58.58,0,0,0,528,153.24Zm-3.58-.83a5.74,5.74,0,1,1-6.42-3.35A5.74,5.74,0,0,1,524.38,152.41Z" transform="translate(-79.52 -93.38)"/></g><path class="cls-6" d="M527.25,151.82l-.6-1.9a.58.58,0,0,0-.74-.39l-.64.2a.37.37,0,0,1-.43-.17l-.09-.14a.38.38,0,0,1,0-.44l.48-.52a.6.6,0,0,0,0-.84l-1.47-1.35a.6.6,0,0,0-.84,0l-.4.43a.35.35,0,0,1-.44.08l-.21-.12a.34.34,0,0,1-.17-.39l.07-.35a.85.85,0,0,0-.65-1l-1.43-.32a.85.85,0,0,0-1,.65l0,.16a.52.52,0,0,1-.49.41h0a.51.51,0,0,1-.51-.37l-.18-.55a.48.48,0,0,0-.59-.32l-2.13.67a.48.48,0,0,0-.31.6l.18.56a.52.52,0,0,1-.21.58h0a.51.51,0,0,1-.62-.06l-.51-.46a.41.41,0,0,0-.58,0l-1.59,1.73a.4.4,0,0,0,0,.58l.63.58a.37.37,0,0,1,.08.43c0,.06-.06.11-.08.16a.36.36,0,0,1-.4.2l-.71-.16a.59.59,0,0,0-.7.45l-.44,1.95a.6.6,0,0,0,.45.71l.78.17a.36.36,0,0,1,.28.33v.12a.34.34,0,0,1-.24.37l-.68.22a.71.71,0,0,0-.47.89l.53,1.68a.7.7,0,0,0,.89.46l.75-.23a.35.35,0,0,1,.41.15l0,.05a.36.36,0,0,1,0,.44l-.57.61a.72.72,0,0,0,.05,1l1.29,1.19a.72.72,0,0,0,1-.05l.59-.64a.35.35,0,0,1,.43-.07h0a.36.36,0,0,1,.19.4L515,161a.84.84,0,0,0,.64,1l1.46.33a.84.84,0,0,0,1-.64l.17-.76a.37.37,0,0,1,.35-.28h0a.38.38,0,0,1,.36.25l.24.77a.85.85,0,0,0,1.06.56l1.43-.45a.85.85,0,0,0,.55-1.06l-.22-.71a.37.37,0,0,1,.16-.42h0a.36.36,0,0,1,.44,0l.57.52a.84.84,0,0,0,1.19-.05l1-1.1a.84.84,0,0,0-.05-1.19l-.48-.45a.35.35,0,0,1-.07-.45l0-.05a.37.37,0,0,1,.39-.18l.92.21a.6.6,0,0,0,.71-.45l.43-1.95a.59.59,0,0,0-.44-.71l-.78-.17a.36.36,0,0,1-.28-.36v-.11a.37.37,0,0,1,.25-.36l.79-.24A.59.59,0,0,0,527.25,151.82Zm-3.58-.83a5.74,5.74,0,1,1-6.42-3.35A5.74,5.74,0,0,1,523.67,151Z" transform="translate(-79.52 -93.38)"/></g><rect class="cls-10" x="325.89" y="256.15" width="36.98" height="36.98"/><path class="cls-11" d="M462.53,392H385a6.18,6.18,0,0,1,6.18-6.17h65.18a6.17,6.17,0,0,1,6.17,6.17Z" transform="translate(-79.52 -93.38)"/><rect class="cls-12" x="325.89" y="269.58" width="36.98" height="7.79"/><rect class="cls-11" x="223.5" y="103.41" width="239.87" height="167.86" rx="7.76"/><polygon class="cls-13" points="457.34 245.88 229.58 245.88 229.58 111.84 457.34 111.83 457.34 245.88"/><g class="cls-4"><rect class="cls-5" x="248.57" y="123.36" width="191.36" height="114.66" rx="4.75"/><path class="cls-5" d="M513.87,216.29H333.66a5.57,5.57,0,0,0-5.57,5.57V228H519.45v-6.09A5.57,5.57,0,0,0,513.87,216.29Z" transform="translate(-79.52 -93.38)"/><path class="cls-5" d="M341.12,222.12a2.49,2.49,0,1,1-2.48-2.49A2.48,2.48,0,0,1,341.12,222.12Z" transform="translate(-79.52 -93.38)"/><path class="cls-5" d="M349,222.12a2.49,2.49,0,1,1-2.48-2.49A2.48,2.48,0,0,1,349,222.12Z" transform="translate(-79.52 -93.38)"/><path class="cls-5" d="M356.82,222.12a2.49,2.49,0,1,1-2.48-2.49A2.48,2.48,0,0,1,356.82,222.12Z" transform="translate(-79.52 -93.38)"/><rect class="cls-5" x="357.87" y="143.16" width="71.69" height="88.14"/><path class="cls-5" d="M502.4,247.45H443.27a1.85,1.85,0,0,1-1.84-1.84h0a1.84,1.84,0,0,1,1.84-1.84H502.4a1.84,1.84,0,0,1,1.84,1.84h0A1.85,1.85,0,0,1,502.4,247.45Z" transform="translate(-79.52 -93.38)"/><path class="cls-5" d="M426,248.14H378.4a2.19,2.19,0,0,1-2.19-2.19h0a2.19,2.19,0,0,1,2.19-2.18H426a2.19,2.19,0,0,1,2.18,2.18h0A2.19,2.19,0,0,1,426,248.14Z" transform="translate(-79.52 -93.38)"/><path class="cls-5" d="M396.05,257.14H378.4a2.19,2.19,0,0,1-2.19-2.19h0a2.19,2.19,0,0,1,2.19-2.18h17.65a2.19,2.19,0,0,1,2.18,2.18h0A2.19,2.19,0,0,1,396.05,257.14Z" transform="translate(-79.52 -93.38)"/><path class="cls-5" d="M457.63,255H443.27a1.84,1.84,0,0,1-1.84-1.84h0a1.85,1.85,0,0,1,1.84-1.84h14.36a1.84,1.84,0,0,1,1.84,1.84h0A1.84,1.84,0,0,1,457.63,255Z" transform="translate(-79.52 -93.38)"/><path class="cls-5" d="M502.4,255H465.66a1.84,1.84,0,0,1-1.84-1.84h0a1.84,1.84,0,0,1,1.84-1.84H502.4a1.85,1.85,0,0,1,1.84,1.84h0A1.84,1.84,0,0,1,502.4,255Z" transform="translate(-79.52 -93.38)"/><line class="cls-14" x1="362.94" y1="207.37" x2="424.72" y2="207.37"/><line class="cls-14" x1="362.94" y1="213.37" x2="424.72" y2="213.37"/><line class="cls-14" x1="362.94" y1="219.38" x2="424.72" y2="219.38"/><line class="cls-14" x1="362.94" y1="225.38" x2="424.72" y2="225.38"/><circle class="cls-5" cx="273.81" cy="166.73" r="16.53"/><circle class="cls-5" cx="273.81" cy="160.33" r="4.67"/><path class="cls-5" d="M343.3,269.09a10,10,0,0,1,20.05,0" transform="translate(-79.52 -93.38)"/><line class="cls-14" x1="256.64" y1="189.32" x2="313.59" y2="189.32"/><line class="cls-14" x1="256.64" y1="194.85" x2="313.59" y2="194.85"/><line class="cls-14" x1="256.64" y1="200.39" x2="313.59" y2="200.39"/><line class="cls-14" x1="256.64" y1="205.92" x2="313.59" y2="205.92"/><line class="cls-14" x1="256.64" y1="211.46" x2="313.59" y2="211.46"/><line class="cls-14" x1="256.64" y1="216.99" x2="313.59" y2="216.99"/><line class="cls-14" x1="256.64" y1="222.53" x2="313.59" y2="222.53"/><line class="cls-14" x1="256.64" y1="228.06" x2="313.59" y2="228.06"/><line class="cls-15" x1="321.93" y1="189.32" x2="348.67" y2="189.32"/><line class="cls-15" x1="321.93" y1="194.85" x2="348.67" y2="194.85"/><line class="cls-15" x1="321.93" y1="200.39" x2="348.67" y2="200.39"/><line class="cls-15" x1="321.93" y1="205.92" x2="348.67" y2="205.92"/><line class="cls-15" x1="321.93" y1="211.46" x2="348.67" y2="211.46"/><line class="cls-15" x1="321.93" y1="216.99" x2="348.67" y2="216.99"/><line class="cls-15" x1="321.93" y1="222.53" x2="348.67" y2="222.53"/><line class="cls-15" x1="321.93" y1="228.06" x2="348.67" y2="228.06"/><rect class="cls-5" x="296.7" y="170.56" width="52.95" height="14.26"/><rect class="cls-5" x="365.08" y="170.7" width="25.05" height="30.66"/><rect class="cls-5" x="392.95" y="170.7" width="14.48" height="30.66"/><rect class="cls-5" x="410.24" y="170.7" width="14.48" height="30.66"/></g><rect class="cls-16" x="246.36" y="121.15" width="191.36" height="114.66" rx="4.75"/><path class="cls-17" d="M511.67,214.08H331.45a5.58,5.58,0,0,0-5.57,5.58v6.08H517.24v-6.08A5.58,5.58,0,0,0,511.67,214.08Z" transform="translate(-79.52 -93.38)"/><path class="cls-18" d="M338.91,219.91a2.48,2.48,0,1,1-2.48-2.48A2.48,2.48,0,0,1,338.91,219.91Z" transform="translate(-79.52 -93.38)"/><path class="cls-11" d="M346.76,219.91a2.48,2.48,0,1,1-2.48-2.48A2.48,2.48,0,0,1,346.76,219.91Z" transform="translate(-79.52 -93.38)"/><path class="cls-7" d="M354.61,219.91a2.48,2.48,0,1,1-2.48-2.48A2.48,2.48,0,0,1,354.61,219.91Z" transform="translate(-79.52 -93.38)"/><rect class="cls-13" x="355.66" y="140.96" width="71.69" height="88.14"/><path class="cls-17" d="M500.19,245.24H441.06a1.85,1.85,0,0,1-1.84-1.84h0a1.84,1.84,0,0,1,1.84-1.84h59.13A1.84,1.84,0,0,1,502,243.4h0A1.84,1.84,0,0,1,500.19,245.24Z" transform="translate(-79.52 -93.38)"/><path class="cls-17" d="M423.79,245.93h-47.6a2.19,2.19,0,0,1-2.19-2.18h0a2.19,2.19,0,0,1,2.19-2.19h47.6a2.19,2.19,0,0,1,2.19,2.19h0A2.19,2.19,0,0,1,423.79,245.93Z" transform="translate(-79.52 -93.38)"/><path class="cls-17" d="M393.84,254.93H376.19a2.19,2.19,0,0,1-2.19-2.18h0a2.19,2.19,0,0,1,2.19-2.19h17.65a2.18,2.18,0,0,1,2.18,2.19h0A2.18,2.18,0,0,1,393.84,254.93Z" transform="translate(-79.52 -93.38)"/><path class="cls-17" d="M455.42,252.75H441.06a1.85,1.85,0,0,1-1.84-1.84h0a1.84,1.84,0,0,1,1.84-1.84h14.36a1.84,1.84,0,0,1,1.84,1.84h0A1.84,1.84,0,0,1,455.42,252.75Z" transform="translate(-79.52 -93.38)"/><path class="cls-16" d="M500.19,252.75H463.45a1.84,1.84,0,0,1-1.84-1.84h0a1.84,1.84,0,0,1,1.84-1.84h36.74a1.84,1.84,0,0,1,1.84,1.84h0A1.84,1.84,0,0,1,500.19,252.75Z" transform="translate(-79.52 -93.38)"/><line class="cls-19" x1="360.73" y1="205.16" x2="422.51" y2="205.16"/><line class="cls-19" x1="360.73" y1="211.16" x2="422.51" y2="211.16"/><line class="cls-19" x1="360.73" y1="217.17" x2="422.51" y2="217.17"/><line class="cls-19" x1="360.73" y1="223.17" x2="422.51" y2="223.17"/><circle class="cls-20" cx="271.6" cy="164.52" r="16.53"/><circle class="cls-17" cx="271.6" cy="158.12" r="4.67"/><path class="cls-17" d="M341.09,266.89a10,10,0,1,1,20.06,0" transform="translate(-79.52 -93.38)"/><line class="cls-21" x1="254.43" y1="187.11" x2="311.38" y2="187.11"/><line class="cls-21" x1="254.43" y1="192.64" x2="311.38" y2="192.64"/><line class="cls-21" x1="254.43" y1="198.18" x2="311.38" y2="198.18"/><line class="cls-21" x1="254.43" y1="203.71" x2="311.38" y2="203.71"/><line class="cls-21" x1="254.43" y1="209.25" x2="311.38" y2="209.25"/><line class="cls-21" x1="254.43" y1="214.78" x2="311.38" y2="214.78"/><line class="cls-21" x1="254.43" y1="220.32" x2="311.38" y2="220.32"/><line class="cls-21" x1="254.43" y1="225.85" x2="311.38" y2="225.85"/><line class="cls-22" x1="319.72" y1="187.11" x2="346.46" y2="187.11"/><line class="cls-22" x1="319.72" y1="192.64" x2="346.46" y2="192.64"/><line class="cls-22" x1="319.72" y1="198.18" x2="346.46" y2="198.18"/><line class="cls-22" x1="319.72" y1="203.71" x2="346.46" y2="203.71"/><line class="cls-22" x1="319.72" y1="209.25" x2="346.46" y2="209.25"/><line class="cls-22" x1="319.72" y1="214.78" x2="346.46" y2="214.78"/><line class="cls-22" x1="319.72" y1="220.32" x2="346.46" y2="220.32"/><line class="cls-22" x1="319.72" y1="225.85" x2="346.46" y2="225.85"/><rect class="cls-13" x="294.49" y="168.35" width="52.95" height="14.26"/><rect class="cls-20" x="362.87" y="168.49" width="25.05" height="30.66"/><rect class="cls-20" x="390.74" y="168.49" width="14.48" height="30.66"/><rect class="cls-20" x="408.04" y="168.49" width="14.48" height="30.66"/><path class="cls-7" d="M304.36,249.84l238.75,52.57a3.47,3.47,0,0,1,2.72,3.39v19.12a3.47,3.47,0,0,1-4.18,3.39l-238.5-50.13a2.89,2.89,0,0,1-2.3-2.83V252.66A2.89,2.89,0,0,1,304.36,249.84Z" transform="translate(-79.52 -93.38)"/><g class="cls-23"><line class="cls-24" x1="220.04" y1="147.44" x2="248.11" y2="200.74"/><line class="cls-24" x1="240.14" y1="151.36" x2="268.22" y2="204.66"/><line class="cls-24" x1="260.25" y1="155.27" x2="288.32" y2="208.57"/><line class="cls-24" x1="280.36" y1="159.19" x2="308.43" y2="212.49"/><line class="cls-24" x1="300.46" y1="163.11" x2="328.54" y2="216.41"/><line class="cls-24" x1="320.57" y1="167.02" x2="348.64" y2="220.32"/><line class="cls-24" x1="340.68" y1="170.94" x2="368.75" y2="224.24"/><line class="cls-24" x1="360.79" y1="174.85" x2="388.86" y2="228.15"/><line class="cls-24" x1="380.89" y1="178.77" x2="408.96" y2="232.07"/><line class="cls-24" x1="401" y1="182.69" x2="429.07" y2="235.99"/><line class="cls-24" x1="421.11" y1="186.6" x2="449.18" y2="239.9"/><line class="cls-24" x1="441.21" y1="190.52" x2="469.29" y2="243.82"/></g><polygon class="cls-25" points="414.75 224.97 466.31 212.42 466.31 209.63 406.52 196.47 330.8 207.32 414.75 224.97"/><path class="cls-7" d="M540.42,277.87,303.15,330.12a2.38,2.38,0,0,0-1.87,2.32v21.34a2.38,2.38,0,0,0,2.87,2.32L542.44,306a4.81,4.81,0,0,0,3.81-4.7V282.55A4.79,4.79,0,0,0,540.42,277.87Z" transform="translate(-79.52 -93.38)"/><g class="cls-26"><line class="cls-24" x1="468.78" y1="175.7" x2="440.71" y2="229"/><line class="cls-24" x1="448.67" y1="179.54" x2="420.6" y2="232.84"/><line class="cls-24" x1="428.56" y1="183.39" x2="400.49" y2="236.69"/><line class="cls-24" x1="408.46" y1="187.24" x2="380.38" y2="240.54"/><line class="cls-24" x1="388.35" y1="191.09" x2="360.28" y2="244.39"/><line class="cls-24" x1="368.24" y1="194.94" x2="340.17" y2="248.24"/><line class="cls-24" x1="348.14" y1="198.79" x2="320.06" y2="252.09"/><line class="cls-24" x1="328.03" y1="202.64" x2="299.96" y2="255.94"/><line class="cls-24" x1="307.92" y1="206.49" x2="279.85" y2="259.79"/><line class="cls-24" x1="287.81" y1="210.34" x2="259.74" y2="263.64"/><line class="cls-24" x1="267.71" y1="214.19" x2="239.64" y2="267.49"/><line class="cls-24" x1="247.6" y1="218.04" x2="219.53" y2="271.34"/></g><path class="cls-6" d="M217.8,426.45v12.82h-3.89v-20h3l10.43,13.14V419.29h3.89v20h-3.16Z" transform="translate(-79.52 -93.38)"/><path class="cls-6" d="M241.67,439.55a8,8,0,0,1-3.24-.62,7.3,7.3,0,0,1-2.44-1.67,7.46,7.46,0,0,1-1.53-2.44,8.14,8.14,0,0,1,0-5.83,7.36,7.36,0,0,1,1.53-2.44,7.18,7.18,0,0,1,2.44-1.68,8.17,8.17,0,0,1,3.24-.62,8.06,8.06,0,0,1,3.23.62,7.1,7.1,0,0,1,2.42,1.68,7.38,7.38,0,0,1,1.54,2.44,8.28,8.28,0,0,1,0,5.83,7.78,7.78,0,0,1-1.52,2.44,7.16,7.16,0,0,1-2.43,1.67A7.94,7.94,0,0,1,241.67,439.55Zm-3.86-7.63a5.13,5.13,0,0,0,.3,1.79,4.54,4.54,0,0,0,.81,1.39,3.65,3.65,0,0,0,5.5,0,4.26,4.26,0,0,0,.82-1.41,5.67,5.67,0,0,0,0-3.58,4.47,4.47,0,0,0-.82-1.41,3.65,3.65,0,0,0-1.23-.91,3.52,3.52,0,0,0-1.52-.33,3.56,3.56,0,0,0-1.52.34,4,4,0,0,0-1.23.93,4.64,4.64,0,0,0-.81,1.41A5.16,5.16,0,0,0,237.81,431.92Z" transform="translate(-79.52 -93.38)"/><path class="cls-6" d="M267.54,439.55a5.87,5.87,0,0,1-3-.77,5.53,5.53,0,0,1-2-2.1v8.59h-3.78V424.5H262V427a6.14,6.14,0,0,1,2.11-2,5.87,5.87,0,0,1,3-.75,6.2,6.2,0,0,1,2.76.61,6.82,6.82,0,0,1,2.19,1.63,7.54,7.54,0,0,1,1.43,2.43,8.24,8.24,0,0,1,.53,2.94,9.32,9.32,0,0,1-.48,3,7.94,7.94,0,0,1-1.34,2.45,6.39,6.39,0,0,1-2,1.63A5.68,5.68,0,0,1,267.54,439.55Zm-1.27-3.21a3.33,3.33,0,0,0,1.57-.37,3.65,3.65,0,0,0,1.22-1,4.37,4.37,0,0,0,.79-1.44,5.09,5.09,0,0,0,.29-1.69,4.88,4.88,0,0,0-.31-1.73,4.51,4.51,0,0,0-.86-1.4,4.18,4.18,0,0,0-1.3-.93,4,4,0,0,0-1.62-.34,3.35,3.35,0,0,0-1.1.19,3.62,3.62,0,0,0-1,.52,4.3,4.3,0,0,0-.86.79,3.17,3.17,0,0,0-.58,1v3.47a5,5,0,0,0,1.55,2.1A3.56,3.56,0,0,0,266.27,436.34Z" transform="translate(-79.52 -93.38)"/><path class="cls-6" d="M281.07,439.55a4.19,4.19,0,0,1-3.47-1.46,6.81,6.81,0,0,1-1.18-4.34V424.5h3.78v8.43c0,2.27.81,3.41,2.45,3.41a3.91,3.91,0,0,0,2.13-.66,4.73,4.73,0,0,0,1.67-2V424.5h3.78v10.43a1.34,1.34,0,0,0,.21.85.92.92,0,0,0,.69.28v3.21a7.41,7.41,0,0,1-.94.14l-.69,0a2.71,2.71,0,0,1-1.65-.46,1.8,1.8,0,0,1-.75-1.29l-.08-1.18a6.31,6.31,0,0,1-2.54,2.28A7.59,7.59,0,0,1,281.07,439.55Z" transform="translate(-79.52 -93.38)"/><path class="cls-6" d="M300.82,439.55a8.27,8.27,0,0,1-3.21-.6,7.55,7.55,0,0,1-2.45-1.65,7.19,7.19,0,0,1-1.56-2.42,7.72,7.72,0,0,1-.55-2.91,8.15,8.15,0,0,1,.53-3,7.24,7.24,0,0,1,4-4.13,8.22,8.22,0,0,1,3.25-.62,8.09,8.09,0,0,1,3.23.62,7.34,7.34,0,0,1,2.42,1.66A7,7,0,0,1,308,429a8,8,0,0,1,.53,2.87c0,.25,0,.48,0,.71a2.75,2.75,0,0,1-.07.56H297.05a4.37,4.37,0,0,0,.42,1.55,4.06,4.06,0,0,0,.87,1.16,3.94,3.94,0,0,0,2.62,1,4.28,4.28,0,0,0,2.13-.55,2.9,2.9,0,0,0,1.37-1.45l3.24.9a6.56,6.56,0,0,1-2.61,2.78A8.09,8.09,0,0,1,300.82,439.55Zm3.84-8.9a3.94,3.94,0,0,0-1.23-2.66,3.93,3.93,0,0,0-4.06-.74,3.78,3.78,0,0,0-1.17.75,3.9,3.9,0,0,0-.83,1.15,4.3,4.3,0,0,0-.38,1.5Z" transform="translate(-79.52 -93.38)"/><path class="cls-6" d="M317,439.55a6.65,6.65,0,0,1-5-2.22,7.56,7.56,0,0,1-1.45-2.44,8.45,8.45,0,0,1-.53-3,8.81,8.81,0,0,1,.5-3,7.83,7.83,0,0,1,1.36-2.42,6.4,6.4,0,0,1,2.09-1.64,6,6,0,0,1,2.65-.59,5.53,5.53,0,0,1,2.94.79,5.7,5.7,0,0,1,2.05,2.06v-8.4h3.77v16.23a1.41,1.41,0,0,0,.2.85.88.88,0,0,0,.68.28v3.21a8.82,8.82,0,0,1-1.61.2,2.59,2.59,0,0,1-1.66-.51,1.85,1.85,0,0,1-.73-1.32l-.09-.93a5.25,5.25,0,0,1-2.21,2.12A6.27,6.27,0,0,1,317,439.55Zm1-3.21a3.66,3.66,0,0,0,1.1-.18,4.05,4.05,0,0,0,1-.52,4.61,4.61,0,0,0,.86-.79,3.3,3.3,0,0,0,.58-1v-3.52a4,4,0,0,0-.64-1.14,4.71,4.71,0,0,0-.93-.91,4.91,4.91,0,0,0-1.1-.6,3.09,3.09,0,0,0-1.14-.23,3.45,3.45,0,0,0-1.56.37,3.72,3.72,0,0,0-1.23,1,4.84,4.84,0,0,0-.79,1.45,5.39,5.39,0,0,0-.28,1.69,4.58,4.58,0,0,0,.31,1.72,4.39,4.39,0,0,0,.85,1.38,3.61,3.61,0,0,0,1.28.93A3.9,3.9,0,0,0,318,436.34Z" transform="translate(-79.52 -93.38)"/><path class="cls-6" d="M335.88,439.55a8.27,8.27,0,0,1-3.21-.6,7.3,7.3,0,0,1-4-4.07,7.92,7.92,0,0,1-.55-2.91,8.15,8.15,0,0,1,.54-3,7.26,7.26,0,0,1,4-4.13,8.31,8.31,0,0,1,3.26-.62,8.09,8.09,0,0,1,3.23.62,7.55,7.55,0,0,1,2.42,1.66,7.13,7.13,0,0,1,1.52,2.43,8,8,0,0,1,.52,2.87c0,.25,0,.48,0,.71a2.75,2.75,0,0,1-.07.56H332.1a4.37,4.37,0,0,0,.43,1.55,3.72,3.72,0,0,0,.87,1.16,4,4,0,0,0,1.21.73,4,4,0,0,0,1.41.25,4.34,4.34,0,0,0,2.13-.55,2.9,2.9,0,0,0,1.37-1.45l3.24.9a6.62,6.62,0,0,1-2.61,2.78A8.11,8.11,0,0,1,335.88,439.55Zm3.83-8.9a3.89,3.89,0,0,0-1.22-2.66,3.81,3.81,0,0,0-6.06,1.16,4.1,4.1,0,0,0-.38,1.5Z" transform="translate(-79.52 -93.38)"/><path class="cls-6" d="M357.86,419.26h3.44l7.61,20h-4l-1.86-5h-7l-1.83,5h-4Zm4.48,12.29-2.76-7.86-2.87,7.86Z" transform="translate(-79.52 -93.38)"/><path class="cls-6" d="M369.42,431.89A8,8,0,0,1,370,429a7.36,7.36,0,0,1,1.55-2.43,7.69,7.69,0,0,1,2.45-1.66,8.17,8.17,0,0,1,3.24-.62,7.79,7.79,0,0,1,4.13,1,6.64,6.64,0,0,1,2.55,2.74l-3.69,1.12a3.31,3.31,0,0,0-1.27-1.25,3.68,3.68,0,0,0-3.27-.11,3.59,3.59,0,0,0-1.22.9,4.26,4.26,0,0,0-.82,1.39,5.25,5.25,0,0,0-.29,1.81,4.93,4.93,0,0,0,.31,1.8,4.28,4.28,0,0,0,.83,1.41,3.55,3.55,0,0,0,1.22.92,3.64,3.64,0,0,0,1.5.32,3.6,3.6,0,0,0,1.87-.51,2.85,2.85,0,0,0,1.2-1.24l3.69,1.13a6.16,6.16,0,0,1-2.51,2.76,7.81,7.81,0,0,1-4.2,1.07,8,8,0,0,1-3.24-.62,7.45,7.45,0,0,1-2.45-1.67A7.36,7.36,0,0,1,370,434.8,7.76,7.76,0,0,1,369.42,431.89Z" transform="translate(-79.52 -93.38)"/><path class="cls-6" d="M385.17,431.89a8,8,0,0,1,.54-2.93,7.06,7.06,0,0,1,1.55-2.43,7.47,7.47,0,0,1,2.45-1.66,8.17,8.17,0,0,1,3.24-.62,7.84,7.84,0,0,1,4.13,1,6.77,6.77,0,0,1,2.55,2.74l-3.69,1.12a3.38,3.38,0,0,0-1.27-1.25,3.58,3.58,0,0,0-1.75-.44,3.52,3.52,0,0,0-1.52.33,3.62,3.62,0,0,0-1.23.9,4.26,4.26,0,0,0-.82,1.39,5.5,5.5,0,0,0-.29,1.81,4.93,4.93,0,0,0,.31,1.8,4.46,4.46,0,0,0,.83,1.41,3.68,3.68,0,0,0,1.23.92,3.66,3.66,0,0,0,3.36-.19,2.74,2.74,0,0,0,1.2-1.24l3.69,1.13a6.14,6.14,0,0,1-2.5,2.76,7.85,7.85,0,0,1-4.2,1.07,7.94,7.94,0,0,1-3.24-.62,7.49,7.49,0,0,1-2.46-1.67,7.81,7.81,0,0,1-2.11-5.37Z" transform="translate(-79.52 -93.38)"/><path class="cls-6" d="M408.7,439.55a8.27,8.27,0,0,1-3.21-.6,7.3,7.3,0,0,1-4-4.07,7.92,7.92,0,0,1-.55-2.91,8.15,8.15,0,0,1,.54-3,7.2,7.2,0,0,1,1.55-2.45,7.37,7.37,0,0,1,2.46-1.68,8.31,8.31,0,0,1,3.26-.62,8.09,8.09,0,0,1,3.23.62,7.55,7.55,0,0,1,2.42,1.66A7.13,7.13,0,0,1,415.9,429a8,8,0,0,1,.52,2.87c0,.25,0,.48,0,.71a2.75,2.75,0,0,1-.07.56H404.93a4.17,4.17,0,0,0,.42,1.55,3.72,3.72,0,0,0,.87,1.16,4,4,0,0,0,1.21.73,4,4,0,0,0,1.41.25,4.34,4.34,0,0,0,2.13-.55,2.9,2.9,0,0,0,1.37-1.45l3.24.9a6.62,6.62,0,0,1-2.61,2.78A8.11,8.11,0,0,1,408.7,439.55Zm3.83-8.9a3.89,3.89,0,0,0-1.22-2.66,3.81,3.81,0,0,0-6.06,1.16,4.1,4.1,0,0,0-.38,1.5Z" transform="translate(-79.52 -93.38)"/><path class="cls-6" d="M424.85,439.55a6.65,6.65,0,0,1-5-2.22,7.77,7.77,0,0,1-1.46-2.44,8.67,8.67,0,0,1-.52-3,8.81,8.81,0,0,1,.5-3,7.63,7.63,0,0,1,1.36-2.42,6.29,6.29,0,0,1,2.09-1.64,6,6,0,0,1,2.65-.59,5.53,5.53,0,0,1,2.94.79,5.7,5.7,0,0,1,2.05,2.06v-8.4h3.77v16.23a1.41,1.41,0,0,0,.2.85.88.88,0,0,0,.67.28v3.21a8.63,8.63,0,0,1-1.6.2,2.59,2.59,0,0,1-1.66-.51,1.86,1.86,0,0,1-.74-1.32l-.08-.93a5.3,5.3,0,0,1-2.21,2.12A6.3,6.3,0,0,1,424.85,439.55Zm1-3.21a3.55,3.55,0,0,0,1.09-.18,4,4,0,0,0,1.05-.52,5,5,0,0,0,.86-.79,3.53,3.53,0,0,0,.58-1v-3.52a4.24,4.24,0,0,0-.64-1.14,4.71,4.71,0,0,0-.93-.91,4.91,4.91,0,0,0-1.1-.6,3.09,3.09,0,0,0-1.14-.23,3.45,3.45,0,0,0-1.56.37,3.72,3.72,0,0,0-1.23,1,4.84,4.84,0,0,0-.79,1.45,5.12,5.12,0,0,0-.28,1.69,4.59,4.59,0,0,0,1.15,3.1,3.74,3.74,0,0,0,1.29.93A3.84,3.84,0,0,0,425.84,436.34Z" transform="translate(-79.52 -93.38)"/><path class="cls-6" d="M443.76,439.55a8.2,8.2,0,0,1-3.21-.6,7.6,7.6,0,0,1-2.46-1.65,7.51,7.51,0,0,1-1.56-2.42A7.72,7.72,0,0,1,436,432a8.15,8.15,0,0,1,.54-3,7,7,0,0,1,1.55-2.45,7.17,7.17,0,0,1,2.46-1.68,8.27,8.27,0,0,1,3.26-.62,8,8,0,0,1,3.22.62,7.49,7.49,0,0,1,2.43,1.66A7.29,7.29,0,0,1,451,429a8,8,0,0,1,.52,2.87c0,.25,0,.48,0,.71a3.7,3.7,0,0,1-.07.56H440a4.59,4.59,0,0,0,.42,1.55,3.86,3.86,0,0,0,3.5,2.14,4.34,4.34,0,0,0,2.13-.55,2.88,2.88,0,0,0,1.36-1.45l3.24.9a6.53,6.53,0,0,1-2.6,2.78A8.14,8.14,0,0,1,443.76,439.55Zm3.83-8.9a3.89,3.89,0,0,0-1.22-2.66,3.77,3.77,0,0,0-2.64-1,3.7,3.7,0,0,0-1.42.27,3.78,3.78,0,0,0-1.17.75,3.73,3.73,0,0,0-.83,1.15,3.91,3.91,0,0,0-.38,1.5Z" transform="translate(-79.52 -93.38)"/><path class="cls-6" d="M462.58,427.77a7.36,7.36,0,0,0-3.07.67,3.82,3.82,0,0,0-1.94,1.9v8.93h-3.78V424.5h3.47v3.16a6.6,6.6,0,0,1,.93-1.37,7.09,7.09,0,0,1,1.15-1.05,5.22,5.22,0,0,1,1.26-.69,3.43,3.43,0,0,1,1.22-.24h.47a1.36,1.36,0,0,1,.29,0Z" transform="translate(-79.52 -93.38)"/><path class="cls-6" d="M474.81,439.55a5.5,5.5,0,0,1-2-.35,4.59,4.59,0,0,1-1.6-1,4.53,4.53,0,0,1-1.06-1.47,4.58,4.58,0,0,1-.38-1.86,4.14,4.14,0,0,1,.46-1.94,4.44,4.44,0,0,1,1.3-1.5,6.38,6.38,0,0,1,2-1,8.79,8.79,0,0,1,2.53-.35,11.17,11.17,0,0,1,1.93.17,7.57,7.57,0,0,1,1.68.48v-.84a3,3,0,0,0-.83-2.26,3.44,3.44,0,0,0-2.47-.79,6.55,6.55,0,0,0-2.31.42,11.4,11.4,0,0,0-2.31,1.24l-1.15-2.39a10.86,10.86,0,0,1,6.14-1.89,7.19,7.19,0,0,1,4.95,1.57,5.74,5.74,0,0,1,1.76,4.52v4.59a1.34,1.34,0,0,0,.21.85.92.92,0,0,0,.69.28v3.21a8.53,8.53,0,0,1-1.66.2A2.5,2.5,0,0,1,481,439a2,2,0,0,1-.72-1.27l-.09-.82a6.41,6.41,0,0,1-2.39,2A6.91,6.91,0,0,1,474.81,439.55Zm1.07-2.76a4.83,4.83,0,0,0,1.82-.34,3.17,3.17,0,0,0,1.34-.9,1.36,1.36,0,0,0,.62-1.07v-1.69a8.89,8.89,0,0,0-1.46-.41,8.25,8.25,0,0,0-1.53-.15,4,4,0,0,0-2.39.66,2,2,0,0,0-.93,1.68,2,2,0,0,0,.73,1.59A2.67,2.67,0,0,0,475.88,436.79Z" transform="translate(-79.52 -93.38)"/><path class="cls-6" d="M486.93,418.7h3.78v15.84a1.91,1.91,0,0,0,.39,1.27,1.43,1.43,0,0,0,1.13.45,2.71,2.71,0,0,0,.75-.12,4.69,4.69,0,0,0,.77-.28l.51,2.88a7.45,7.45,0,0,1-1.78.56,9.72,9.72,0,0,1-1.83.2,3.8,3.8,0,0,1-2.75-.95,3.56,3.56,0,0,1-1-2.69Z" transform="translate(-79.52 -93.38)"/><path class="cls-6" d="M514.07,424.5a4.44,4.44,0,0,0-.72-.53,7.84,7.84,0,0,0-1.27-.66,10.62,10.62,0,0,0-1.62-.55,7,7,0,0,0-1.77-.23,4,4,0,0,0-2.4.59,2,2,0,0,0-.79,1.67,1.72,1.72,0,0,0,.3,1,2.48,2.48,0,0,0,.86.71,7,7,0,0,0,1.42.57c.57.17,1.24.35,2,.53,1,.27,1.86.55,2.66.85a6.92,6.92,0,0,1,2,1.13,4.67,4.67,0,0,1,1.28,1.62,5.36,5.36,0,0,1,.45,2.32,5.85,5.85,0,0,1-.6,2.75,5.11,5.11,0,0,1-1.64,1.84,6.91,6.91,0,0,1-2.36,1,11.75,11.75,0,0,1-2.81.33,15.07,15.07,0,0,1-4.45-.68,13.68,13.68,0,0,1-3.95-1.92l1.72-3.35a5.44,5.44,0,0,0,.92.66,12.4,12.4,0,0,0,1.56.82,12.65,12.65,0,0,0,2,.69,9,9,0,0,0,2.26.28c2.14,0,3.21-.68,3.21-2.05a1.65,1.65,0,0,0-.37-1.1,3,3,0,0,0-1-.79,8.85,8.85,0,0,0-1.63-.62l-2.14-.62a19.5,19.5,0,0,1-2.5-.86,6.7,6.7,0,0,1-1.76-1.1,4.13,4.13,0,0,1-1.06-1.47,5.12,5.12,0,0,1-.35-2,6.31,6.31,0,0,1,.56-2.71,5.43,5.43,0,0,1,1.57-2,6.91,6.91,0,0,1,2.32-1.2,9.77,9.77,0,0,1,2.85-.41,11.11,11.11,0,0,1,3.89.66,15,15,0,0,1,3.1,1.57Z" transform="translate(-79.52 -93.38)"/><path class="cls-6" d="M519.06,422.45V418.7h3.77v3.75Zm0,16.82V424.5h3.77v14.77Z" transform="translate(-79.52 -93.38)"/><path class="cls-6" d="M532,439.36a6,6,0,0,1-2.7-.6,6.37,6.37,0,0,1-2.1-1.62,7.2,7.2,0,0,1-1.37-2.38,8.92,8.92,0,0,1,0-5.86,7.38,7.38,0,0,1,1.41-2.42,6.4,6.4,0,0,1,2.17-1.64,6.55,6.55,0,0,1,2.79-.59,5.72,5.72,0,0,1,3,.78,6.41,6.41,0,0,1,2.14,2.07v-2.6h3.3v14.07a6.77,6.77,0,0,1-.62,2.93,6.55,6.55,0,0,1-1.7,2.2,7.69,7.69,0,0,1-2.6,1.38,10.74,10.74,0,0,1-3.28.48,9.17,9.17,0,0,1-4.07-.81,8.06,8.06,0,0,1-2.83-2.27l2-2a5.89,5.89,0,0,0,2.13,1.64,6.46,6.46,0,0,0,2.72.59,5.88,5.88,0,0,0,1.68-.24,4,4,0,0,0,1.42-.75,3.49,3.49,0,0,0,1-1.29,4.47,4.47,0,0,0,.35-1.86v-1.86a5,5,0,0,1-2,2A6.09,6.09,0,0,1,532,439.36Zm1.27-3a3.33,3.33,0,0,0,1.18-.2,4.08,4.08,0,0,0,1-.53,4.26,4.26,0,0,0,.85-.79,3.6,3.6,0,0,0,.56-1v-3.52a4.55,4.55,0,0,0-1.59-2.09,3.84,3.84,0,0,0-2.27-.79,3.26,3.26,0,0,0-1.57.38,4.13,4.13,0,0,0-1.22,1,4.79,4.79,0,0,0-.77,1.45,5.38,5.38,0,0,0-.27,1.69,4.49,4.49,0,0,0,.31,1.69,4.24,4.24,0,0,0,.86,1.38,3.9,3.9,0,0,0,1.28.93A3.75,3.75,0,0,0,533.29,436.34Z" transform="translate(-79.52 -93.38)"/><path class="cls-6" d="M548.62,439.55a4.19,4.19,0,0,1-3.47-1.46,6.81,6.81,0,0,1-1.18-4.34V424.5h3.78v8.43c0,2.27.81,3.41,2.45,3.41a3.86,3.86,0,0,0,2.12-.66,4.68,4.68,0,0,0,1.68-2V424.5h3.78v10.43a1.34,1.34,0,0,0,.21.85.92.92,0,0,0,.69.28v3.21a7.41,7.41,0,0,1-.94.14l-.7,0a2.7,2.7,0,0,1-1.64-.46,1.8,1.8,0,0,1-.75-1.29l-.09-1.18a6.22,6.22,0,0,1-2.53,2.28A7.59,7.59,0,0,1,548.62,439.55Z" transform="translate(-79.52 -93.38)"/><path class="cls-6" d="M561.53,422.45V418.7h3.77v3.75Zm0,16.82V424.5h3.77v14.77Z" transform="translate(-79.52 -93.38)"/><path class="cls-6" d="M575.56,439.55a8.24,8.24,0,0,1-3.21-.6,7.6,7.6,0,0,1-2.46-1.65,7.51,7.51,0,0,1-1.56-2.42,7.72,7.72,0,0,1-.55-2.91,8.15,8.15,0,0,1,.54-3,7,7,0,0,1,1.55-2.45,7.17,7.17,0,0,1,2.46-1.68,8.27,8.27,0,0,1,3.26-.62,8,8,0,0,1,3.22.62,7.49,7.49,0,0,1,2.43,1.66,7.29,7.29,0,0,1,1.52,2.43,8,8,0,0,1,.52,2.87c0,.25,0,.48,0,.71a3.7,3.7,0,0,1-.07.56H571.78a4.37,4.37,0,0,0,.43,1.55,3.72,3.72,0,0,0,.87,1.16,4,4,0,0,0,1.21.73,4,4,0,0,0,1.41.25,4.34,4.34,0,0,0,2.13-.55,2.88,2.88,0,0,0,1.36-1.45l3.25.9a6.62,6.62,0,0,1-2.61,2.78A8.11,8.11,0,0,1,575.56,439.55Zm3.83-8.9a3.89,3.89,0,0,0-1.22-2.66,3.77,3.77,0,0,0-2.64-1,3.7,3.7,0,0,0-1.42.27,3.78,3.78,0,0,0-1.17.75,3.73,3.73,0,0,0-.83,1.15,3.91,3.91,0,0,0-.38,1.5Z" transform="translate(-79.52 -93.38)"/><path class="cls-6" d="M599.32,439.27h-3.78V431a4.36,4.36,0,0,0-.62-2.6,2,2,0,0,0-1.72-.81,3.21,3.21,0,0,0-1.15.22,4.05,4.05,0,0,0-1.12.64,4.82,4.82,0,0,0-.94,1,3.8,3.8,0,0,0-.62,1.24v8.62h-3.78V424.5H589v2.74a5.67,5.67,0,0,1,2.37-2.2,7.53,7.53,0,0,1,3.49-.79,4.45,4.45,0,0,1,2.26.51,3.72,3.72,0,0,1,1.35,1.32,5.56,5.56,0,0,1,.66,1.86,12.47,12.47,0,0,1,.19,2.12Z" transform="translate(-79.52 -93.38)"/><path class="cls-6" d="M611.32,438.51a17.21,17.21,0,0,1-1.86.68,8,8,0,0,1-2.31.34,5.4,5.4,0,0,1-1.48-.2,3.13,3.13,0,0,1-1.21-.64,3,3,0,0,1-.83-1.12,4,4,0,0,1-.31-1.68v-8.48h-2V424.5h2v-4.79h3.77v4.79h3.1v2.91h-3.1v7.21a1.33,1.33,0,0,0,.41,1.11,1.54,1.54,0,0,0,1,.33,3.54,3.54,0,0,0,1.16-.2c.37-.13.67-.24.9-.34Z" transform="translate(-79.52 -93.38)"/><path class="cls-6" d="M619.78,439.55a8.29,8.29,0,0,1-3.22-.6,7.66,7.66,0,0,1-2.45-1.65,7.35,7.35,0,0,1-1.56-2.42A7.72,7.72,0,0,1,612,432a8.36,8.36,0,0,1,.53-3,7.24,7.24,0,0,1,4-4.13,8.26,8.26,0,0,1,3.25-.62,8.06,8.06,0,0,1,3.23.62,7.34,7.34,0,0,1,2.42,1.66A7.16,7.16,0,0,1,627,429a8.24,8.24,0,0,1,.52,2.87c0,.25,0,.48,0,.71a2.75,2.75,0,0,1-.07.56H616a4.59,4.59,0,0,0,.42,1.55,3.86,3.86,0,0,0,3.5,2.14,4.27,4.27,0,0,0,2.12-.55,2.86,2.86,0,0,0,1.37-1.45l3.24.9a6.53,6.53,0,0,1-2.6,2.78A8.14,8.14,0,0,1,619.78,439.55Zm3.83-8.9a3.9,3.9,0,0,0-1.23-2.66,3.91,3.91,0,0,0-4-.74,3.56,3.56,0,0,0-1.17.75,3.93,3.93,0,0,0-.84,1.15,4.3,4.3,0,0,0-.38,1.5Z" transform="translate(-79.52 -93.38)"/><path class="cls-6" d="M393.55,466.81v3.41H379.66v-20H393.3v3.41h-9.75v4.82H392v3.15h-8.43v5.21Z" transform="translate(-79.52 -93.38)"/><path class="cls-6" d="M409.79,470.22H406v-8.28a4.33,4.33,0,0,0-.62-2.59,2,2,0,0,0-1.72-.82,3.21,3.21,0,0,0-1.15.22,4.63,4.63,0,0,0-1.12.64,5.1,5.1,0,0,0-.94,1,3.9,3.9,0,0,0-.62,1.24v8.62h-3.78V455.46h3.41v2.73a5.67,5.67,0,0,1,2.37-2.2,7.66,7.66,0,0,1,3.49-.79,4.45,4.45,0,0,1,2.26.51,3.67,3.67,0,0,1,1.35,1.33,5.41,5.41,0,0,1,.66,1.86,11.42,11.42,0,0,1,.19,2.11Z" transform="translate(-79.52 -93.38)"/><path class="cls-6" d="M413.06,449.65h3.77v15.84a1.83,1.83,0,0,0,.4,1.27,1.4,1.4,0,0,0,1.12.45,3,3,0,0,0,.75-.11,5.2,5.2,0,0,0,.78-.29l.5,2.88a7.37,7.37,0,0,1-1.77.56,9.9,9.9,0,0,1-1.84.2,3.77,3.77,0,0,1-2.74-.94,3.59,3.59,0,0,1-1-2.7Z" transform="translate(-79.52 -93.38)"/><path class="cls-6" d="M426.05,470.51a5.56,5.56,0,0,1-2-.36,4.66,4.66,0,0,1-2.66-2.46,4.58,4.58,0,0,1-.38-1.86,4.08,4.08,0,0,1,.47-1.93,4.45,4.45,0,0,1,1.29-1.51,6.48,6.48,0,0,1,2-1,8.52,8.52,0,0,1,2.54-.35,11.26,11.26,0,0,1,1.93.16,8.71,8.71,0,0,1,1.67.48v-.84a3,3,0,0,0-.83-2.26,3.46,3.46,0,0,0-2.46-.78,6.55,6.55,0,0,0-2.31.42,10.32,10.32,0,0,0-2.32,1.24l-1.15-2.4A10.89,10.89,0,0,1,428,455.2a7.24,7.24,0,0,1,5,1.57,5.74,5.74,0,0,1,1.76,4.52v4.59a1.34,1.34,0,0,0,.21.85.92.92,0,0,0,.69.28v3.21a7.82,7.82,0,0,1-1.66.2,2.5,2.5,0,0,1-1.65-.48,2.06,2.06,0,0,1-.72-1.27l-.08-.81a6.59,6.59,0,0,1-2.4,2A6.88,6.88,0,0,1,426.05,470.51Zm1.07-2.76a5,5,0,0,0,1.81-.34,3.28,3.28,0,0,0,1.34-.91,1.32,1.32,0,0,0,.62-1.07v-1.69a10,10,0,0,0-1.46-.41,8.23,8.23,0,0,0-1.52-.15,4.05,4.05,0,0,0-2.4.66,2,2,0,0,0-.2,3.27A2.69,2.69,0,0,0,427.12,467.75Z" transform="translate(-79.52 -93.38)"/><path class="cls-6" d="M437.26,462.84a8,8,0,0,1,.54-2.93,6.92,6.92,0,0,1,1.55-2.42,7.5,7.5,0,0,1,2.45-1.67,8.17,8.17,0,0,1,3.24-.62,7.73,7.73,0,0,1,4.13,1.05,6.62,6.62,0,0,1,2.55,2.73L448,460.11a3.34,3.34,0,0,0-1.27-1.26,3.57,3.57,0,0,0-1.75-.43,3.7,3.7,0,0,0-1.52.32,3.91,3.91,0,0,0-1.23.9,4.19,4.19,0,0,0-.81,1.4,5.15,5.15,0,0,0-.3,1.8,4.93,4.93,0,0,0,.31,1.8,4.46,4.46,0,0,0,.83,1.41,3.68,3.68,0,0,0,1.23.92,3.47,3.47,0,0,0,1.49.32,3.73,3.73,0,0,0,1.88-.5,2.82,2.82,0,0,0,1.19-1.24l3.69,1.12a6.21,6.21,0,0,1-2.5,2.77,8,8,0,0,1-4.2,1.07,8.17,8.17,0,0,1-3.24-.62,7.4,7.4,0,0,1-4-4.13A7.81,7.81,0,0,1,437.26,462.84Z" transform="translate(-79.52 -93.38)"/><path class="cls-6" d="M460.79,470.51a8.27,8.27,0,0,1-3.21-.61,7.15,7.15,0,0,1-2.45-1.65,7.27,7.27,0,0,1-1.57-2.42,7.91,7.91,0,0,1-.55-2.9,8.17,8.17,0,0,1,.54-3,7.29,7.29,0,0,1,1.55-2.45,7.61,7.61,0,0,1,2.47-1.68,8.22,8.22,0,0,1,3.25-.62,8.09,8.09,0,0,1,3.23.62,7.47,7.47,0,0,1,2.42,1.67,6.85,6.85,0,0,1,1.52,2.42,8,8,0,0,1,.52,2.88c0,.24,0,.47,0,.7a2.75,2.75,0,0,1-.07.56H457a4.12,4.12,0,0,0,.42,1.55,4.06,4.06,0,0,0,.87,1.16,3.84,3.84,0,0,0,1.21.73,4,4,0,0,0,1.41.26,4.45,4.45,0,0,0,2.13-.55,2.92,2.92,0,0,0,1.37-1.46l3.24.91a6.66,6.66,0,0,1-2.61,2.77A8.09,8.09,0,0,1,460.79,470.51Zm3.84-8.91a4,4,0,0,0-1.23-2.66,3.95,3.95,0,0,0-4.06-.73,3.58,3.58,0,0,0-1.17.74,4,4,0,0,0-.83,1.16,4,4,0,0,0-.38,1.49Z" transform="translate(-79.52 -93.38)"/><g class="cls-27"><path class="cls-6" d="M765,154.68v-12a3.54,3.54,0,0,0-3.55-3.54h-4.09a2.19,2.19,0,0,1-2.12-1.75c-.07-.33-.15-.66-.23-1a2.16,2.16,0,0,1,1-2.41l3.68-2.13A3.55,3.55,0,0,0,761,127l-6-10.39a3.55,3.55,0,0,0-4.85-1.3L747,117.08a2.15,2.15,0,0,1-2.65-.38c-.32-.35-.64-.68-1-1a2.13,2.13,0,0,1-.31-2.58l1.06-1.84a5.17,5.17,0,0,0-1.9-7.06l-7.59-4.38a5.17,5.17,0,0,0-7.06,1.89l-.5.87a3.1,3.1,0,0,1-3.52,1.44h-.06a3.14,3.14,0,0,1-2.29-3V97.48a2.86,2.86,0,0,0-2.85-2.85H705a2.85,2.85,0,0,0-2.85,2.85V101a3.07,3.07,0,0,1-2.25,2.95h0a3.07,3.07,0,0,1-3.46-1.42l-2-3.56a2.5,2.5,0,0,0-3.42-.92l-12.21,7.06a2.49,2.49,0,0,0-.92,3.41l2.58,4.46a2.14,2.14,0,0,1-.36,2.59c-.25.25-.5.51-.74.77a2.16,2.16,0,0,1-2.64.41l-3.75-2.17a3.54,3.54,0,0,0-4.84,1.3l-6,10.4a3.54,3.54,0,0,0,1.3,4.84l4.15,2.4a2.15,2.15,0,0,1,1,2.41c-.06.23-.11.47-.17.7a2.15,2.15,0,0,1-2.08,1.68h-4.29a4.28,4.28,0,0,0-4.28,4.27v10.56a4.28,4.28,0,0,0,4.28,4.27h4.76a2.17,2.17,0,0,1,2.07,1.59c0,.12.06.24.1.36a2.15,2.15,0,0,1-1,2.48l-4.31,2.49a4.27,4.27,0,0,0-1.57,5.84l5.28,9.14a4.27,4.27,0,0,0,5.84,1.57l4.56-2.64a2.17,2.17,0,0,1,2.61.36l.08.09a2.16,2.16,0,0,1,.38,2.61l-2.36,4.07a5.06,5.06,0,0,0,1.85,6.9l7.8,4.5a5.05,5.05,0,0,0,6.9-1.84l2.33-4a2.17,2.17,0,0,1,2.46-1h0a2.17,2.17,0,0,1,1.61,2.07v4.87a5,5,0,0,0,5,5h9a5,5,0,0,0,5.05-5v-4.45a2.19,2.19,0,0,1,1.7-2.12l.07,0a2.21,2.21,0,0,1,2.44,1l2.33,4a5.06,5.06,0,0,0,6.9,1.85l7.79-4.5a5.05,5.05,0,0,0,1.85-6.9l-2-3.44a2.2,2.2,0,0,1,.43-2.71l.24-.21a2.18,2.18,0,0,1,2.59-.33l4.91,2.83a3.54,3.54,0,0,0,4.84-1.3l6-10.39a3.56,3.56,0,0,0-1.3-4.85L755.15,163a2.19,2.19,0,0,1-1-2.58c.07-.21.14-.43.2-.64a2.18,2.18,0,0,1,2.09-1.58h4.94A3.55,3.55,0,0,0,765,154.68Zm-19.05-11.2a34.43,34.43,0,1,1-30.73-30.74A34.43,34.43,0,0,1,745.91,143.48Z" transform="translate(-79.52 -93.38)"/></g><g class="cls-28"><path class="cls-9" d="M630.7,115.35l-1.81-5.78a1.79,1.79,0,0,0-2.25-1.18l-2,.62a1.11,1.11,0,0,1-1.29-.52c-.08-.15-.17-.3-.26-.45a1.12,1.12,0,0,1,.12-1.32l1.46-1.58a1.79,1.79,0,0,0-.11-2.53l-4.47-4.11a1.79,1.79,0,0,0-2.53.11l-1.22,1.33a1.08,1.08,0,0,1-1.34.21l-.62-.34a1.08,1.08,0,0,1-.54-1.2l.23-1a2.6,2.6,0,0,0-2-3.12l-4.32-1a2.61,2.61,0,0,0-3.12,2l-.11.5a1.59,1.59,0,0,1-1.48,1.23h0a1.58,1.58,0,0,1-1.56-1.11L601,94.39a1.44,1.44,0,0,0-1.81-.94l-6.46,2a1.44,1.44,0,0,0-.94,1.81l.53,1.71a1.56,1.56,0,0,1-.63,1.77h0a1.57,1.57,0,0,1-1.89-.16l-1.53-1.41a1.25,1.25,0,0,0-1.78.08l-4.82,5.25a1.25,1.25,0,0,0,.07,1.78l1.92,1.76a1.1,1.1,0,0,1,.22,1.3c-.08.16-.17.32-.24.49a1.09,1.09,0,0,1-1.21.59l-2.14-.47a1.79,1.79,0,0,0-2.14,1.35l-1.32,5.93a1.79,1.79,0,0,0,1.36,2.14l2.36.53a1.07,1.07,0,0,1,.84,1l0,.36a1.09,1.09,0,0,1-.75,1.12l-2.07.65a2.17,2.17,0,0,0-1.42,2.71l1.6,5.09a2.16,2.16,0,0,0,2.71,1.41l2.3-.72A1.1,1.1,0,0,1,585,132a1.4,1.4,0,0,1,.1.16,1.08,1.08,0,0,1-.09,1.34l-1.7,1.85a2.15,2.15,0,0,0,.13,3l3.93,3.61a2.15,2.15,0,0,0,3-.13l1.8-2a1.11,1.11,0,0,1,1.31-.22l0,0a1.09,1.09,0,0,1,.58,1.21l-.52,2.31a2.56,2.56,0,0,0,1.94,3l4.44,1a2.54,2.54,0,0,0,3-1.93l.52-2.3a1.1,1.1,0,0,1,1-.85h0a1.09,1.09,0,0,1,1.09.76l.74,2.34a2.55,2.55,0,0,0,3.2,1.68l4.34-1.37a2.55,2.55,0,0,0,1.67-3.2L615,140.3a1.11,1.11,0,0,1,.5-1.28l0,0a1.1,1.1,0,0,1,1.33.12l1.74,1.59a2.54,2.54,0,0,0,3.6-.15l3.08-3.35a2.57,2.57,0,0,0-.15-3.61l-1.48-1.35a1.11,1.11,0,0,1-.2-1.37l.08-.14a1.11,1.11,0,0,1,1.21-.55l2.79.62a1.8,1.8,0,0,0,2.14-1.36l1.32-5.92a1.79,1.79,0,0,0-1.36-2.14l-2.35-.53a1.1,1.1,0,0,1-.86-1.09v-.34a1.12,1.12,0,0,1,.77-1.08l2.38-.75A1.79,1.79,0,0,0,630.7,115.35Zm-10.87-2.52a17.4,17.4,0,1,1-19.47-10.17A17.41,17.41,0,0,1,619.83,112.83Z" transform="translate(-79.52 -93.38)"/></g><g class="cls-28"><path class="cls-9" d="M168.9,242.4v-10a3,3,0,0,0-3-3h-3.41a1.81,1.81,0,0,1-1.76-1.45c-.06-.28-.13-.55-.2-.83a1.83,1.83,0,0,1,.84-2l3.07-1.77a3,3,0,0,0,1.08-4l-5-8.66a3,3,0,0,0-4-1.08L154,211.08a1.8,1.8,0,0,1-2.22-.32c-.26-.28-.53-.57-.8-.84a1.8,1.8,0,0,1-.26-2.16l.88-1.52a4.3,4.3,0,0,0-1.58-5.88l-6.32-3.65a4.3,4.3,0,0,0-5.88,1.57l-.42.72a2.58,2.58,0,0,1-2.93,1.21l-.05,0a2.59,2.59,0,0,1-1.91-2.5v-2.93a2.37,2.37,0,0,0-2.37-2.37H119a2.38,2.38,0,0,0-2.38,2.37v3a2.55,2.55,0,0,1-1.87,2.46h0a2.55,2.55,0,0,1-2.88-1.19l-1.71-3a2.07,2.07,0,0,0-2.84-.76l-10.18,5.87a2.09,2.09,0,0,0-.76,2.84l2.15,3.72a1.79,1.79,0,0,1-.3,2.15l-.62.64a1.8,1.8,0,0,1-2.2.35L92.2,209a3,3,0,0,0-4,1.08l-5,8.67a3,3,0,0,0,1.08,4l3.46,2a1.78,1.78,0,0,1,.83,2l-.15.59a1.78,1.78,0,0,1-1.73,1.39H83.07a3.56,3.56,0,0,0-3.55,3.56v8.79a3.55,3.55,0,0,0,3.55,3.56h4A1.79,1.79,0,0,1,88.76,246l.09.3a1.8,1.8,0,0,1-.81,2.07l-3.59,2.07a3.55,3.55,0,0,0-1.3,4.86L87.54,263a3.55,3.55,0,0,0,4.86,1.31l3.81-2.2a1.79,1.79,0,0,1,2.16.3l.07.07a1.79,1.79,0,0,1,.32,2.18l-2,3.39a4.21,4.21,0,0,0,1.54,5.75l6.49,3.75a4.21,4.21,0,0,0,5.75-1.54l1.94-3.37a1.8,1.8,0,0,1,2-.81h0a1.8,1.8,0,0,1,1.34,1.73v4.05a4.21,4.21,0,0,0,4.21,4.21h7.5a4.2,4.2,0,0,0,4.2-4.21v-3.7a1.84,1.84,0,0,1,1.42-1.77h.06a1.82,1.82,0,0,1,2,.84l1.94,3.36a4.2,4.2,0,0,0,5.74,1.54l6.49-3.75a4.2,4.2,0,0,0,1.54-5.75l-1.65-2.86a1.82,1.82,0,0,1,.37-2.25L150,263a1.8,1.8,0,0,1,2.16-.27l4.09,2.35a3,3,0,0,0,4-1.08l5-8.66a3,3,0,0,0-1.08-4l-3.44-2a1.82,1.82,0,0,1-.8-2.14c0-.18.11-.36.16-.54a1.83,1.83,0,0,1,1.74-1.32H166A3,3,0,0,0,168.9,242.4ZM153,233.07a28.67,28.67,0,1,1-25.6-25.6A28.68,28.68,0,0,1,153,233.07Z" transform="translate(-79.52 -93.38)"/></g></g></g></svg>