<svg id="Capa_1" data-name="Capa 1" xmlns="http://www.w3.org/2000/svg" viewBox="0 0 72.53 72.53"><defs><style>.cls-1{fill:none;stroke:#173558;stroke-miterlimit:10;stroke-width:2px;}.cls-2{fill:#173558;}</style></defs><rect class="cls-1" x="1" y="1" width="70.53" height="70.53" rx="12.17"/><g id="task_list" data-name="task list"><path class="cls-2" d="M42.15,23.88H30.38A3.41,3.41,0,0,1,27,20.47V18a3.41,3.41,0,0,1,3.4-3.41H42.15A3.41,3.41,0,0,1,45.55,18v2.47A3.41,3.41,0,0,1,42.15,23.88ZM30.38,17.69a.31.31,0,0,0-.31.31v2.47a.31.31,0,0,0,.31.31H42.15a.31.31,0,0,0,.31-.31h0V18a.31.31,0,0,0-.31-.31H30.38Z" transform="translate(-0.23 -0.51)"/><path class="cls-2" d="M36.26,11.49a3.1,3.1,0,0,1,3.1,3.1v1.55H33.17V14.59A3.09,3.09,0,0,1,36.26,11.49Z" transform="translate(-0.23 -0.51)"/><path class="cls-2" d="M50.2,61H22.33a4.66,4.66,0,0,1-4.64-4.65V22.33a4.64,4.64,0,0,1,4.64-4.64h6.19a1.55,1.55,0,1,1,0,3.09H22.33a1.56,1.56,0,0,0-1.55,1.55V56.39a1.55,1.55,0,0,0,1.55,1.55H50.2a1.55,1.55,0,0,0,1.55-1.55V22.33a1.56,1.56,0,0,0-1.55-1.55H44a1.55,1.55,0,1,1,0-3.09H50.2a4.64,4.64,0,0,1,4.64,4.64V56.39A4.66,4.66,0,0,1,50.2,61Z" transform="translate(-0.23 -0.51)"/><path class="cls-2" d="M28.52,39.36a4.65,4.65,0,1,1,4.65-4.64A4.64,4.64,0,0,1,28.52,39.36Zm0-6.19a1.55,1.55,0,1,0,1.55,1.55A1.54,1.54,0,0,0,28.52,33.17Z" transform="translate(-0.23 -0.51)"/><path class="cls-2" d="M47.1,33.17H37.81a1.55,1.55,0,0,1,0-3.1H47.1a1.55,1.55,0,0,1,0,3.1Z" transform="translate(-0.23 -0.51)"/><path class="cls-2" d="M42.46,39.36H37.81a1.55,1.55,0,0,1,0-3.1h4.65a1.55,1.55,0,0,1,0,3.1Z" transform="translate(-0.23 -0.51)"/><path class="cls-2" d="M28.52,51.75a4.65,4.65,0,1,1,4.65-4.65A4.65,4.65,0,0,1,28.52,51.75Zm0-6.2a1.55,1.55,0,1,0,1.55,1.55A1.55,1.55,0,0,0,28.52,45.55Z" transform="translate(-0.23 -0.51)"/><path class="cls-2" d="M47.1,45.55H37.81a1.55,1.55,0,1,1,0-3.09H47.1a1.55,1.55,0,1,1,0,3.09Z" transform="translate(-0.23 -0.51)"/><path class="cls-2" d="M42.46,51.75H37.81a1.55,1.55,0,0,1,0-3.1h4.65a1.55,1.55,0,0,1,0,3.1Z" transform="translate(-0.23 -0.51)"/></g></svg>