<svg id="Capa_1" data-name="Capa 1" xmlns="http://www.w3.org/2000/svg" viewBox="0 0 72.53 72.53"><defs><style>.cls-1{fill:none;stroke:#fff;stroke-miterlimit:10;stroke-width:2px;}.cls-2{fill:#0c73ba;}</style></defs><rect class="cls-1" x="1" y="1" width="70.53" height="70.53" rx="12.17"/><path class="cls-2" d="M36.07,15.71a7.94,7.94,0,0,1,3.33.71c4.45,2,8.91,4,13.33,6.09a5.85,5.85,0,0,1,3.77,5.55,5.77,5.77,0,0,1-3.66,5.37c-4.49,2.12-9,4.14-13.54,6.2a7.63,7.63,0,0,1-2.31.59,8.25,8.25,0,0,1-4.44-.7q-6.52-3-13-6a6.14,6.14,0,0,1-3.9-5.06,5.85,5.85,0,0,1,3.51-5.86c4.59-2.16,9.22-4.23,13.84-6.32A7.51,7.51,0,0,1,36.07,15.71Z" transform="translate(-0.03 0.07)"/><path class="cls-2" d="M36.12,48.49a9.51,9.51,0,0,1-3.71-.84l-12.9-5.89a6.9,6.9,0,0,1-2.84-2.26A2,2,0,1,1,19.9,37a3.89,3.89,0,0,0,1.45,1.09L34.17,44a4.31,4.31,0,0,0,3.71,0l13-5.92A3.76,3.76,0,0,0,52.22,37a2,2,0,0,1,3.24,2.48,6.56,6.56,0,0,1-2.69,2.2q-6.69,3.06-13.4,6.12A8.62,8.62,0,0,1,36.12,48.49Z" transform="translate(-0.03 0.07)"/><path class="cls-2" d="M36,56.66a8.57,8.57,0,0,1-3.55-.81L19.56,50a7,7,0,0,1-2.86-2.23A2,2,0,0,1,17,44.81a2,2,0,0,1,2.89.41,3.94,3.94,0,0,0,1.39,1l12.9,5.89a4.34,4.34,0,0,0,3.71,0l13-5.92a3.7,3.7,0,0,0,1.31-1,2,2,0,1,1,3.21,2.52,6.77,6.77,0,0,1-2.72,2.17q-6.61,3-13.26,6.05A8,8,0,0,1,36,56.66Z" transform="translate(-0.03 0.07)"/></svg>