<svg id="Capa_1" data-name="Capa 1" xmlns="http://www.w3.org/2000/svg" viewBox="0 0 72.53 72.53"><defs><style>.cls-1{fill:none;stroke:#183658;stroke-miterlimit:10;stroke-width:2px;}.cls-2{fill:#173559;}.cls-3{fill:#f6f6f6;}.cls-4{fill:#f2f2f2;}.cls-5{fill:#f3f3f3;}</style></defs><rect class="cls-1" x="1" y="1" width="70.53" height="70.53" rx="12.17"/><path class="cls-2" d="M36.29,57.23h-12c-1.31,0-1.53-.23-1.53-1.57,0-2,0-4.11,0-6.16,0-.57-.17-.75-.74-.73-1.19,0-2.39,0-3.58,0a3.26,3.26,0,0,1-3.35-3.39q0-7.32,0-14.63a3.23,3.23,0,0,1,3.41-3.41,29.5,29.5,0,0,1,3.12,0c.86.06,1-.26,1-1-.05-2.94,0-5.89,0-8.83,0-1.27.24-1.51,1.49-1.51H48c1.24,0,1.53.28,1.53,1.5,0,3,0,6,0,9,0,.7.2.88.88.85,1.22-.05,2.45,0,3.68,0a3.23,3.23,0,0,1,3.41,3.41q0,7.32,0,14.63a3.26,3.26,0,0,1-3.35,3.39c-1.16,0-2.33,0-3.49,0-.64,0-.85.16-.83.82,0,2,0,4,0,6,0,1.46-.19,1.66-1.63,1.66Z" transform="translate(-0.03 0.07)"/><path class="cls-3" d="M36.27,55.26c-3.56,0-7.12,0-10.67,0-.62,0-.85-.14-.85-.81q0-6.8,0-13.61c0-.57.11-.78.75-.78q10.76,0,21.53,0c.66,0,.79.21.79.83,0,4.51,0,9,0,13.52,0,.72-.24.86-.9.85C43.38,55.24,39.83,55.26,36.27,55.26Z" transform="translate(-0.03 0.07)"/><path class="cls-3" d="M36,18c3.52,0,7.05,0,10.57,0,.68,0,1,.11.94.88-.05,2.57,0,5.15,0,7.72,0,.65-.19.81-.82.81q-10.62,0-21.23,0c-.61,0-.86-.12-.85-.8q.06-3.9,0-7.81c0-.66.2-.81.83-.8C29,18,32.49,18,36,18Z" transform="translate(-0.03 0.07)"/><path class="cls-4" d="M43.78,31.81a1.37,1.37,0,0,1,1.36,1.41,1.39,1.39,0,0,1-2.77,0A1.37,1.37,0,0,1,43.78,31.81Z" transform="translate(-0.03 0.07)"/><path class="cls-5" d="M53,33.21a1.39,1.39,0,0,1-2.78,0,1.36,1.36,0,0,1,1.39-1.37A1.39,1.39,0,0,1,53,33.21Z" transform="translate(-0.03 0.07)"/><path class="cls-2" d="M36.31,44.15H28.78c-.7,0-1.32-.11-1.4-1-.06-.67.45-1,1.42-1H43.85c.55,0,1.06.05,1.29.64.29.74-.23,1.34-1.21,1.34Z" transform="translate(-0.03 0.07)"/><path class="cls-2" d="M36.18,53.16c-2.48,0-5,0-7.44,0-.73,0-1.34-.17-1.34-1s.61-1,1.34-1H43.89c.74,0,1.33.23,1.3,1.06s-.6,1-1.29,1Z" transform="translate(-0.03 0.07)"/><path class="cls-2" d="M36.38,46.81h7.18a4.54,4.54,0,0,1,.91.06.88.88,0,0,1,.74.93.89.89,0,0,1-.73.93,3.28,3.28,0,0,1-.83.05H28.93c-.21,0-.43,0-.64,0a.92.92,0,0,1-.91-1,.9.9,0,0,1,.91-1c.64-.05,1.29,0,1.93,0Z" transform="translate(-0.03 0.07)"/></svg>