<svg id="Capa_1" data-name="Capa 1" xmlns="http://www.w3.org/2000/svg" viewBox="0 0 72.53 72.53"><defs><style>.cls-1{fill:none;stroke:#fff;stroke-miterlimit:10;stroke-width:2px;}.cls-2{fill:#0672b9;}</style></defs><rect class="cls-1" x="1" y="1" width="70.53" height="70.53" rx="12.17"/><g id="task_list" data-name="task list"><path class="cls-2" d="M41.91,23.41H30.15A3.41,3.41,0,0,1,26.74,20V17.53a3.41,3.41,0,0,1,3.41-3.41H41.91a3.41,3.41,0,0,1,3.41,3.41V20A3.41,3.41,0,0,1,41.91,23.41ZM30.15,17.22a.31.31,0,0,0-.31.31V20a.31.31,0,0,0,.31.31H41.91a.31.31,0,0,0,.31-.31h0V17.53a.31.31,0,0,0-.31-.31H30.15Z" transform="translate(0 -0.04)"/><path class="cls-2" d="M36,11a3.1,3.1,0,0,1,3.1,3.1v1.55h-6.2V14.12A3.1,3.1,0,0,1,36,11Z" transform="translate(0 -0.04)"/><path class="cls-2" d="M50,60.56H22.1a4.65,4.65,0,0,1-4.65-4.64V21.86a4.65,4.65,0,0,1,4.65-4.64h6.19a1.55,1.55,0,1,1,0,3.09H22.1a1.55,1.55,0,0,0-1.55,1.55V55.92a1.55,1.55,0,0,0,1.55,1.55H50a1.55,1.55,0,0,0,1.55-1.55V21.86A1.55,1.55,0,0,0,50,20.31H43.77a1.55,1.55,0,1,1,0-3.09H50a4.65,4.65,0,0,1,4.65,4.64V55.92A4.65,4.65,0,0,1,50,60.56Z" transform="translate(0 -0.04)"/><path class="cls-2" d="M28.29,38.89a4.65,4.65,0,1,1,4.64-4.64A4.65,4.65,0,0,1,28.29,38.89Zm0-6.19a1.55,1.55,0,1,0,1.55,1.55A1.54,1.54,0,0,0,28.29,32.7Z" transform="translate(0 -0.04)"/><path class="cls-2" d="M46.87,32.7H37.58a1.55,1.55,0,1,1,0-3.1h9.29a1.55,1.55,0,1,1,0,3.1Z" transform="translate(0 -0.04)"/><path class="cls-2" d="M42.22,38.89H37.58a1.55,1.55,0,0,1,0-3.1h4.64a1.55,1.55,0,1,1,0,3.1Z" transform="translate(0 -0.04)"/><path class="cls-2" d="M28.29,51.28a4.65,4.65,0,1,1,4.64-4.65A4.65,4.65,0,0,1,28.29,51.28Zm0-6.2a1.55,1.55,0,1,0,1.55,1.55A1.55,1.55,0,0,0,28.29,45.08Z" transform="translate(0 -0.04)"/><path class="cls-2" d="M46.87,45.08H37.58a1.55,1.55,0,1,1,0-3.09h9.29a1.55,1.55,0,1,1,0,3.09Z" transform="translate(0 -0.04)"/><path class="cls-2" d="M42.22,51.28H37.58a1.55,1.55,0,1,1,0-3.1h4.64a1.55,1.55,0,1,1,0,3.1Z" transform="translate(0 -0.04)"/></g></svg>