<svg id="Capa_1" data-name="Capa 1" xmlns="http://www.w3.org/2000/svg" viewBox="0 0 72.53 72.53"><defs><style>.cls-1{fill:none;stroke:#fff;stroke-miterlimit:10;stroke-width:2px;}.cls-2{fill:#0c73ba;}</style></defs><rect class="cls-1" x="1" y="1" width="70.53" height="70.53" rx="12.17"/><path class="cls-2" d="M36.77,57.13c-3.25,0-6.5,0-9.75,0A11,11,0,0,1,16,44.91a10.42,10.42,0,0,1,3.71-7.17,2.52,2.52,0,0,0,1-1.89A12,12,0,0,1,30.78,24.78a12.16,12.16,0,0,1,1.81-.14,1.71,1.71,0,0,1,1.77,1.6A1.64,1.64,0,0,1,32.78,28a9.14,9.14,0,0,0-5.33,1.82,8.11,8.11,0,0,0-3.3,7.55,2.29,2.29,0,0,1-1.33,2.28,7.42,7.42,0,0,0-3.44,5.81,7.51,7.51,0,0,0,7.13,8.17c6.83.1,13.67.11,20.5,0A7,7,0,0,0,53.59,49a7.32,7.32,0,0,0-1.53-8.19,3.7,3.7,0,0,1-1-2,7.09,7.09,0,0,0-6.81-6.18c-.12,0-.24,0-.36,0a1.71,1.71,0,1,1,.21-3.41,10.59,10.59,0,0,1,10.19,8.19A4.37,4.37,0,0,0,55.1,39a10.65,10.65,0,0,1,1.47,11.63,10.53,10.53,0,0,1-9.79,6.43c-3.33.12-6.68,0-10,0Z" transform="translate(-0.03 0.07)"/><path class="cls-2" d="M35.88,41.46V17.74a5.58,5.58,0,0,1,0-1,1.78,1.78,0,0,1,1.78-1.51,1.75,1.75,0,0,1,1.69,1.5,6.58,6.58,0,0,1,0,1.09V41.48c.43,0,.56-.32.76-.52,1.07-1.08,2.1-2.2,3.18-3.26a1.74,1.74,0,0,1,2.52,2.41c-2.32,2.44-4.68,4.85-7,7.23a1.59,1.59,0,0,1-2.38,0q-3.6-3.6-7.11-7.3a1.71,1.71,0,0,1,.17-2.39,1.77,1.77,0,0,1,2.47.11c.93.9,1.82,1.86,2.72,2.81.32.32.61.66.92,1Z" transform="translate(-0.03 0.07)"/></svg>