<svg id="Capa_1" data-name="Capa 1" xmlns="http://www.w3.org/2000/svg" viewBox="0 0 72.53 72.53"><rect x="1" y="1" width="70.53" height="70.53" rx="12.17" fill="none" stroke="#fff" stroke-miterlimit="10" stroke-width="2"/><path d="M36,15.78a8.17,8.17,0,0,1,3.34.7c4.45,2,8.9,4,13.32,6.1a5.85,5.85,0,0,1,3.77,5.55,5.78,5.78,0,0,1-3.65,5.37c-4.5,2.12-9,4.14-13.55,6.2a7.63,7.63,0,0,1-2.31.59,8.25,8.25,0,0,1-4.44-.7q-6.53-3-13-6a6.14,6.14,0,0,1-3.9-5.06,5.86,5.86,0,0,1,3.51-5.86c4.59-2.16,9.22-4.23,13.84-6.32A7.51,7.51,0,0,1,36,15.78Z" transform="translate(0 0)" fill="#0672b9"/><path d="M36.09,48.56a9.55,9.55,0,0,1-3.71-.84l-12.9-5.89a6.8,6.8,0,0,1-2.83-2.26,2,2,0,1,1,3.22-2.49,3.84,3.84,0,0,0,1.45,1.08L34.15,44a4.28,4.28,0,0,0,3.7,0l13-5.92a3.76,3.76,0,0,0,1.37-1.07,2,2,0,0,1,3.24,2.47,6.48,6.48,0,0,1-2.68,2.21L39.34,47.85A8.58,8.58,0,0,1,36.09,48.56Z" transform="translate(0 0)" fill="#0672b9"/><path d="M36,56.73a8.57,8.57,0,0,1-3.55-.81L19.53,50a7.1,7.1,0,0,1-2.86-2.23A2,2,0,0,1,17,44.88a2,2,0,0,1,2.89.4,3.85,3.85,0,0,0,1.39,1l12.9,5.89a4.34,4.34,0,0,0,3.71,0l13-5.92a3.81,3.81,0,0,0,1.31-1,2,2,0,1,1,3.21,2.52A6.71,6.71,0,0,1,52.65,50Q46,53,39.39,56A8,8,0,0,1,36,56.73Z" transform="translate(0 0)" fill="#0672b9"/></svg>