<svg id="Capa_1" data-name="Capa 1" xmlns="http://www.w3.org/2000/svg" viewBox="0 0 72.53 72.53"><defs><style>.cls-1,.cls-3{fill:none;stroke-miterlimit:10;}.cls-1{stroke:#183658;stroke-width:2px;}.cls-2{fill:#cd3433;}.cls-3{stroke:#173559;stroke-width:3px;}.cls-4{fill:#173559;}</style></defs><rect class="cls-1" x="1" y="1" width="70.53" height="70.53" rx="12.17"/><path class="cls-2" d="M39.74,13" transform="translate(-0.03 0.07)"/><path class="cls-2" d="M39.74,13" transform="translate(-0.03 0.07)"/><path class="cls-2" d="M40.15,13" transform="translate(-0.03 0.07)"/><path class="cls-3" d="M30.68,48.93a14.34,14.34,0,1,1,14.4-14.28A14.35,14.35,0,0,1,30.68,48.93Z" transform="translate(-0.03 0.07)"/><path class="cls-4" d="M52.71,59.36a2.77,2.77,0,0,1-2.07-.83L44.12,52a2.19,2.19,0,0,1-.75-1.39,2.28,2.28,0,0,0-.93-1.58c-.58-.57-1.14-1.16-1.74-1.72-.28-.27-.25-.42,0-.65A12.51,12.51,0,0,0,43,44.41c.25-.32.39-.28.63,0,.41.45.86.87,1.3,1.3.64.63,1.19,1.38,2.24,1.42a2,2,0,0,1,1.23.74c2.13,2.13,4.27,4.25,6.39,6.4a3,3,0,0,1-2.07,5.1Z" transform="translate(-0.03 0.07)"/><path class="cls-4" d="M22.76,34.56a7.73,7.73,0,0,1,2.11-5.38c.34-.37.72-.67,1.17-.22s.18.77-.13,1.14a6.52,6.52,0,0,0,0,9c.31.37.51.75.11,1.14s-.83.13-1.17-.24A7.94,7.94,0,0,1,22.76,34.56Z" transform="translate(-0.03 0.07)"/></svg>