<svg id="Capa_1" data-name="Capa 1" xmlns="http://www.w3.org/2000/svg" viewBox="0 0 72.53 72.53"><defs><style>.cls-1,.cls-3{fill:none;stroke-miterlimit:10;stroke-width:2px;}.cls-1{stroke:#fff;}.cls-2{fill:#cd3433;}.cls-3{stroke:#0c73ba;}.cls-4{fill:#0c73ba;}.cls-5{fill:#fff;}</style></defs><rect class="cls-1" x="1" y="1" width="70.53" height="70.53" rx="12.17"/><path class="cls-2" d="M39.89,15.49" transform="translate(-0.03 0.07)"/><path class="cls-2" d="M39.89,15.49" transform="translate(-0.03 0.07)"/><path class="cls-2" d="M40.31,15.49" transform="translate(-0.03 0.07)"/><path class="cls-3" d="M34.42,23.93a7.92,7.92,0,0,1,3.36.71c4.49,2,9,4.06,13.45,6.15A5.88,5.88,0,0,1,55,36.38a5.81,5.81,0,0,1-3.68,5.42c-4.54,2.14-9.11,4.19-13.68,6.26a7.71,7.71,0,0,1-2.32.6A8.29,8.29,0,0,1,30.87,48q-6.59-3-13.16-6a6.21,6.21,0,0,1-3.94-5.11,5.92,5.92,0,0,1,3.54-5.91c4.63-2.18,9.3-4.27,14-6.38A7.49,7.49,0,0,1,34.42,23.93Z" transform="translate(-0.03 0.07)"/><path class="cls-4" d="M34.47,57a9.32,9.32,0,0,1-3.74-.85l-13-5.94a6.86,6.86,0,0,1-2.86-2.28,2.05,2.05,0,1,1,3.25-2.51,3.92,3.92,0,0,0,1.46,1.09l13,5.91a4.34,4.34,0,0,0,3.74,0l13.09-6a3.79,3.79,0,0,0,1.38-1.08A2.05,2.05,0,0,1,54,47.89a6.56,6.56,0,0,1-2.7,2.22L37.75,56.29A8.77,8.77,0,0,1,34.47,57Z" transform="translate(-0.03 0.07)"/><circle class="cls-4" cx="52.12" cy="45.92" r="7.72"/><rect class="cls-5" x="50.88" y="39.47" width="2.36" height="12.57" rx="0.7"/><rect class="cls-5" x="50.9" y="39.4" width="2.36" height="12.57" rx="0.7" transform="matrix(0.02, 1, -1, 0.02, 96.88, -7.06)"/></svg>