<svg id="Capa_1" data-name="Capa 1" xmlns="http://www.w3.org/2000/svg" viewBox="0 0 72.53 72.53"><defs><style>.cls-1,.cls-2{fill:none;stroke-miterlimit:10;stroke-width:2px;}.cls-1{stroke:#183658;}.cls-2{stroke:#173559;}.cls-3{fill:#173559;}</style></defs><rect class="cls-1" x="1" y="1" width="70.53" height="70.53" rx="12.17"/><path class="cls-2" d="M36.14,15.76a8.09,8.09,0,0,1,3.33.7c4.45,2,8.91,4,13.33,6.1a5.85,5.85,0,0,1,3.77,5.55,5.78,5.78,0,0,1-3.66,5.37c-4.49,2.11-9,4.14-13.54,6.2a7.63,7.63,0,0,1-2.31.59,8.25,8.25,0,0,1-4.44-.7q-6.52-3-13-6a6.14,6.14,0,0,1-3.9-5.06,5.85,5.85,0,0,1,3.51-5.86c4.58-2.16,9.22-4.23,13.84-6.32A7.51,7.51,0,0,1,36.14,15.76Z" transform="translate(-0.1 0.02)"/><path class="cls-3" d="M36.19,48.53a9.33,9.33,0,0,1-3.71-.83l-12.9-5.89a6.84,6.84,0,0,1-2.84-2.27A2,2,0,1,1,20,37.06a3.76,3.76,0,0,0,1.45,1.08L34.24,44A4.31,4.31,0,0,0,38,44l13-5.92A3.76,3.76,0,0,0,52.29,37a2,2,0,0,1,3.23,2.47,6.42,6.42,0,0,1-2.68,2.21l-13.4,6.12A8.41,8.41,0,0,1,36.19,48.53Z" transform="translate(-0.1 0.02)"/><path class="cls-3" d="M36.08,56.71a8.57,8.57,0,0,1-3.55-.81L19.63,50a7.12,7.12,0,0,1-2.86-2.23,2,2,0,0,1,.32-2.92,2,2,0,0,1,2.89.4,3.85,3.85,0,0,0,1.39,1.05q6.45,2.94,12.9,5.88a4.31,4.31,0,0,0,3.71,0l13-5.91a3.81,3.81,0,0,0,1.31-1,2,2,0,0,1,2.89-.4,2,2,0,0,1,.32,2.92A6.86,6.86,0,0,1,52.75,50q-6.63,3-13.26,6A8,8,0,0,1,36.08,56.71Z" transform="translate(-0.1 0.02)"/></svg>