<svg id="Capa_1" data-name="Capa 1" xmlns="http://www.w3.org/2000/svg" viewBox="0 0 72.53 72.53"><defs><style>.cls-1,.cls-2{fill:none;stroke-miterlimit:10;}.cls-1{stroke:#fff;stroke-width:2px;}.cls-2{stroke:#0c73ba;}.cls-3{fill:#0c73ba;}</style></defs><rect class="cls-1" x="1" y="1" width="70.53" height="70.53" rx="12.17"/><path class="cls-2" d="M20.88,36.21V18.64c0-2,1-3,3-3,4.76,0,9.52,0,14.28,0,.55,0,.72.11.71.69,0,3.1,0,6.2,0,9.3a2.6,2.6,0,0,0,2.89,2.87c3.1,0,6.2,0,9.3,0,.52,0,.66.13.66.66q0,12.44,0,24.86a2.57,2.57,0,0,1-2.77,2.74H23.66a2.58,2.58,0,0,1-2.78-2.81C20.87,48,20.88,42.12,20.88,36.21Z" transform="translate(-0.03 0.07)"/><path class="cls-3" d="M41.42,15.82l10.1,10.09c0,.07-.17,0-.29,0-3.08,0-6.15,0-9.22,0-.42,0-.6-.06-.6-.55C41.44,22.21,41.42,19,41.42,15.82Z" transform="translate(-0.03 0.07)"/><path class="cls-3" d="M41.42,42.54c0-2.75,0-5.51,0-8.26,0-.53.13-.68.66-.66,1.31,0,2.62,0,3.93,0,.46,0,.57.13.57.58q0,8.41,0,16.85c0,.45-.12.58-.57.57-1.31,0-2.62,0-3.93,0-.53,0-.66-.13-.66-.65C41.44,48.16,41.42,45.35,41.42,42.54Z" transform="translate(-0.03 0.07)"/><path class="cls-3" d="M38.86,45.14c0,2,0,3.9,0,5.85,0,.47-.08.65-.6.64-1.34-.05-2.68,0-4,0-.39,0-.54-.08-.54-.52,0-3.93,0-7.86,0-11.79,0-.4.07-.56.52-.55,1.36,0,2.73,0,4.09,0,.5,0,.55.19.54.6C38.85,41.29,38.86,43.21,38.86,45.14Z" transform="translate(-0.03 0.07)"/><path class="cls-3" d="M31.15,47.76c0,1.12,0,2.25,0,3.37,0,.38-.11.5-.49.49q-2.09,0-4.17,0c-.39,0-.5-.11-.49-.49,0-2.25,0-4.49,0-6.74,0-.39.1-.5.49-.49q2.09,0,4.17,0c.38,0,.5.1.49.49C31.14,45.51,31.15,46.64,31.15,47.76Z" transform="translate(-0.03 0.07)"/></svg>