<svg id="Capa_1" data-name="Capa 1" xmlns="http://www.w3.org/2000/svg" viewBox="0 0 65.99 78.62"><path d="M65.47,25.31c.11,8.71-.11,17.38-2.94,25.78C59,61.67,52.08,69.25,42.33,74.4a56.45,56.45,0,0,1-8,3.45,3.1,3.1,0,0,1-2.12.14C20.88,74.05,11.51,67.71,5.94,56.72A51.07,51.07,0,0,1,1,38.81c-.85-8-.43-16.06-.34-24.08,0-2,1.11-2.94,3.3-3a44.05,44.05,0,0,0,12-1.56A35.17,35.17,0,0,0,30.47,2c2.12-2,3.07-2,5.18,0,6.85,6.38,15,9.38,24.29,9.75.84,0,1.69,0,2.53.06,2,.12,3,1.09,3,3.09C65.49,18.34,65.47,21.83,65.47,25.31Z" transform="translate(0 0)" fill="#fff" stroke="#fff" stroke-miterlimit="10"/><path d="M60.05,27.18c.18,7.44-.21,14.85-2.49,22C54,60.47,46,67.53,35.24,71.94a5.37,5.37,0,0,1-4.44,0C22.93,68.69,16.56,64,12.3,57.33a35.12,35.12,0,0,1-4.05-9c-2-6.68-2.38-13.58-2.37-20.51,0-3,.15-6,.12-8.94,0-1.16.34-1.49,1.49-1.55A41.7,41.7,0,0,0,27,11.62,36.75,36.75,0,0,0,32.07,8c.64-.54,1.07-.73,1.83-.09a40.72,40.72,0,0,0,24.72,9.41,1.6,1.6,0,0,1,1.18.39,1.66,1.66,0,0,1,.27,1.19C60,21.67,60.05,24.43,60.05,27.18Z" transform="translate(0 0)" fill="#717070"/><path d="M59.35,17.87a1,1,0,0,1,.43.26,1.34,1.34,0,0,1,.29,1.21c0,2.31,0,5.68,0,9.8,0,3.38,0,4.13,0,4.93a69.52,69.52,0,0,1-1.24,11,36.59,36.59,0,0,1-7,15.39,48.51,48.51,0,0,1-9.29,8.16c-.16.1-1.35.76-3.73,2.08a15.25,15.25,0,0,1-4.09,1.81,10.92,10.92,0,0,1-1.59.27c-1.92.16-3.57-.58-7.46-2.94-2.51-1.53-3.77-2.29-4.74-3a37.62,37.62,0,0,1-6.82-6.61Z" transform="translate(0 0)" fill="#717070"/><path d="M47,32.2a2.65,2.65,0,0,1-.86,2.08c-4.93,4.93-9.84,9.87-14.79,14.77a2.65,2.65,0,0,1-4,0Q23.6,45.47,20,41.79a2.77,2.77,0,0,1-.21-3.93,2.7,2.7,0,0,1,4,.1c1.56,1.46,3.09,2.94,4.53,4.52.74.8,1.12.7,1.83,0,3.94-4,7.94-8,11.9-11.93a2.82,2.82,0,0,1,3.36-.79A2.47,2.47,0,0,1,47,32.2Z" transform="translate(0 0)" fill="#fff"/></svg>