<svg id="Capa_1" data-name="Capa 1" xmlns="http://www.w3.org/2000/svg" viewBox="0 0 72.53 72.53"><defs><style>.cls-1,.cls-2{fill:none;stroke-miterlimit:10;}.cls-1{stroke:#fff;stroke-width:2px;}.cls-2{stroke:#0c73ba;stroke-width:1.5px;}</style></defs><rect class="cls-1" x="1" y="1" width="70.53" height="70.53" rx="12.17"/><g id="g3505"><g id="g3511"><path id="path3513" class="cls-2" d="M39.45,34.21,52.07,21.59a1.93,1.93,0,0,1,2.72,0l2.72,2.72a1.93,1.93,0,0,1,0,2.72L26.76,57.78a1.93,1.93,0,0,1-2.72,0l-2.72-2.72a1.93,1.93,0,0,1,0-2.72L33.94,39.71" transform="translate(-0.03 0.07)"/></g><g id="g3515"><path id="path3517" class="cls-2" d="M21.47,51.66A21.16,21.16,0,0,1,51.4,21.74" transform="translate(-0.03 0.07)"/></g><g id="g3519"><path id="path3521" class="cls-2" d="M27,46.32a13.47,13.47,0,0,1,19-19" transform="translate(-0.03 0.07)"/></g><g id="g3523"><path id="path3525" class="cls-2" d="M18.52,47.45l2.34-1.35" transform="translate(-0.03 0.07)"/></g><g id="g3527"><path id="path3529" class="cls-2" d="M16.42,42.39,17.73,42" transform="translate(-0.03 0.07)"/></g><g id="g3531"><path id="path3533" class="cls-2" d="M15.71,37h1.35" transform="translate(-0.03 0.07)"/></g><g id="g3535"><path id="path3537" class="cls-2" d="M16.42,31.53l2.62.7" transform="translate(-0.03 0.07)"/></g><g id="g3539"><path id="path3541" class="cls-2" d="M18.52,26.47l1.17.67" transform="translate(-0.03 0.07)"/></g><g id="g3543"><path id="path3545" class="cls-2" d="M21.86,22.12l.95,1" transform="translate(-0.03 0.07)"/></g><g id="g3547"><path id="path3549" class="cls-2" d="M26.2,18.79l1.36,2.34" transform="translate(-0.03 0.07)"/></g><g id="g3551"><path id="path3553" class="cls-2" d="M31.26,16.69,31.61,18" transform="translate(-0.03 0.07)"/></g><g id="g3555"><path id="path3557" class="cls-2" d="M36.69,16v1.36" transform="translate(-0.03 0.07)"/></g><g id="g3559"><path id="path3561" class="cls-2" d="M42.13,16.69l-.7,2.61" transform="translate(-0.03 0.07)"/></g><g id="g3563"><path id="path3565" class="cls-2" d="M47.19,18.79,46.51,20" transform="translate(-0.03 0.07)"/></g><g id="g3567"><path id="path3569" class="cls-2" d="M40.88,41.15l1,1" transform="translate(-0.03 0.07)"/></g><g id="g3571"><path id="path3573" class="cls-2" d="M36.7,43.76l1.81,1.82" transform="translate(-0.03 0.07)"/></g><g id="g3575"><path id="path3577" class="cls-2" d="M34.08,48l1,1" transform="translate(-0.03 0.07)"/></g><g id="g3579"><path id="path3581" class="cls-2" d="M30.68,51.35l1,1" transform="translate(-0.03 0.07)"/></g><g id="g3583"><path id="path3585" class="cls-2" d="M26.49,54l1.82,1.82" transform="translate(-0.03 0.07)"/></g><g id="g3587"><path id="path3589" class="cls-2" d="M44.29,37.75l1,1" transform="translate(-0.03 0.07)"/></g><g id="g3591"><path id="path3593" class="cls-2" d="M46.9,33.56l1.82,1.82" transform="translate(-0.03 0.07)"/></g><g id="g3595"><path id="path3597" class="cls-2" d="M51.09,31l1,1" transform="translate(-0.03 0.07)"/></g><g id="g3599"><path id="path3601" class="cls-2" d="M54.49,27.54l1,1" transform="translate(-0.03 0.07)"/></g><g id="g3603"><path id="path3605" class="cls-2" d="M36.69,37h0" transform="translate(-0.03 0.07)"/></g></g></svg>