<svg id="Capa_1" data-name="Capa 1" xmlns="http://www.w3.org/2000/svg" viewBox="0 0 72.53 72.53"><defs><style>.cls-1{fill:#0c73ba;}.cls-2{fill:none;stroke:#fff;stroke-miterlimit:10;stroke-width:2px;}</style></defs><path class="cls-1" d="M52.07,48.65H45.59a1.4,1.4,0,0,0,0,2.8h2.9a19.17,19.17,0,0,1-4.75,2.77A19.43,19.43,0,0,1,18.43,29a1.4,1.4,0,1,0-2.59-1A22.21,22.21,0,0,0,50.67,53.29v3.43a1.4,1.4,0,0,0,1.4,1.41h0a1.4,1.4,0,0,0,1.4-1.4V50.05a1.37,1.37,0,0,0-.41-1,1.41,1.41,0,0,0-1-.41Z" transform="translate(-0.03 0.07)"/><path class="cls-1" d="M52.2,20.47A22.18,22.18,0,0,0,22.27,19.1V15.67a1.41,1.41,0,0,0-1.4-1.41h0a1.4,1.4,0,0,0-1.4,1.4l0,6.68a1.41,1.41,0,0,0,.41,1,1.38,1.38,0,0,0,1,.41h6.48a1.4,1.4,0,0,0,0-2.8H24.45a18.82,18.82,0,0,1,4.75-2.77A19.42,19.42,0,0,1,54.5,43.44a1.4,1.4,0,0,0,.78,1.82,1.37,1.37,0,0,0,.52.1,1.39,1.39,0,0,0,1.3-.88A22.18,22.18,0,0,0,52.2,20.47Z" transform="translate(-0.03 0.07)"/><rect class="cls-2" x="1" y="1" width="70.53" height="70.53" rx="12.17"/></svg>