<svg id="Capa_1" data-name="Capa 1" xmlns="http://www.w3.org/2000/svg" viewBox="0 0 72.53 72.53"><defs><style>.cls-1{fill:none;stroke:#fff;stroke-miterlimit:10;stroke-width:2px;}.cls-2{fill:#173658;}</style></defs><rect class="cls-1" x="1" y="1" width="70.53" height="70.53" rx="12.17"/><path class="cls-2" d="M19,27.83l2.32,28a4,4,0,0,0,3.92,3.6h21.4a4,4,0,0,0,3.92-3.6l2.32-28Zm10.39,26.4A1.31,1.31,0,0,1,28,53L26.72,31.84a1.31,1.31,0,0,1,1.22-1.39,1.29,1.29,0,0,1,1.39,1.23l1.31,21.16A1.31,1.31,0,0,1,29.34,54.23Zm7.86-1.31a1.31,1.31,0,1,1-2.62,0V31.76a1.31,1.31,0,0,1,2.62,0Zm7.87-21.08L43.76,53a1.31,1.31,0,1,1-2.62-.16l1.31-21.16a1.34,1.34,0,0,1,1.39-1.23A1.32,1.32,0,0,1,45.07,31.84Z" transform="translate(-0.03 0.07)"/><path class="cls-2" d="M52.94,20H45.07V18.65a3.93,3.93,0,0,0-3.93-3.93H30.65a3.94,3.94,0,0,0-3.94,3.93V20H18.85a2.63,2.63,0,1,0,0,5.25H52.94a2.63,2.63,0,0,0,0-5.25ZM42.45,20H29.34V18.65a1.31,1.31,0,0,1,1.31-1.31H41.14a1.31,1.31,0,0,1,1.31,1.31Z" transform="translate(-0.03 0.07)"/></svg>