<svg id="Capa_1" data-name="Capa 1" xmlns="http://www.w3.org/2000/svg" viewBox="0 0 72.53 72.53"><defs><style>.cls-1{fill:#173658;}.cls-2{fill:none;stroke:#fff;stroke-miterlimit:10;stroke-width:2px;}</style></defs><path class="cls-1" d="M52.14,49h0l-6.47,0a1.4,1.4,0,0,0,0,2.8h2.89a18.82,18.82,0,0,1-4.75,2.77A19.43,19.43,0,0,1,18.5,29.27a1.4,1.4,0,0,0-2.6-1.05A22.22,22.22,0,0,0,50.73,53.61V57a1.4,1.4,0,0,0,1.4,1.4h0a1.39,1.39,0,0,0,1.4-1.39l0-6.68A1.4,1.4,0,0,0,52.14,49Z" transform="translate(-0.09 -0.25)"/><path class="cls-1" d="M52.26,20.78a22.18,22.18,0,0,0-24-4.89,21.75,21.75,0,0,0-5.89,3.53V16a1.4,1.4,0,0,0-1.4-1.4h0a1.4,1.4,0,0,0-1.4,1.4v6.68a1.37,1.37,0,0,0,.41,1,1.41,1.41,0,0,0,1,.41h6.48a1.4,1.4,0,0,0,0-2.8h-2.9A19.43,19.43,0,0,1,54.57,43.76a1.4,1.4,0,0,0,.77,1.82,1.4,1.4,0,0,0,1.82-.78A22.19,22.19,0,0,0,52.26,20.78Z" transform="translate(-0.09 -0.25)"/><rect class="cls-2" x="1" y="1" width="70.53" height="70.53" rx="12.17"/></svg>