<svg id="Capa_1" data-name="Capa 1" xmlns="http://www.w3.org/2000/svg" viewBox="0 0 67.18 67.18"><defs><style>.cls-1{fill:#173559;}.cls-2{fill:#cd3433;}.cls-3{fill:none;stroke:#173559;stroke-miterlimit:10;stroke-width:5px;}</style></defs><g id="Capa_1-2" data-name="Capa 1-2"><path class="cls-1" d="M36.43,69.79A33.6,33.6,0,1,1,69.88,36.06v.27h0A33.17,33.17,0,0,1,37,69.79h-.56Zm0-65.29A31.7,31.7,0,1,0,68,36.34h0A31.28,31.28,0,0,0,37.3,4.5h-.87Z" transform="translate(-2.7 -2.6)"/></g><path class="cls-2" d="M41.13,12" transform="translate(-2.7 -2.6)"/><path class="cls-2" d="M41.13,12" transform="translate(-2.7 -2.6)"/><path class="cls-2" d="M41.55,12" transform="translate(-2.7 -2.6)"/><circle class="cls-3" cx="33.59" cy="33.59" r="16.87"/><rect class="cls-1" x="31.11" y="9.43" width="4.97" height="18.77" rx="2.32"/><rect class="cls-1" x="31.11" y="37.44" width="4.97" height="20.31" rx="2.32"/><rect class="cls-1" x="19.14" y="26.7" width="4.97" height="18.99" rx="2.32" transform="translate(-17.27 55.22) rotate(-90)"/><rect class="cls-1" x="48.04" y="26.27" width="4.97" height="19.86" rx="2.32" transform="translate(11.63 84.12) rotate(-90)"/></svg>