<svg id="Capa_1" data-name="Capa 1" xmlns="http://www.w3.org/2000/svg" viewBox="0 0 72.53 72.53"><defs><style>.cls-1{fill:none;stroke:#fff;stroke-miterlimit:10;stroke-width:2px;}.cls-2{fill:#173658;}</style></defs><rect class="cls-1" x="1" y="1" width="70.53" height="70.53" rx="12.17"/><path class="cls-2" d="M55.21,22A4.17,4.17,0,0,0,52,23.52L40.1,16.68c0-.08,0-.16,0-.24a4.15,4.15,0,1,0-8.29,0,4.9,4.9,0,0,0,0,.54L20.45,23.52a4.14,4.14,0,1,0-3.86,6.73L28.16,50.37a4.09,4.09,0,0,0-1.33,3A4.14,4.14,0,0,0,35,54.51H48a4.14,4.14,0,1,0,5.28-5l2.9-19.27a4.14,4.14,0,0,0-1-8.17ZM51.08,49.21a.76.76,0,0,0,0,.15A4.14,4.14,0,0,0,48,52.29H35a4.15,4.15,0,0,0-4-3,3.86,3.86,0,0,0-.84.09L19,29.94a4.13,4.13,0,0,0,2.44-3.77,4.07,4.07,0,0,0-.05-.61L32.74,19a4.14,4.14,0,0,0,6.62-.22l11.76,6.75a4.07,4.07,0,0,0,0,.61A4.16,4.16,0,0,0,54,30.12Z" transform="translate(-0.03 0.07)"/></svg>