<svg id="Capa_1" data-name="Capa 1" xmlns="http://www.w3.org/2000/svg" viewBox="0 0 67.18 67.18"><defs><style>.cls-1{fill:#173559;}</style></defs><g id="Capa_1-2" data-name="Capa 1-2"><path class="cls-1" d="M36.43,69.79A33.6,33.6,0,1,1,69.88,36.06v.27h0A33.17,33.17,0,0,1,37,69.79h-.56Zm0-65.29A31.7,31.7,0,1,0,68,36.34h0A31.28,31.28,0,0,0,37.3,4.5h-.87Z" transform="translate(-2.7 -2.6)"/></g><path class="cls-1" d="M36.39,15.33a.29.29,0,0,0,0,.13L52.33,51a.75.75,0,0,1,0,.62.81.81,0,0,1,0,.22L39.94,40.87a5.53,5.53,0,0,0-3.63-1.72,5.47,5.47,0,0,0-3.58,1.4L20.28,51.46a.6.6,0,0,1,0-.19.82.82,0,0,1,0-.65L36.39,15.35v-.13m0-2.73a2.72,2.72,0,0,0-2.57,1.74L17.72,49.61A3.27,3.27,0,0,0,19.14,54a3.33,3.33,0,0,0,1.14.34,2.79,2.79,0,0,0,1.78-.71L34.53,42.73a2.57,2.57,0,0,1,3.55,0L50.53,53.81a2.69,2.69,0,0,0,1.77.71,3.28,3.28,0,0,0,2.91-3.6,3.32,3.32,0,0,0-.34-1.15L38.93,14.34a2.74,2.74,0,0,0-2.54-1.77Zm-.08,2.12L18.66,51.79H21L34.24,41,37,40.57l3.59,2.6,4.76,2.46,2.81,3.28,2.8,2.42,1.76.84.46-1.89Z" transform="translate(-2.7 -2.6)"/></svg>