<svg id="Capa_1" data-name="Capa 1" xmlns="http://www.w3.org/2000/svg" viewBox="0 0 67.18 67.18"><defs><style>.cls-1{fill:#173559;}</style></defs><g id="Capa_1-2" data-name="Capa 1-2"><path class="cls-1" d="M36.39,69.79A33.6,33.6,0,1,1,69.84,36.06v.27h0a33.19,33.19,0,0,1-32.9,33.46h-.55Zm0-65.29A31.7,31.7,0,1,0,67.94,36.34h0A31.27,31.27,0,0,0,37.25,4.5h-.86Z" transform="translate(-2.66 -2.6)"/></g><path class="cls-1" d="M52.11,46.94c0,1.63,0,3.26,0,4.89a4.55,4.55,0,0,1-4.86,4.79c-2,0-4.11,0-6.16,0-.59,0-.77-.12-.76-.73,0-3.23,0-6.46,0-9.68,0-.64-.15-.82-.79-.8-2.26,0-4.52,0-6.77,0-.53,0-.67.13-.67.66,0,3.26,0,6.51,0,9.77,0,.65-.17.8-.8.78-2.11,0-4.22,0-6.34,0a4.43,4.43,0,0,1-4.61-4.41c-.08-3.53,0-7.08,0-10.62a1.68,1.68,0,0,1,.54-1.21L35.16,26.16c.82-.82,1.36-.81,2.19,0q7.07,7,14.13,14.11a2.06,2.06,0,0,1,.64,1.6C52.1,43.57,52.11,45.26,52.11,46.94Z" transform="translate(-2.66 -2.6)"/><path class="cls-1" d="M45.79,22.58c0-1.1,0-1.93,0-2.75a2.5,2.5,0,0,1,5,.07c0,2.31,0,4.63,0,6.94a1.59,1.59,0,0,0,.51,1.27c2,2,4,3.94,5.94,5.93a2.52,2.52,0,0,1-3.06,4,5.58,5.58,0,0,1-.76-.7L37.68,21.59c-1.14-1.14-1.73-1.14-2.87,0q-7.94,7.93-15.87,15.87a2.77,2.77,0,0,1-2.5,1,2.48,2.48,0,0,1-1.69-3.86,5.71,5.71,0,0,1,.73-.83L31.29,18a6.61,6.61,0,0,1,9.93,0C42.69,19.47,44.16,20.94,45.79,22.58Z" transform="translate(-2.66 -2.6)"/></svg>