<svg id="Capa_1" data-name="Capa 1" xmlns="http://www.w3.org/2000/svg" viewBox="0 0 67.18 67.18"><defs><style>.cls-1{fill:#173559;}.cls-2{fill:#cd3433;}</style></defs><g id="Capa_1-2" data-name="Capa 1-2"><path class="cls-1" d="M36.43,69.79A33.6,33.6,0,1,1,69.88,36.06v.27h0A33.17,33.17,0,0,1,37,69.79h-.56Zm0-65.29A31.7,31.7,0,1,0,68,36.34h0A31.28,31.28,0,0,0,37.3,4.5h-.87Z" transform="translate(-2.7 -2.6)"/></g><path class="cls-2" d="M41.13,12" transform="translate(-2.7 -2.6)"/><path class="cls-2" d="M41.13,12" transform="translate(-2.7 -2.6)"/><path class="cls-2" d="M41.55,12" transform="translate(-2.7 -2.6)"/><rect class="cls-1" x="27.24" y="10.44" width="12.71" height="46.29" rx="6.36"/><rect class="cls-1" x="29.94" y="13.05" width="12.71" height="46.29" rx="6.36" transform="translate(-2.6 69.88) rotate(-90)"/></svg>