<svg id="Capa_1" data-name="Capa 1" xmlns="http://www.w3.org/2000/svg" viewBox="0 0 72.53 72.53"><defs><style>.cls-1{fill:none;stroke:#fff;stroke-miterlimit:10;stroke-width:2px;}.cls-2{fill:#193659;}.cls-3{fill:#fff;}</style></defs><rect class="cls-1" x="1" y="1" width="70.53" height="70.53" rx="12.17"/><path class="cls-2" d="M40,13.29" transform="translate(-0.03 0.07)"/><path class="cls-2" d="M40,13.29" transform="translate(-0.03 0.07)"/><path class="cls-2" d="M40.42,13.29" transform="translate(-0.03 0.07)"/><path class="cls-2" d="M42.18,56.17H36.49a1.31,1.31,0,1,1,0-2.62h5.69a1.31,1.31,0,0,1,0,2.62Zm-11.41,0H25.06a1.31,1.31,0,0,1-1.31-1.31,1.36,1.36,0,0,1,1.31-1.31h5.71a1.31,1.31,0,1,1,0,2.62Z" transform="translate(-0.03 0.07)"/><path class="cls-2" d="M19.37,56.17H16.75a1.31,1.31,0,0,1-1.31-1.31V52.24a1.3,1.3,0,0,1,1.31-1.31,1.36,1.36,0,0,1,1.31,1.31v1.31h1.31a1.36,1.36,0,0,1,1.31,1.31A1.31,1.31,0,0,1,19.37,56.17Z" transform="translate(-0.03 0.07)"/><path class="cls-2" d="M16.75,47.86a1.31,1.31,0,0,1-1.31-1.31V40.83a1.31,1.31,0,0,1,2.62,0v5.72A1.37,1.37,0,0,1,16.75,47.86Zm0-11.43a1.31,1.31,0,0,1-1.31-1.31V29.43a1.31,1.31,0,0,1,2.62,0v5.69A1.31,1.31,0,0,1,16.75,36.43Z" transform="translate(-0.03 0.07)"/><path class="cls-2" d="M16.75,25.1a1.31,1.31,0,0,1-1.31-1.31V21.17a1.3,1.3,0,0,1,1.31-1.31h2.62a1.31,1.31,0,0,1,0,2.62H18.06v1.31A1.31,1.31,0,0,1,16.75,25.1Z" transform="translate(-0.03 0.07)"/><path class="cls-2" d="M42.18,22.48H36.49a1.31,1.31,0,0,1,0-2.62h5.69a1.31,1.31,0,0,1,0,2.62Zm-11.41,0H25.06a1.31,1.31,0,0,1,0-2.62h5.71a1.31,1.31,0,1,1,0,2.62Z" transform="translate(-0.03 0.07)"/><path class="cls-2" d="M50.52,25.1a1.31,1.31,0,0,1-1.31-1.31V22.48H47.9a1.31,1.31,0,1,1,0-2.62h2.62a1.31,1.31,0,0,1,1.31,1.31v2.62A1.31,1.31,0,0,1,50.52,25.1Z" transform="translate(-0.03 0.07)"/><path class="cls-2" d="M50.52,36.43a1.31,1.31,0,0,1-1.31-1.31V29.43a1.31,1.31,0,1,1,2.62,0v5.69A1.31,1.31,0,0,1,50.52,36.43Z" transform="translate(-0.03 0.07)"/><path class="cls-2" d="M43,37.74a1,1,0,0,1,.71.21l17.67,6.63.4.16c.36.39,1,.84,1,1.23s-.65,1-1.13,1.1C59,47.78,56.39,48.41,53.9,49a1.31,1.31,0,0,0-1.08,1.08c-.52,2.41-1.15,4.82-1.75,7.26v.24c-.16.62-.4,1.31-1.16,1.36s-1.07-.6-1.31-1.23L42.55,41.8a25.57,25.57,0,0,1-.89-2.44,1.23,1.23,0,0,1,.75-1.57A1.28,1.28,0,0,1,43,37.74Zm6.64,17.75a3,3,0,0,1,.26-1c.5-2,1-3.93,1.47-5.93a1.26,1.26,0,0,1,1-1.05l.84-.21,6.21-1.54L43.7,39.89Z" transform="translate(-0.03 0.07)"/><path class="cls-3" d="M49.63,55.49,43.7,39.89l15.73,5.9-6.21,1.54-.84.21a1.26,1.26,0,0,0-1,1.05c-.45,2-1,4-1.47,5.93C49.84,54.78,49.76,55,49.63,55.49Z" transform="translate(-0.03 0.07)"/></svg>