<svg xmlns="http://www.w3.org/2000/svg" viewBox="0 0 16.83 26.84"><g id="Capa_2" data-name="Capa 2"><g id="Capa_1-2" data-name="Capa 1"><path d="M6.31,9.2c0,.37,0,.74,0,1.11,0,.67.14.76,1.19.74.51,0,.4.08.41-.68,0-.14,0-.27,0-.41a.44.44,0,0,1,.24-.38.47.47,0,0,1,.52,0,.59.59,0,0,1,.26.58c0,.92,0,.92.84.92.58,0,.75-.16.76-.74,0-.76,0-1.51,0-2.26a.6.6,0,0,0-.24-.51c-.56-.47-1.13-1-1.68-1.44-.18-.16-.29-.11-.44,0a9.67,9.67,0,0,1-1.1.93A1.66,1.66,0,0,0,6.3,8.87,1.79,1.79,0,0,1,6.31,9.2Z" fill="#fff"/><path d="M15.71,7.31A7.08,7.08,0,0,0,13.52,3.1,7.25,7.25,0,0,0,5.8,1.53,7,7,0,0,0,3.58,2.86.7.7,0,0,1,3.2,3a6.92,6.92,0,0,1-.61.6A.52.52,0,0,1,2.51,4a9.52,9.52,0,0,0-1,1.92A7.76,7.76,0,0,0,1.19,10,22.63,22.63,0,0,0,3,15.28,81.52,81.52,0,0,0,7.27,23.9c.32.56.65,1.11,1,1.67.14.26.23.29.39,0,.77-1.38,1.6-2.74,2.33-4.14a59.23,59.23,0,0,0,4.27-9.72A9.41,9.41,0,0,0,15.71,7.31ZM8.43,14.72a6.29,6.29,0,0,1-6.31-6.2,6.21,6.21,0,0,1,6.3-6.39,6.22,6.22,0,0,1,6.31,6.34A6.29,6.29,0,0,1,8.43,14.72Z" fill="#fff"/><path d="M8.44,13.67A5.26,5.26,0,1,0,3.16,8.33,5.2,5.2,0,0,0,8.44,13.67ZM7.65,5.23c.91-.8.94-.49,1.58,0,.37.3.72.61,1.07.92.12.1.21.2.3,0a.47.47,0,0,1,.54-.29.52.52,0,0,1,.43.49.55.55,0,0,1,0,.18,1.21,1.21,0,0,0,.69,1.36l.17.14a.5.5,0,0,1,.06.73.49.49,0,0,1-.66.12c-.08,0-.12-.13-.26-.1v1.49A1.64,1.64,0,0,1,9.75,12.1H7a1.61,1.61,0,0,1-1.75-1.71c0-.54,0-1.08,0-1.61A.34.34,0,0,0,5,8.86.49.49,0,0,1,4.3,8.7.51.51,0,0,1,4.43,8C5.5,7.07,6.59,6.17,7.65,5.23Z" fill="#fff"/><path d="M7.89,0a8.42,8.42,0,0,0-5,2.06.51.51,0,0,0-.06.82.53.53,0,0,0,.75,0A7,7,0,0,1,5.8,1.53,7.25,7.25,0,0,1,13.52,3.1a7.08,7.08,0,0,1,2.19,4.21,9.41,9.41,0,0,1-.49,4.4A59.23,59.23,0,0,1,11,21.43c-.73,1.4-1.56,2.76-2.33,4.14-.16.29-.25.26-.39,0-.31-.56-.64-1.11-1-1.67A81.52,81.52,0,0,1,3,15.28,22.63,22.63,0,0,1,1.19,10,7.76,7.76,0,0,1,1.5,5.93,9.52,9.52,0,0,1,2.51,4a.5.5,0,0,0-.13-.74.48.48,0,0,0-.71.14A8.58,8.58,0,0,0,0,8.34a15,15,0,0,0,1.24,5.47C1.69,15,3,17.91,2.93,17.9s2.51,4.84,2.93,5.61c0,0,1.24,2.21,1.71,2.89a1,1,0,0,0,1.69,0c.15-.22.27-.4.3-.43,1-1.71,4.41-8.23,4.44-8.29a40.27,40.27,0,0,0,2.39-6.27,10.09,10.09,0,0,0,.26-4.79A8.45,8.45,0,0,0,7.89,0Z" fill="#0a72b9"/><path d="M8.43,14.72a6.29,6.29,0,0,0,6.3-6.25A6.22,6.22,0,0,0,8.42,2.13a6.21,6.21,0,0,0-6.3,6.39A6.29,6.29,0,0,0,8.43,14.72Zm0-11.57a5.26,5.26,0,1,1,0,10.52A5.2,5.2,0,0,1,3.16,8.33,5.27,5.27,0,0,1,8.42,3.15Z" fill="#0a72b9"/><path d="M4.3,8.7A.49.49,0,0,0,5,8.86a.34.34,0,0,1,.28-.08c0,.53,0,1.07,0,1.61A1.61,1.61,0,0,0,7,12.1H9.75a1.64,1.64,0,0,0,1.84-1.85V8.76c.14,0,.18.07.26.1a.49.49,0,0,0,.66-.12A.5.5,0,0,0,12.45,8l-.17-.14a1.21,1.21,0,0,1-.69-1.36.55.55,0,0,0,0-.18.52.52,0,0,0-.43-.49.47.47,0,0,0-.54.29c-.09.25-.18.15-.3,0-.35-.31-.7-.62-1.07-.92-.64-.52-.67-.83-1.58,0C6.59,6.17,5.5,7.07,4.43,8A.51.51,0,0,0,4.3,8.7ZM7.09,7.06a9.67,9.67,0,0,0,1.1-.93c.15-.13.26-.18.44,0,.55.49,1.12,1,1.68,1.44a.6.6,0,0,1,.24.51c0,.75,0,1.5,0,2.26,0,.58-.18.73-.76.74-.83,0-.84,0-.84-.92a.59.59,0,0,0-.26-.58.47.47,0,0,0-.52,0,.44.44,0,0,0-.24.38c0,.14,0,.27,0,.41,0,.76.1.68-.41.68-1,0-1.18-.07-1.19-.74,0-.37,0-.74,0-1.11a1.79,1.79,0,0,0,0-.33A1.66,1.66,0,0,1,7.09,7.06Z" fill="#0a72b9"/></g></g></svg>