<svg id="Capa_1" data-name="Capa 1" xmlns="http://www.w3.org/2000/svg" viewBox="0 0 65.99 78.62"><path d="M66.21,25.31c.11,8.71-.12,17.38-2.94,25.78C59.71,61.67,52.81,69.25,43.06,74.4a56.83,56.83,0,0,1-8,3.45,3.11,3.11,0,0,1-2.12.14C21.61,74.05,12.25,67.71,6.67,56.72A51.05,51.05,0,0,1,1.76,38.81c-.86-8-.43-16.06-.34-24.08,0-2,1.1-2.94,3.29-3a44.13,44.13,0,0,0,12-1.56A35.23,35.23,0,0,0,31.21,2c2.12-2,3.07-2,5.17,0,6.85,6.38,15,9.38,24.3,9.75.84,0,1.68,0,2.52.06,2,.12,3,1.09,3,3.09C66.23,18.34,66.21,21.83,66.21,25.31Z" transform="translate(-0.73 0)" fill="#fff" stroke="#fff" stroke-miterlimit="10"/><path d="M60.78,27.18c.19,7.44-.2,14.85-2.48,22C54.69,60.47,46.69,67.53,36,71.94a5.37,5.37,0,0,1-4.44,0C23.66,68.69,17.3,64,13,57.33a34.79,34.79,0,0,1-4-9C7,41.66,6.61,34.76,6.62,27.83c0-3,.15-6,.11-8.94,0-1.16.34-1.49,1.49-1.55a41.74,41.74,0,0,0,19.51-5.72A36.06,36.06,0,0,0,32.8,8c.64-.54,1.08-.73,1.84-.09a40.71,40.71,0,0,0,24.71,9.41,1.61,1.61,0,0,1,1.19.39,1.71,1.71,0,0,1,.27,1.19C60.73,21.67,60.78,24.43,60.78,27.18Z" transform="translate(-0.73 0)" fill="#fb9d00"/><path d="M47.7,32.2a2.69,2.69,0,0,1-.87,2.08C41.91,39.21,37,44.15,32,49.05a2.64,2.64,0,0,1-4,0q-3.69-3.59-7.28-7.26a2.78,2.78,0,0,1-.2-3.93,2.7,2.7,0,0,1,4,.1c1.55,1.46,3.09,2.94,4.53,4.52.73.8,1.12.7,1.83,0,3.94-4,7.94-8,11.9-11.93a2.81,2.81,0,0,1,3.36-.79A2.48,2.48,0,0,1,47.7,32.2Z" transform="translate(-0.73 0)" fill="#fff"/></svg>