<?xml version="1.0" encoding="utf-8"?>
<!-- Generator: Adobe Illustrator 26.0.3, SVG Export Plug-In . SVG Version: 6.00 Build 0)  -->
<svg version="1.1" id="Capa_1" xmlns="http://www.w3.org/2000/svg" xmlns:xlink="http://www.w3.org/1999/xlink" x="0px" y="0px"
	 viewBox="0 0 1656 242.6" style="enable-background:new 0 0 1656 242.6;" xml:space="preserve">
<style type="text/css">
	.st0{fill:#0B73BA;}
	.st1{fill:#163559;}
	.st2{fill:#FDFDFD;}
	.st3{fill:#173559;}
</style>
<path class="st0" d="M1656,241.9c-120.9,2.5-241.9-1.2-362.4-11.1C789.6,189,545,58.3,136.3,130.6C76.6,141.1,28.9,153.3,0,161.2
	V19.3h1656V241.9z"/>
<path class="st1" d="M1656,222.6c-120.9,2.5-241.9-1.2-362.4-11.1C789.6,169.7,545,38.9,136.3,111.3C76.6,121.8,28.9,134,0,141.9V0
	h1656V222.6z"/>
<path class="st2" d="M1560.2,126.5c0,5.8,0,11.6,0,17.5c0,1.9-0.6,2.5-2.5,2.4c-3.6-0.1-7.3-0.1-11,0c-1.8,0-2.3-0.6-2.3-2.3
	c0-8.9,0-17.9,0-26.8c0-7.7-2.8-10.5-10.6-10.2c-1.2,0.1-2.5,0.2-3.7,0.4c-2.3,0.3-3.1,1.2-2.3,3.7c0.4,1.9,0.5,3.9,0.3,5.9
	c0,8.8,0,17.7,0,26.5c0,2.5-0.8,2.9-3,2.8c-3.1-0.2-6.3-0.2-9.4,0c-2.5,0.2-3.4-0.5-3.3-3.2c0.2-9.2,0-18.3,0-27.5
	c0-5.8-2.5-8.3-8.2-8.7c-7.5-0.4-7.6-0.4-7.6,7.1c0,9.9,0,19.8,0,29.6c0,2-0.5,2.8-2.6,2.8c-3.6-0.2-7.3,0-10.9,0
	c-1.8,0-2.8-0.3-2.6-2.4c0.7-13.9,0.2-28,0.3-42.1c0-0.9,0-1.8,1.1-2.3c11.4-5.8,23-8.9,35.2-2.8c2.5,1.6,5.7,1.7,8.3,0.2
	c6.9-3.6,14.9-4.4,22.4-2.2c7.4,1.7,12.5,8.5,12,16.1L1560.2,126.5z"/>
<path class="st2" d="M1234.2,108.7c7,2.3,11.4,6.3,12.5,13.4c1.5,7.3-1.6,14.8-7.9,18.9c-5.6,3.7-12.2,5.6-18.9,5.3
	c-7.3,0-14.6,0-21.9,0c-2.1,0-2.6-0.6-2.6-2.8c0-20.6,0-41.1,0-61.7c0-1.1-0.4-2.3,1.4-2.5c10.7-1.4,21.5-3.3,32.2-0.3
	c9.8,2.8,14.9,9.7,13.9,18.6C1242.4,102.9,1239.1,106.2,1234.2,108.7z"/>
<path class="st2" d="M1620.5,120.5c0,18.2-12.7,27.2-28.2,26.8c-15.6-0.5-25.9-11.1-25.7-28.4c0.2-15.3,11.5-25.5,28.3-25.3
	C1610.1,93.7,1620.7,104.8,1620.5,120.5z"/>
<path class="st2" d="M1299.1,126c0,4-0.2,8.1,0,12.2c0.2,2-0.9,3.9-2.8,4.6c-8.1,3.7-17,5.2-25.8,4.6c-3.4,0-6.8-0.7-10-2.1
	c-4.5-1.7-7.6-5.8-8.1-10.6c-0.8-5.7,1.7-11.4,6.5-14.6c4.8-2.9,10.2-4.7,15.9-5.1c2.1-0.3,4.1-0.5,6.2-0.5c2.4,0,2.9-0.7,2.2-3.1
	c-0.7-2.8-3.3-4.7-6.2-4.6c-3.6-0.1-7.3,0.2-10.9,0.9c-5,0.7-7-0.3-8.8-5.1s-1.8-4.6,2.8-6c7.7-2.7,16-3.3,24-1.7
	c9.9,2.2,14.7,8.1,14.9,18.2C1299.1,117.2,1299.1,121.6,1299.1,126z"/>
<path class="st2" d="M1308.1,123.2c0-6.9,0-13.7,0-20.6c0-1.3,0-2.4,1.4-3.1c10.9-5.3,22.3-7.8,34.1-4.2c8.5,2.5,12,7.6,12,16.3
	c0,10.7,0,21.4,0,32.1c0,2.2-0.6,2.8-2.8,2.8c-3.4-0.2-6.9-0.2-10.3,0c-2.1,0-2.6-0.7-2.6-2.8c0-8.8,0-17.7,0-26.5
	c0-7.7-2.6-10.3-10.3-10.2c-6,0-6,0-6,5.9c0,10.3,0,20.6,0,30.9c0,2-0.5,2.8-2.6,2.6c-3.5-0.2-7.1-0.2-10.6,0
	c-2.2,0-2.5-0.8-2.5-2.8c0-6.9,0-13.7,0-20.6L1308.1,123.2z"/>
<path class="st2" d="M1087.7,124.9c-0.4-2.6,1.2-5.1,3.7-5.8c13.5-5.7,27.5-10.3,41.7-13.7c9.9-2.4,19.9-4,30-5.6
	c2.4-0.7,4.8,0.7,5.5,3c0,0.1,0,0.1,0.1,0.2c1,3.1,2.1,6.3,3.1,9.4c1,3.1,0,4.1-2.9,4.6c-25.3,3.9-49.9,11.1-73.4,21.3
	c-3.4,1.5-4.9,0.8-5.6-2.8C1089.3,132.1,1088.4,128,1087.7,124.9z"/>
<path class="st2" d="M1405.7,147.4c-3.9,0.1-7.7-0.2-11.5-0.8c-1.2,0-2.2-0.9-2.3-2.1c-0.6-3.1-0.6-6.2,0-9.3c0.4-2.1,1.1-2.8,3.3-2
	c2.9,1,6,1.7,9.1,2c2.6,0.5,5.2,0.1,7.6-1.1c1.6-0.4,2.5-2.1,2-3.6c-0.2-0.9-0.9-1.6-1.7-1.9c-2-1.1-4.2-1.9-6.4-2.4
	c-2.2-0.6-4.3-1.4-6.3-2.6c-7.3-4.2-9.8-13.5-5.6-20.8c1.2-2.1,2.9-3.8,4.9-5.1c9.1-5.7,19.1-4.9,29-2.6c0.9,0.1,1.4,1,1.3,1.8
	c0,0.1,0,0.2-0.1,0.3c-0.2,1.1-0.3,2.3-0.5,3.4c-1.8,7.3-1.8,7.3-8.9,5.9c-3-0.7-6-0.6-9,0.3c-1.4,0.3-2.5,1.4-2.8,2.8
	c-0.4,1.6,0.8,2.5,1.9,3.3c1.8,1.2,3.8,2.1,5.9,2.8c1.9,0.7,3.9,1.4,5.8,2.2c4.9,2.3,8.6,5.6,8.8,11.4c0.7,6.4-2.6,12.6-8.3,15.5
	C1416.8,147.1,1411.2,148,1405.7,147.4z"/>
<path class="st2" d="M1460.2,147.4c-3,0-5.9-0.3-8.8-0.9c-6.3-1.5-9.5-5.4-9.8-13c-0.3-7.6-0.2-15.6,0-23.4c0-2.4-0.5-3.2-3-3.1
	c-5.3,0.2-5.6-0.3-3.7-5.2c3.5-9.1,10.7-16.4,19.7-20.2c2-0.9,3-0.8,2.8,1.8c-0.2,2.6,0,5.6,0,8.3c0,2,0.4,2.8,2.6,2.8
	c3.5-0.2,7.1,0,10.6,0c1.8,0,2.5,0.6,2.1,2.4c-0.3,1-0.3,2.1-0.5,3.1c-1.3,6.3-2.3,7.2-8.8,7.2c-6,0-6,0-6,6v13.7
	c0,6.5,2.3,8.6,8.7,6.9c3.2-0.9,4.3,0.4,4.6,2.8c1.3,10.3,2.8,9.7-7.6,10.5L1460.2,147.4z"/>
<path class="st2" d="M1159.1,88.7c0.1,1.9-1.4,3.5-3.3,3.6c-0.1,0-0.1,0-0.2,0c-13.1,1.9-26.1,4.6-38.9,8l-8.1,2.3
	c-3.8,1.1-5.2,0.3-6.2-3.4c-0.8-2.8-1.4-5.8-2.2-8.7c-0.9-3.8,0-5.6,3.8-6.7c9.6-2.7,19.3-4.9,29.1-6.5c5-0.8,10.1-1.6,15.1-2.3
	c5-0.8,5.9,0,7.5,4.4C1156.9,82.6,1158,85.8,1159.1,88.7z"/>
<path class="st2" d="M1171.7,140.2c0,2.3-0.6,3.4-2.5,3.9c-15.7,3.9-31.2,8.5-46.5,13.9c-1.9,1-4.2,0.2-5.2-1.7
	c-0.2-0.4-0.3-0.8-0.4-1.2c-0.9-3.2-1.8-6.4-2.6-9.6c-0.8-3.2,0-5.2,3.4-6.4c12.6-4.2,25.4-7.8,38.3-10.7c2.3-0.5,4.7-1,7-1.6
	c1.8-0.7,3.7,0.1,4.5,1.8C1169.5,132.4,1170.8,136.3,1171.7,140.2z"/>
<path class="st2" d="M1381.8,120.6c0,7.7,0,15.4,0,23c0,2.3-0.7,2.8-2.8,2.8c-3.4-0.2-6.9-0.1-10.3,0c-1.9,0-2.8-0.3-2.8-2.5
	c0-15.6,0-31.2,0-46.7c0-1.9,0.8-2.6,2.4-2.8c3.6-0.8,7.3-0.8,10.8,0c1.5,0,2.7,1.3,2.7,2.9c0,0.2,0,0.3-0.1,0.5
	C1381.8,105.2,1381.8,112.9,1381.8,120.6z"/>
<path class="st2" d="M1382,79.2c0,4.5-3.7,8.1-8.2,8c-4.5,0-8.1-3.7-8-8.2c0-4.4,3.6-8,8-8c0.1,0,0.1,0,0.2,0c4.4,0,7.9,3.5,8,7.8
	C1382,79,1382,79.1,1382,79.2z"/>
<path class="st3" d="M1211.6,125.2c0-7.3,0-7.3,7.3-7.3c1.9-0.1,3.7,0.1,5.6,0.6c3.1,0.5,5.4,3.2,5.4,6.3c0.4,3.3-1.6,6.5-4.8,7.4
	c-4,1.4-8.3,0.6-12.4,0.8c-1.1,0-1.1-0.8-1.1-1.5V125.2z"/>
<path class="st3" d="M1211.6,98.1c0-7.3,0-7.3,7.3-7.1c2.5-0.1,5,0.8,6.8,2.5c2.4,2.7,2.3,6.8-0.4,9.2c-0.7,0.6-1.5,1.1-2.4,1.4
	c-3.3,0.7-6.8,0.9-10.2,0.6c-1.1,0-1.1-0.6-1.1-1.4C1211.6,101.6,1211.6,99.8,1211.6,98.1z"/>
<path class="st3" d="M1604.7,120.2c0,6.8-2.3,11.1-6.8,12.7c-5.5,2.5-11.9,0-14.3-5.4c-0.5-1.1-0.8-2.3-0.9-3.5
	c-0.7-3.6-0.4-7.3,1-10.6c1.7-4.2,6-6.7,10.5-6.2c4.3,0,8.1,2.8,9.4,6.9C1604.4,116,1604.8,118.1,1604.7,120.2z"/>
<path class="st3" d="M1283.7,129c0,4.6,0,4.6-4.5,5.8c-2.6,0.7-5.4,0.8-8,0.1c-1.8-0.3-3.2-1.7-3.5-3.5c-0.4-1.8,0.3-3.6,1.8-4.6
	c4-2.8,8.7-2.6,13.2-2.6c0.9,0,0.9,0.7,0.9,1.3V129z"/>
</svg>
