<svg id="Capa_1" data-name="Capa 1" xmlns="http://www.w3.org/2000/svg" viewBox="0 0 303.18 300.72"><defs><style>.cls-1{fill:#163559;opacity:0.05;}</style></defs><path class="cls-1" d="M.07,180.07C-.7,167.78,5,162.88,13.33,159.31A923.85,923.85,0,0,1,163,110.22c35.65-8.5,71.75-14.55,108-19.8,10-1.45,16.71,1.91,19.91,11.71,3.69,11.32,7.73,22.54,11.2,33.92,3,9.89-.31,14.85-10.49,16.49-91.09,14.72-179.37,39-263.81,76.53-12.22,5.43-17.61,2.82-20.25-9.74C4.64,205.49,2.24,191.54.07,180.07Z"/><path class="cls-1" d="M256.34,50.15c-.66,8.91-5,11.83-12.4,13-47.22,7.36-94.16,16.09-140.28,28.8-9.69,2.67-19.35,5.51-29,8.24C60.92,104,56,101.43,52.41,88c-2.77-10.42-5.14-20.94-7.74-31.41-3.45-13.84-.17-20,13.71-23.95A959.26,959.26,0,0,1,163.17,9.22c18.05-3,36.16-5.6,54.25-8.37,16.69-2.56,21.3.1,27,15.78C248.61,28.12,252.62,39.67,256.34,50.15Z"/><path class="cls-1" d="M301.8,235.45c.38,8.36-2.06,12.25-8.87,13.93q-84.74,20.91-167,50.11c-9.9,3.49-16.88-.55-19.85-10.57-3.38-11.41-6.39-22.93-9.4-34.44-3.37-12.9-.34-18.72,12.33-22.91q68-22.51,137.82-38.49c8.36-1.91,16.8-3.53,25.1-5.73,7.26-1.92,13.23.27,16.13,6.57C294.47,207.77,298.2,222.6,301.8,235.45Z"/></svg>