<svg xmlns="http://www.w3.org/2000/svg" xmlns:xlink="http://www.w3.org/1999/xlink" viewBox="0 0 360.03 89.79"><defs><style>.cls-1{isolation:isolate;}.cls-2{fill:#193659;}.cls-3{fill:#fdfdfd;}.cls-4{fill:#258135;}.cls-5{fill:#0673b9;}.cls-6{mix-blend-mode:multiply;fill:url(#Degradado_sin_nombre_17);}</style><radialGradient id="Degradado_sin_nombre_17" cx="343.43" cy="-516.33" r="5.58" gradientTransform="translate(-418.71 3357.68) scale(1.82 6.43)" gradientUnits="userSpaceOnUse"><stop offset="0" stop-color="#010101" stop-opacity="0.9"/><stop offset="1" stop-color="#010101" stop-opacity="0"/></radialGradient></defs><g class="cls-1"><g id="Capa_1" data-name="Capa 1"><path class="cls-2" d="M348,89.76H150.5V69.58H348c6.55-.54,12,4,12.44,9.1C361,84.33,355.38,90.25,348,89.76Z" transform="translate(-0.46)"/><path class="cls-3" d="M183.86,83.82,182,80.57h-1.4v3.25h-1v-7.7H182a4.63,4.63,0,0,1,1.09.11,2.31,2.31,0,0,1,.86.37,1.75,1.75,0,0,1,.56.67,2.33,2.33,0,0,1,.2,1,2.13,2.13,0,0,1-.47,1.44,2.43,2.43,0,0,1-1.26.74L185,83.82Zm-3.25-4h1.29a2.21,2.21,0,0,0,1.39-.37,1.33,1.33,0,0,0,.48-1.12,1.16,1.16,0,0,0-.48-1.07,2.53,2.53,0,0,0-1.39-.31h-1.29Z" transform="translate(-0.46)"/><path class="cls-3" d="M189.4,76.12h4.44v.82h-3.47v2.42h2.93v.83h-2.93V83H194v.83H189.4Z" transform="translate(-0.46)"/><path class="cls-3" d="M207.85,76.12h1V83h3.37v.83h-4.35Z" transform="translate(-0.46)"/><path class="cls-3" d="M216.69,76.94h-2.33v-.82H220v.82h-2.32v6.88h-1Z" transform="translate(-0.46)"/><path class="cls-3" d="M224.33,76.12h1v7.7h-1Z" transform="translate(-0.46)"/><path class="cls-3" d="M231.71,79.84l-2.09-3.72h1.08l1.05,2,.29.52.31.6h.05l.28-.6c.09-.17.17-.34.27-.52l1-2h1l-2.1,3.77,2.25,3.93h-1.09l-1.12-2.08c-.11-.18-.21-.38-.31-.58l-.35-.65h-.05c-.11.23-.21.45-.32.65l-.29.58-1.12,2.08h-1Z" transform="translate(-0.46)"/><path class="cls-3" d="M246.22,76.94H243.9v-.82h5.64v.82h-2.33v6.88h-1Z" transform="translate(-0.46)"/><path class="cls-3" d="M253.86,76.12h4.44v.82h-3.46v2.42h2.92v.83h-2.92V83h3.58v.83h-4.56Z" transform="translate(-0.46)"/><path class="cls-3" d="M262.54,80a5.09,5.09,0,0,1,.26-1.67,3.71,3.71,0,0,1,.72-1.26,3.15,3.15,0,0,1,1.08-.79A3.45,3.45,0,0,1,266,76a2.61,2.61,0,0,1,1.24.28,3.35,3.35,0,0,1,.87.67l-.56.62a2.52,2.52,0,0,0-.67-.52,1.86,1.86,0,0,0-.87-.2,2.28,2.28,0,0,0-1,.22,2.1,2.1,0,0,0-.77.62,3.11,3.11,0,0,0-.49,1,4.39,4.39,0,0,0-.18,1.3,4.83,4.83,0,0,0,.17,1.31,3.26,3.26,0,0,0,.48,1,2.13,2.13,0,0,0,.74.63,2.2,2.2,0,0,0,1,.23,2.06,2.06,0,0,0,1-.23,3,3,0,0,0,.79-.63l.55.6a3.49,3.49,0,0,1-1,.82,2.79,2.79,0,0,1-1.32.29,3.31,3.31,0,0,1-1.34-.27,3,3,0,0,1-1.07-.78,3.71,3.71,0,0,1-.71-1.25A5.51,5.51,0,0,1,262.54,80Z" transform="translate(-0.46)"/><path class="cls-3" d="M272.63,76.12h1v3.23h3.58V76.12h1v7.7h-1V80.19h-3.58v3.63h-1Z" transform="translate(-0.46)"/><path class="cls-3" d="M283.23,76.12h1L287,81l.83,1.59h.05c0-.39-.05-.79-.08-1.21s0-.83,0-1.24v-4h.93v7.7h-1L284.91,79l-.83-1.59H284l.09,1.2c0,.4,0,.81,0,1.21v4h-.93Z" transform="translate(-0.46)"/><path class="cls-3" d="M296.61,84a3.08,3.08,0,0,1-1.33-.28,2.91,2.91,0,0,1-1-.8,3.76,3.76,0,0,1-.68-1.27,5.5,5.5,0,0,1-.24-1.68,5.37,5.37,0,0,1,.24-1.66,3.61,3.61,0,0,1,.68-1.24,2.85,2.85,0,0,1,1-.78,3.23,3.23,0,0,1,1.33-.27,3.27,3.27,0,0,1,1.34.27,3.09,3.09,0,0,1,1,.79,3.61,3.61,0,0,1,.68,1.24,5.3,5.3,0,0,1,.24,1.65,5.5,5.5,0,0,1-.24,1.68,3.76,3.76,0,0,1-.68,1.27,3,3,0,0,1-1,.8A3.12,3.12,0,0,1,296.61,84Zm0-.85a2,2,0,0,0,.94-.23,2.15,2.15,0,0,0,.71-.64,3.19,3.19,0,0,0,.47-1,5.36,5.36,0,0,0,0-2.6,2.92,2.92,0,0,0-.47-1,2,2,0,0,0-1.65-.84,2.06,2.06,0,0,0-.93.22,2,2,0,0,0-.72.62,2.91,2.91,0,0,0-.46,1,5.06,5.06,0,0,0,0,2.6,3.18,3.18,0,0,0,.46,1,2.09,2.09,0,0,0,.72.64A1.94,1.94,0,0,0,296.61,83.11Z" transform="translate(-0.46)"/><path class="cls-3" d="M304.51,76.12h1V83h3.37v.83h-4.34Z" transform="translate(-0.46)"/><path class="cls-3" d="M315.69,84a3.08,3.08,0,0,1-1.33-.28,2.91,2.91,0,0,1-1-.8,3.76,3.76,0,0,1-.68-1.27,5.5,5.5,0,0,1-.24-1.68,5.37,5.37,0,0,1,.24-1.66,3.61,3.61,0,0,1,.68-1.24,2.85,2.85,0,0,1,1-.78,3.23,3.23,0,0,1,1.33-.27,3.19,3.19,0,0,1,1.33.27,3,3,0,0,1,1.05.79,3.61,3.61,0,0,1,.68,1.24,5.3,5.3,0,0,1,.24,1.65,5.5,5.5,0,0,1-.24,1.68,3.76,3.76,0,0,1-.68,1.27,2.94,2.94,0,0,1-1.05.8A3,3,0,0,1,315.69,84Zm0-.85a1.89,1.89,0,0,0,.93-.23,2.09,2.09,0,0,0,.72-.64,3.19,3.19,0,0,0,.47-1,5.36,5.36,0,0,0,0-2.6,2.92,2.92,0,0,0-.47-1,2,2,0,0,0-.72-.62,2,2,0,0,0-.93-.22,2,2,0,0,0-1.65.84,2.91,2.91,0,0,0-.46,1,5.06,5.06,0,0,0,0,2.6,3.18,3.18,0,0,0,.46,1,2.09,2.09,0,0,0,.72.64A1.91,1.91,0,0,0,315.69,83.11Z" transform="translate(-0.46)"/><path class="cls-3" d="M323.14,80a5.09,5.09,0,0,1,.26-1.67,3.92,3.92,0,0,1,.74-1.26,3.34,3.34,0,0,1,1.13-.79,3.63,3.63,0,0,1,1.42-.27,2.7,2.7,0,0,1,1.33.29,3.68,3.68,0,0,1,.88.66l-.56.62a2.83,2.83,0,0,0-.67-.51,2,2,0,0,0-1-.21,2.57,2.57,0,0,0-1.06.22,2.19,2.19,0,0,0-.8.62,2.94,2.94,0,0,0-.51,1,4.39,4.39,0,0,0-.18,1.3,4.83,4.83,0,0,0,.17,1.31,3.06,3.06,0,0,0,.49,1,2.33,2.33,0,0,0,.8.63,2.57,2.57,0,0,0,1.1.23,2.24,2.24,0,0,0,.78-.13,1.69,1.69,0,0,0,.61-.33v-2h-1.64v-.81H329v3.24a2.87,2.87,0,0,1-1,.64,3.62,3.62,0,0,1-1.39.25,3.53,3.53,0,0,1-1.4-.27,3.07,3.07,0,0,1-1.1-.78,3.71,3.71,0,0,1-.71-1.25A5.21,5.21,0,0,1,323.14,80Z" transform="translate(-0.46)"/><path class="cls-3" d="M333.77,76.12h1v7.7h-1Z" transform="translate(-0.46)"/><path class="cls-3" d="M339.8,76.12h4.44v.82h-3.47v2.42h2.93v.83h-2.93V83h3.59v.83H339.8Z" transform="translate(-0.46)"/><path class="cls-3" d="M349,82.14a3.09,3.09,0,0,0,1,.7,2.63,2.63,0,0,0,1.16.27,1.8,1.8,0,0,0,1.18-.35,1.12,1.12,0,0,0,.43-.91,1.24,1.24,0,0,0-.1-.5,1.17,1.17,0,0,0-.27-.35,2.08,2.08,0,0,0-.41-.27l-.5-.24L350.3,80a4.08,4.08,0,0,1-.55-.28,2.2,2.2,0,0,1-.51-.4,1.75,1.75,0,0,1-.36-.55,2,2,0,0,1-.14-.75,1.85,1.85,0,0,1,.18-.81,1.89,1.89,0,0,1,.51-.65,2.18,2.18,0,0,1,.76-.43,3,3,0,0,1,1-.15,3,3,0,0,1,1.28.26,3.24,3.24,0,0,1,1,.69l-.53.63a2.84,2.84,0,0,0-.78-.53,2.34,2.34,0,0,0-1-.2,1.67,1.67,0,0,0-1,.3,1,1,0,0,0-.39.83.9.9,0,0,0,.11.48,1.07,1.07,0,0,0,.3.34,2.39,2.39,0,0,0,.41.26l.46.2,1.09.47a5.15,5.15,0,0,1,.62.32,2.42,2.42,0,0,1,.51.43,1.84,1.84,0,0,1,.33.56,2.15,2.15,0,0,1,.12.75,2,2,0,0,1-.18.85,2,2,0,0,1-.52.7,2.45,2.45,0,0,1-.82.47,3.14,3.14,0,0,1-1.1.17,3.72,3.72,0,0,1-1.5-.3,3.77,3.77,0,0,1-1.2-.84Z" transform="translate(-0.46)"/><path class="cls-4" d="M196.62,83.9h.27a.05.05,0,0,0,.05,0l3.79-7a.07.07,0,0,1,.11,0l3.79,7a.07.07,0,0,0,.05,0H205a.06.06,0,0,0,.05-.1l-4.16-7.65a.06.06,0,0,0-.11,0l-4.16,7.66A.06.06,0,0,0,196.62,83.9Z" transform="translate(-0.46)"/><path class="cls-4" d="M198,83.9h.28a.05.05,0,0,0,.05,0l2.42-4.45a.06.06,0,0,1,.1,0l2.42,4.45s0,0,0,0h.29a.06.06,0,0,0,0-.09l-2.8-5.15a.07.07,0,0,0-.1,0l-2.8,5.16A.05.05,0,0,0,198,83.9Z" transform="translate(-0.46)"/><path class="cls-3" d="M157.47,76.12h2.3a5.22,5.22,0,0,1,1.08.1,2.63,2.63,0,0,1,.84.33,1.61,1.61,0,0,1,.54.59,1.92,1.92,0,0,1-.14,1.91,1.73,1.73,0,0,1-1,.64v0a2.37,2.37,0,0,1,1.32.58,1.71,1.71,0,0,1,.47,1.27,2.25,2.25,0,0,1-.21,1,1.84,1.84,0,0,1-.6.7,2.66,2.66,0,0,1-.93.43,5,5,0,0,1-1.2.14h-2.46Zm2.12,3.3a2.42,2.42,0,0,0,1.44-.34,1.21,1.21,0,0,0,.43-1,1,1,0,0,0-.46-.92,2.68,2.68,0,0,0-1.36-.28h-1.19v2.53Zm.2,3.65a2.77,2.77,0,0,0,1.56-.37,1.29,1.29,0,0,0,.55-1.16,1.17,1.17,0,0,0-.54-1.06,3,3,0,0,0-1.57-.33h-1.34v2.92Z" transform="translate(-0.46)"/><path class="cls-3" d="M168.44,80.86l-2.33-4.74h1l1,2.18c.13.28.25.56.37.83s.24.56.38.85h0c.14-.29.27-.57.41-.85s.25-.55.37-.83l1-2.18h1l-2.32,4.74v3h-1Z" transform="translate(-0.46)"/><path class="cls-5" d="M44.6,59.05a2,2,0,0,1-.19,2.84A6.17,6.17,0,0,1,40.21,63a11.43,11.43,0,0,1-4.11-.68,5.06,5.06,0,0,1-2.67-2.11L27,49.23a9.87,9.87,0,0,0-2.4-3,10,10,0,0,0-3-1.72,15.13,15.13,0,0,0-3.67-.8c-1.36-.13-2.89-.2-4.59-.2H11.23V59.37Q11.23,63,5.88,63C2.26,63,.46,61.82.46,59.37V13.54A5.46,5.46,0,0,1,2,9.48,5.48,5.48,0,0,1,6,8H22.17a44.81,44.81,0,0,1,9.58.92,18,18,0,0,1,6.94,3,13,13,0,0,1,4.24,5.39,20.56,20.56,0,0,1,1.43,8.18q0,6.94-2.91,10.9A15.84,15.84,0,0,1,33,42a14.37,14.37,0,0,1,4.31,4.47ZM11.23,17.54v16.6H22.17a15,15,0,0,0,8.06-1.87q3-1.89,3-6.67t-3-6.39a16.45,16.45,0,0,0-8.06-1.67Z" transform="translate(-0.46)"/><path class="cls-5" d="M61.38,62.24a5.22,5.22,0,0,1-5.59-5.58V13.54a5.43,5.43,0,0,1,1.52-4.06A5.46,5.46,0,0,1,61.38,8H92c2.4,0,3.6,1.58,3.6,4.72s-1.2,4.87-3.6,4.87H66.57V30.47H86.76q3.67,0,3.68,4.63t-3.68,4.63H66.57V52.66H92q3.6,0,3.6,4.71,0,4.88-3.6,4.87Z" transform="translate(-0.46)"/><path class="cls-5" d="M120.62,11.71A5.88,5.88,0,0,1,123.94,8a14.29,14.29,0,0,1,4.91-.79,14.05,14.05,0,0,1,5,.83,6,6,0,0,1,3.35,3.8l17.73,46.94a3.85,3.85,0,0,1,.23,1.28,2.88,2.88,0,0,1-1,2c-.7.67-2,1-3.76,1a10.77,10.77,0,0,1-4.35-.76,3.91,3.91,0,0,1-2.28-2.35l-3.59-9.74H117.51l-3.59,9.74a4,4,0,0,1-2.32,2.35,10.8,10.8,0,0,1-4.31.76c-1.86,0-3.13-.33-3.79-1a2.87,2.87,0,0,1-1-2,3.62,3.62,0,0,1,.24-1.28Zm16.29,29.46-8-21.64-8.07,21.64Z" transform="translate(-0.46)"/><path class="cls-5" d="M170.53,62.24a5.22,5.22,0,0,1-5.59-5.58V10.75q0-3.59,5.43-3.59t5.35,3.59V52.66h22.35q3.68,0,3.67,4.71,0,4.88-3.67,4.87Z" transform="translate(-0.46)"/><rect class="cls-6" x="207.47" width="9.7" height="71"/><path class="cls-2" d="M270.8,58.5c0,2.41-1.43,3.6-4.3,3.6q-3.84,0-4.31-2.74l-.55-4.62A16.73,16.73,0,0,1,255.69,60q-3.84,2.11-10.18,2.11a30.28,30.28,0,0,1-10.06-1.6,20.17,20.17,0,0,1-7.86-5A22.85,22.85,0,0,1,222.46,47a36.6,36.6,0,0,1-1.84-12.29,35.57,35.57,0,0,1,1.91-12.29,22.84,22.84,0,0,1,5.37-8.54,21.38,21.38,0,0,1,8.18-5,32.17,32.17,0,0,1,10.37-1.6,27.55,27.55,0,0,1,14.84,3.79,20.13,20.13,0,0,1,8.49,11.4,3.35,3.35,0,0,1,.16.94,2.59,2.59,0,0,1-1.17,2.07c-.79.61-2.17.9-4.15.9-3.35,0-5.46-.91-6.35-2.74q-3.12-6.81-11.82-6.81a16.73,16.73,0,0,0-5.87,1,12,12,0,0,0-4.74,3.21,15.67,15.67,0,0,0-3.13,5.55,25.63,25.63,0,0,0-1.13,8.07,24.73,24.73,0,0,0,1.17,8.07A15.05,15.05,0,0,0,236,48.28a12.46,12.46,0,0,0,4.89,3.18,18.67,18.67,0,0,0,6.23,1,15,15,0,0,0,5.4-.9,11.47,11.47,0,0,0,4-2.46,9.61,9.61,0,0,0,2.34-3.64,12.28,12.28,0,0,0,.75-4.19v-.47H248.88q-3.6,0-3.6-4.23t3.6-4.15h16.28A5.43,5.43,0,0,1,269.35,34a5.54,5.54,0,0,1,1.45,3.92Z" transform="translate(-0.46)"/><path class="cls-2" d="M287.32,58.5V10.82c0-2.34,1.77-3.52,5.32-3.52s5.25,1.18,5.25,3.52V58.5c0,2.41-1.75,3.6-5.25,3.6S287.32,60.91,287.32,58.5Z" transform="translate(-0.46)"/><path class="cls-2" d="M313.08,48.72c-.74-3.09.88-4.62,4.85-4.62,3.18,0,5.19,1,6,3a7.59,7.59,0,0,0,3.56,4.34c1.8,1.08,4.35,1.61,7.64,1.61,3.86,0,6.61-.53,8.25-1.61a5.42,5.42,0,0,0,2.47-4.89,3.56,3.56,0,0,0-1.41-3,11.39,11.39,0,0,0-3.68-1.81,43.93,43.93,0,0,0-5.16-1.21c-1.94-.33-3.92-.74-6-1.21a51.6,51.6,0,0,1-5.95-1.76,17.84,17.84,0,0,1-5.16-2.9,13.9,13.9,0,0,1-3.68-4.62,15.22,15.22,0,0,1-1.41-6.93q0-7.67,5.52-11.78T334.76,7.3a31.68,31.68,0,0,1,8.5,1,18.82,18.82,0,0,1,6.1,2.81,14.07,14.07,0,0,1,3.92,4.31A15.89,15.89,0,0,1,355.2,21c.47,2.77-1.18,4.15-4.93,4.15a8.15,8.15,0,0,1-3.92-.78,4.5,4.5,0,0,1-2-2.36,8.64,8.64,0,0,0-3.1-4.07c-1.48-1.09-3.77-1.64-6.85-1.64q-4.85,0-7.4,1.57a5.37,5.37,0,0,0-2.54,4.93,4.84,4.84,0,0,0,1.41,3.64,10.52,10.52,0,0,0,3.68,2.23,32.27,32.27,0,0,0,5.16,1.45c1.94.39,3.92.82,6,1.29s4,1,5.95,1.68a18.81,18.81,0,0,1,5.16,2.67A12.94,12.94,0,0,1,355.44,40a13.54,13.54,0,0,1,1.4,6.5q0,8.05-5.36,11.81T334.92,62.1a37.08,37.08,0,0,1-9.16-1,20,20,0,0,1-6.42-2.74,14.1,14.1,0,0,1-4.11-4.22A16.69,16.69,0,0,1,313.08,48.72Z" transform="translate(-0.46)"/></g></g></svg>